<svg width="48" height="48" viewBox="0 0 48 48" fill="none" xmlns="http://www.w3.org/2000/svg">
<g clip-path="url(#clip0_491_2654)">
<path d="M40.6573 48C40.2695 48 39.9552 47.6857 39.9552 47.298V42.3837H37.6151V47.298C37.6151 47.6857 37.3009 48 36.9131 48C36.5253 48 36.211 47.6857 36.211 47.298V42.3837H33.8709V47.298C33.8709 47.6857 33.5567 48 33.1689 48C32.7811 48 32.4668 47.6857 32.4668 47.298V42.3837H30.1267V47.298C30.1267 47.6857 29.8125 48 29.4246 48H24.7443C24.5581 48 24.3796 47.9261 24.2478 47.7943C24.1162 47.6626 24.0423 47.4841 24.0423 47.298L24.0423 42.3837H21.2342L21.2341 47.298C21.2341 47.6857 20.9198 48 20.5321 48C20.1443 48 19.83 47.6857 19.83 47.298V45.1918H17.9165V47.298C17.9165 47.6857 17.6022 48 17.2144 48C16.8266 48 16.5124 47.6857 16.5124 47.298V45.1918H14.5988V47.298C14.5988 47.6857 14.2846 48 13.8968 48C13.509 48 13.1947 47.6857 13.1947 47.298V42.3837H10.3866V47.298C10.3866 47.6857 10.0723 48 9.68453 48H5.94032C5.55251 48 5.23828 47.6857 5.23828 47.298C5.23828 46.9102 5.55251 46.5959 5.94032 46.5959H8.98249V41.6816C8.98249 41.5685 9.00982 41.4569 9.06233 41.3566C9.07712 41.3279 10.5845 38.3878 11.0886 33.9776V32.8005C11.0886 32.4128 11.4028 32.0984 11.7906 32.0984C12.1785 32.0984 12.4927 32.4128 12.4927 32.8005V33.9777C12.9968 38.3879 14.5041 41.328 14.5193 41.3572C14.5713 41.4572 14.5988 41.5689 14.5988 41.6816V43.7878H16.5124V41.6816C16.5124 41.2939 16.8266 40.9796 17.2144 40.9796C17.6022 40.9796 17.9165 41.2939 17.9165 41.6816V43.7878H19.8301V41.6816C19.8301 41.681 19.8301 41.6802 19.8301 41.6796C19.8301 41.6795 19.8301 41.6794 19.8301 41.6792C19.8301 41.6787 19.8301 41.678 19.8301 41.6773C19.8301 41.6772 19.8301 41.6769 19.8301 41.6767C19.8301 41.6763 19.8301 41.6758 19.8301 41.6754C19.8301 41.6749 19.8301 41.6743 19.8301 41.6738C19.8301 41.6737 19.8301 41.6736 19.8302 41.6735C19.8315 41.556 19.8617 41.4455 19.914 41.3487C20.0009 41.1772 21.4449 38.2755 21.9362 33.9776V32.8004C21.9362 32.4127 22.2505 32.0983 22.6383 32.0983C23.0261 32.0983 23.3403 32.4127 23.3403 32.8004V33.9775C23.8312 38.2722 25.2734 41.1728 25.3627 41.3489C25.4154 41.4464 25.4455 41.5578 25.4464 41.6762V41.6764V41.6775V41.6792V41.6797V41.6816L25.4463 46.5959H28.7226V32.5165C28.7226 31.579 28.4855 31.0566 28.3416 30.8259C27.7519 30.6594 27.3185 30.1165 27.3185 29.4743V18.7097C27.3185 17.9355 27.9484 17.3056 28.7226 17.3056V15.1995C28.7226 15.0166 28.7939 14.841 28.9214 14.71L31.4547 12.1062V9.58321C31.4547 9.43672 31.5004 9.29387 31.5857 9.17471C31.6058 9.14635 33.6517 6.2312 34.3388 1.86452V0.702039C34.3388 0.314326 34.6531 0 35.0409 0C35.4287 0 35.7429 0.314326 35.7429 0.702039V1.86452C36.43 6.2312 38.4758 9.14635 38.4965 9.17546C38.581 9.29434 38.6271 9.43728 38.6271 9.58321V12.1062L41.1604 14.71C41.2878 14.841 41.3592 15.0166 41.3592 15.1995V17.3056C42.1334 17.3056 42.7633 17.9355 42.7633 18.7097V21.2839C42.7633 21.6716 42.4491 21.9859 42.0613 21.9859C41.6735 21.9859 41.3592 21.6716 41.3592 21.2839V18.7097H39.3637C38.9759 18.7097 38.6617 18.3954 38.6617 18.0077C38.6617 17.62 38.9759 17.3056 39.3637 17.3056H39.9551V15.9016H30.1266V17.3056H30.7179C31.1057 17.3056 31.4199 17.62 31.4199 18.0077C31.4199 18.3954 31.1057 18.7097 30.7179 18.7097H28.7226V29.4743H41.3593V24.092C41.3593 23.7043 41.6735 23.39 42.0614 23.39C42.4492 23.39 42.7634 23.7043 42.7634 24.092V29.4743C42.7634 30.1165 42.33 30.6594 41.7403 30.8259C41.5964 31.0566 41.3593 31.579 41.3593 32.5165V47.2981C41.3593 47.6858 41.0451 48 40.6573 48ZM37.6151 40.9796H39.9552V36.7674H37.6151V37.1942C37.6151 37.5819 37.3009 37.8963 36.9131 37.8963C36.5253 37.8963 36.211 37.5819 36.211 37.1942V36.7674H33.8709V40.9796H36.211V40.0024C36.211 39.6147 36.5253 39.3003 36.9131 39.3003C37.3009 39.3003 37.6151 39.6147 37.6151 40.0024V40.9796ZM30.1267 40.9796H32.4668V36.7674H30.1267V40.9796ZM21.6177 40.9796H23.6588C23.3679 40.2689 22.984 39.2124 22.6384 37.8762C22.2925 39.2125 21.9087 40.269 21.6177 40.9796ZM10.77 40.9796H12.8112C12.5202 40.2689 12.1364 39.2123 11.7906 37.8761C11.4448 39.2124 11.061 40.269 10.77 40.9796ZM37.6151 35.3633H39.9552V32.5164C39.9552 31.8398 40.0555 31.2993 40.1905 30.8783H29.8915C30.0263 31.2993 30.1267 31.8398 30.1267 32.5164V35.3633H32.4668V32.9844C32.4668 32.5967 32.7811 32.2824 33.1689 32.2824C33.5567 32.2824 33.8709 32.5967 33.8709 32.9844V35.3633H36.211V32.9844C36.211 32.5967 36.5253 32.2824 36.9131 32.2824C37.3009 32.2824 37.6151 32.5967 37.6151 32.9844V35.3633ZM41.8473 30.681C41.8472 30.681 41.8472 30.681 41.8473 30.681V30.681ZM31.0872 14.4975H38.9948L37.6287 13.0934H36.9131C36.5253 13.0934 36.211 12.7791 36.211 12.3914C36.211 12.0037 36.5253 11.6893 36.9131 11.6893H37.2231V10.2852H32.8588V11.6893H34.105C34.4928 11.6893 34.807 12.0037 34.807 12.3914C34.807 12.7791 34.4928 13.0934 34.105 13.0934H32.4532L31.0872 14.4975ZM33.409 8.88117H36.6729C36.1987 8.02505 35.5614 6.70522 35.041 5.02576C34.5205 6.70522 33.8833 8.02496 33.409 8.88117ZM35.041 28.0702C33.4132 28.0702 31.9678 27.2748 31.0729 26.0521C31.0601 26.0369 31.0478 26.0211 31.0361 26.0047C31.0247 25.9888 31.0143 25.9726 31.0044 25.9562C30.4512 25.1612 30.1266 24.1957 30.1266 23.1559C30.1266 20.4461 32.3312 18.2416 35.0409 18.2416C37.7505 18.2416 39.9551 20.4461 39.9551 23.1559C39.9551 25.8656 37.7506 28.0702 35.041 28.0702ZM32.6466 25.7206C33.2743 26.3068 34.1164 26.6662 35.041 26.6662C36.9765 26.6662 38.5512 25.0915 38.5512 23.156C38.5512 21.4609 37.3433 20.0425 35.743 19.7163V21.7949L35.8341 21.7302C36.1504 21.5053 36.5884 21.5795 36.8131 21.8953C37.0378 22.2112 36.9639 22.6496 36.648 22.8742L35.743 23.5179V24.0919C35.743 24.4796 35.4288 24.794 35.041 24.794C34.7832 24.794 34.5578 24.655 34.4357 24.4479L32.6466 25.7206ZM34.3389 19.7163C32.7386 20.0425 31.5308 21.4608 31.5308 23.156C31.5308 23.6616 31.6382 24.1427 31.8315 24.5774L34.3389 22.7937V19.7163Z" fill="#C5FF55"/>
</g>
<defs>
<clipPath id="clip0_491_2654">
<rect width="48" height="48" fill="white"/>
</clipPath>
</defs>
</svg>
