<svg width="32" height="32" viewBox="0 0 32 32" fill="none" xmlns="http://www.w3.org/2000/svg">
<path d="M28.2973 12.9745C28.915 11.7526 28.6593 10.302 27.6609 9.36507L26.2572 8.04757C25.9436 7.75326 25.76 7.4352 25.6618 7.01632L25.2227 5.14195C24.9104 3.80882 23.7822 2.86207 22.415 2.78601L20.4929 2.67913C20.0634 2.65526 19.7183 2.52963 19.3738 2.27188L17.8327 1.11826C16.7365 0.29782 15.2637 0.29782 14.1675 1.11826L12.6263 2.27182C12.2818 2.52963 11.9367 2.65526 11.5072 2.67913L9.5851 2.78601C8.21797 2.86207 7.08966 3.80882 6.77741 5.14195L6.33835 7.01632C6.24022 7.4352 6.0566 7.75326 5.74297 8.04757L4.33922 9.36507C3.34085 10.3021 3.0851 11.7526 3.70278 12.9745L4.57128 14.6926C4.76535 15.0766 4.8291 15.4383 4.7781 15.8654L4.54966 17.7769C4.38716 19.1364 5.1236 20.4119 6.38222 20.951L7.82972 21.5709L4.86985 27.9283C4.75503 28.1749 4.78653 28.4623 4.95197 28.6783C5.11747 28.8943 5.38685 28.9993 5.65485 28.9524L8.76416 28.4092L10.35 31.1382C10.4811 31.3638 10.7197 31.5003 10.9786 31.5003C10.9898 31.5003 11.001 31.5001 11.0123 31.4996C11.2841 31.4873 11.5243 31.3264 11.6392 31.0797L14.4346 25.0753L15.4047 24.7822C15.8164 24.6578 16.1837 24.6578 16.5955 24.7822L17.5655 25.0754L20.361 31.0798C20.4758 31.3264 20.716 31.4873 20.9877 31.4996C20.9989 31.5001 21.0102 31.5004 21.0213 31.5004C21.2803 31.5004 21.5189 31.3638 21.65 31.1383L23.2359 28.4093L26.3452 28.9525C26.6133 28.9994 26.8827 28.8943 27.0482 28.6783C27.2137 28.4624 27.2451 28.175 27.1303 27.9284L24.1705 21.571L25.6181 20.9511C26.8767 20.4121 27.6132 19.1365 27.4507 17.7769L27.2222 15.8654C27.1712 15.4383 27.2349 15.0766 27.429 14.6927L28.2973 12.9745ZM10.9527 30.1849L9.45378 27.6054C9.3486 27.4244 9.14197 27.3281 8.93541 27.3641L5.9966 27.8776L8.70703 22.0557C8.83953 22.1736 8.95697 22.3106 9.06403 22.4744L10.1177 24.0855C10.792 25.1165 11.9799 25.6273 13.166 25.431L10.9527 30.1849ZM23.0647 27.3641C22.8585 27.3279 22.6515 27.4244 22.5463 27.6054L21.0475 30.1849L18.8341 25.4308C19.0018 25.4586 19.1695 25.4727 19.3358 25.4727C20.3457 25.4727 21.3035 24.9706 21.8823 24.0855L22.936 22.4743C23.0431 22.3106 23.1605 22.1735 23.293 22.0556L26.0035 27.8775L23.0647 27.3641ZM26.5364 14.2415C26.2558 14.7966 26.1553 15.3665 26.2291 15.9841L26.4576 17.8956C26.5687 18.8248 26.0845 19.6633 25.2243 20.0318L23.4546 20.7896C22.8829 21.0344 22.4395 21.4065 22.0992 21.927L21.0455 23.5382C20.5332 24.3214 19.6234 24.6526 18.7276 24.3819L16.8848 23.8249C16.5871 23.735 16.2936 23.69 16.0001 23.69C15.7066 23.69 15.413 23.735 15.1154 23.8249L13.2726 24.3819C12.3768 24.6525 11.467 24.3214 10.9547 23.5382L9.90103 21.9271C9.56072 21.4066 9.11735 21.0346 8.54553 20.7896L6.77591 20.0318C5.9156 19.6633 5.43147 18.8248 5.5426 17.8955L5.77103 15.984C5.84485 15.3665 5.74435 14.7965 5.46378 14.2414L4.59528 12.5233C4.1731 11.6881 4.34122 10.7346 5.0236 10.0941L6.42735 8.77663C6.88078 8.35101 7.17016 7.84976 7.31197 7.24426L7.75103 5.36988C7.96447 4.4587 8.70622 3.83632 9.64066 3.78432L11.5628 3.67745C12.1837 3.64288 12.7276 3.44495 13.2255 3.07226L14.7667 1.91863C15.5159 1.35795 16.4842 1.35788 17.2334 1.91863L18.7746 3.07232C19.2725 3.44501 19.8164 3.64295 20.4373 3.67751L22.3595 3.78438C23.2939 3.83638 24.0356 4.4587 24.249 5.36995L24.6882 7.24432C24.83 7.84988 25.1194 8.35113 25.5728 8.7767L26.9765 10.0942C27.6589 10.7347 27.827 11.6881 27.4048 12.5234L26.5364 14.2415ZM16 4.60395C11.3775 4.60395 7.61678 8.36463 7.61678 12.9871C7.61678 17.6097 11.3775 21.3704 16 21.3704C20.6226 21.3704 24.3832 17.6097 24.3832 12.9871C24.3833 8.36463 20.6226 4.60395 16 4.60395ZM16 20.3704C11.9289 20.3704 8.61678 17.0583 8.61678 12.9871C8.61678 8.91601 11.9289 5.60395 16 5.60395C20.0712 5.60395 23.3832 8.91607 23.3832 12.9871C23.3833 17.0583 20.0712 20.3704 16 20.3704ZM17.8237 13.095C18.4418 12.5745 18.8355 11.7956 18.8355 10.9262C18.8355 9.36276 17.5635 8.09082 16.0001 8.09082C14.4367 8.09082 13.1647 9.36276 13.1647 10.9262C13.1647 11.7956 13.5584 12.5744 14.1765 13.095C12.422 13.7608 11.1212 15.3623 10.9107 17.3303C10.8956 17.4713 10.9411 17.6121 11.0359 17.7177C11.1307 17.8232 11.2659 17.8834 11.4078 17.8834H20.5923C20.7342 17.8834 20.8694 17.8232 20.9642 17.7176C21.059 17.6121 21.1046 17.4713 21.0895 17.3303C20.8789 15.3624 19.5781 13.7608 17.8237 13.095ZM14.1647 10.9262C14.1647 9.9142 14.988 9.09082 16.0001 9.09082C17.0122 9.09082 17.8355 9.91413 17.8355 10.9262C17.8355 11.9378 17.0128 12.7608 16.0013 12.7615C16.0009 12.7615 16.0005 12.7615 16.0001 12.7615C15.9997 12.7615 15.9993 12.7615 15.9988 12.7615C14.9874 12.7609 14.1647 11.9378 14.1647 10.9262ZM12.0022 16.8834C12.4493 15.0699 14.0792 13.7621 15.9988 13.7616C15.9992 13.7616 15.9997 13.7616 16.0001 13.7616C16.0005 13.7616 16.001 13.7616 16.0014 13.7616C17.921 13.7622 19.5508 15.07 19.998 16.8834H12.0022Z" fill="#191919"/>
</svg>
