<svg width="32" height="32" viewBox="0 0 32 32" fill="none" xmlns="http://www.w3.org/2000/svg">
<path d="M20.8524 11.3973C20.7587 11.3042 20.632 11.252 20.4999 11.252C20.3678 11.252 20.2411 11.3042 20.1474 11.3973L11.1474 20.3973C11.0951 20.4422 11.0526 20.4973 11.0226 20.5594C10.9926 20.6214 10.9757 20.689 10.973 20.7578C10.9704 20.8267 10.982 20.8953 11.0071 20.9595C11.0322 21.0237 11.0704 21.0819 11.1191 21.1307C11.1678 21.1794 11.2261 21.2175 11.2903 21.2427C11.3544 21.2678 11.4231 21.2794 11.492 21.2767C11.5608 21.2741 11.6284 21.2572 11.6904 21.2272C11.7524 21.1972 11.8076 21.1547 11.8524 21.1024L20.8524 12.1023C20.9456 12.0087 20.9978 11.8819 20.9978 11.7498C20.9978 11.6178 20.9456 11.491 20.8524 11.3973Z" fill="#191919"/>
<path d="M15.25 13C15.25 12.5055 15.1034 12.0222 14.8287 11.6111C14.554 11.2 14.1635 10.8795 13.7067 10.6903C13.2499 10.5011 12.7472 10.4516 12.2623 10.548C11.7773 10.6445 11.3319 10.8826 10.9822 11.2322C10.6326 11.5819 10.3945 12.0273 10.298 12.5123C10.2016 12.9972 10.2511 13.4999 10.4403 13.9567C10.6295 14.4135 10.95 14.804 11.3611 15.0787C11.7722 15.3534 12.2555 15.5 12.75 15.5C13.413 15.5 14.0489 15.2366 14.5178 14.7678C14.9866 14.2989 15.25 13.663 15.25 13ZM11.25 13C11.25 12.7033 11.338 12.4133 11.5028 12.1666C11.6676 11.92 11.9019 11.7277 12.176 11.6142C12.4501 11.5007 12.7517 11.4709 13.0426 11.5288C13.3336 11.5867 13.6009 11.7296 13.8107 11.9393C14.0204 12.1491 14.1633 12.4164 14.2212 12.7074C14.2791 12.9983 14.2494 13.2999 14.1358 13.574C14.0223 13.8481 13.83 14.0824 13.5834 14.2472C13.3367 14.412 13.0467 14.5 12.75 14.5C12.3522 14.5 11.9706 14.342 11.6893 14.0607C11.408 13.7794 11.25 13.3978 11.25 13Z" fill="#191919"/>
<path d="M19.25 16.5C18.7555 16.5 18.2722 16.6466 17.8611 16.9213C17.45 17.196 17.1295 17.5865 16.9403 18.0433C16.7511 18.5001 16.7016 19.0028 16.798 19.4877C16.8945 19.9727 17.1326 20.4181 17.4822 20.7678C17.8319 21.1174 18.2773 21.3555 18.7623 21.452C19.2472 21.5484 19.7499 21.4989 20.2067 21.3097C20.6635 21.1205 21.054 20.8 21.3287 20.3889C21.6034 19.9778 21.75 19.4945 21.75 19C21.75 18.6717 21.6853 18.3466 21.5597 18.0433C21.4341 17.74 21.2499 17.4644 21.0178 17.2322C20.7856 17.0001 20.51 16.8159 20.2067 16.6903C19.9034 16.5647 19.5783 16.5 19.25 16.5ZM19.25 20.5C18.9533 20.5 18.6633 20.412 18.4166 20.2472C18.17 20.0824 17.9777 19.8481 17.8642 19.574C17.7507 19.2999 17.7209 18.9983 17.7788 18.7074C17.8367 18.4164 17.9796 18.1491 18.1893 17.9393C18.3991 17.7296 18.6664 17.5867 18.9574 17.5288C19.2483 17.4709 19.5499 17.5006 19.824 17.6142C20.0981 17.7277 20.3324 17.92 20.4972 18.1666C20.662 18.4133 20.75 18.7033 20.75 19C20.75 19.3978 20.592 19.7794 20.3107 20.0607C20.0294 20.342 19.6478 20.5 19.25 20.5Z" fill="#191919"/>
<path d="M28.1599 15.9999C28.157 15.627 28.23 15.2574 28.3744 14.9136C28.5188 14.5698 28.7316 14.2589 28.9999 13.9999C29.2101 13.7944 29.3617 13.5366 29.4393 13.2531C29.5168 12.9695 29.5174 12.6704 29.441 12.3866C29.3647 12.1027 29.2141 11.8443 29.0047 11.638C28.7954 11.4316 28.5348 11.2847 28.2499 11.2124C27.8894 11.1226 27.5507 10.9613 27.2537 10.7381C26.9567 10.5149 26.7076 10.2343 26.5211 9.91303C26.3346 9.59175 26.2145 9.23629 26.1679 8.86773C26.1213 8.49916 26.1492 8.125 26.2499 7.76741C26.3239 7.48727 26.3229 7.1926 26.247 6.91297C26.1712 6.63333 26.0232 6.37855 25.8178 6.17417C25.6124 5.9698 25.3569 5.82302 25.0769 5.74856C24.7969 5.67409 24.5022 5.67456 24.2224 5.74991C23.8648 5.85063 23.4907 5.87853 23.1221 5.83195C22.7535 5.78537 22.3981 5.66526 22.0768 5.47874C21.7555 5.29222 21.475 5.04309 21.2518 4.74612C21.0286 4.44915 20.8672 4.11038 20.7774 3.74991C20.7041 3.46696 20.5572 3.20848 20.3515 3.00074C20.1459 2.79301 19.8889 2.64344 19.6068 2.56724C19.3246 2.49104 19.0272 2.49093 18.745 2.56693C18.4628 2.64293 18.2057 2.79232 17.9999 2.99991C17.7408 3.26879 17.4302 3.48266 17.0865 3.62874C16.7429 3.77482 16.3733 3.85011 15.9999 3.85011C15.6265 3.85011 15.2569 3.77482 14.9133 3.62874C14.5697 3.48266 14.259 3.26879 13.9999 2.99991C13.7944 2.78973 13.5366 2.63808 13.2531 2.56055C12.9695 2.48302 12.6704 2.48241 12.3866 2.55879C12.1027 2.63517 11.8443 2.78577 11.638 2.99511C11.4316 3.20446 11.2847 3.46499 11.2124 3.74991C11.1226 4.11038 10.9613 4.44915 10.7381 4.74612C10.5149 5.04309 10.2343 5.29222 9.91303 5.47874C9.59175 5.66526 9.23629 5.78537 8.86773 5.83195C8.49916 5.87853 8.125 5.85063 7.76741 5.74991C7.48727 5.67595 7.1926 5.67694 6.91297 5.75278C6.63333 5.82863 6.37855 5.97667 6.17417 6.18206C5.9698 6.38744 5.82302 6.64295 5.74856 6.92296C5.67409 7.20297 5.67456 7.49764 5.74991 7.77741C5.85063 8.135 5.87853 8.50916 5.83195 8.87773C5.78537 9.24629 5.66526 9.60175 5.47874 9.92303C5.29222 10.2443 5.04309 10.5249 4.74612 10.7481C4.44915 10.9713 4.11038 11.1326 3.74991 11.2224C3.46696 11.2957 3.20848 11.4427 3.00074 11.6483C2.79301 11.8539 2.64344 12.1109 2.56724 12.3931C2.49104 12.6753 2.49093 12.9726 2.56693 13.2548C2.64293 13.5371 2.79232 13.7941 2.99991 13.9999C3.26879 14.259 3.48266 14.5697 3.62874 14.9133C3.77482 15.2569 3.85011 15.6265 3.85011 15.9999C3.85011 16.3733 3.77482 16.7429 3.62874 17.0865C3.48266 17.4302 3.26879 17.7408 2.99991 17.9999C2.78973 18.2054 2.63808 18.4632 2.56055 18.7468C2.48302 19.0303 2.48241 19.3294 2.55879 19.6132C2.63517 19.8971 2.78577 20.1555 2.99511 20.3619C3.20446 20.5682 3.46499 20.7151 3.74991 20.7874C4.11038 20.8772 4.44915 21.0386 4.74612 21.2618C5.04309 21.485 5.29222 21.7655 5.47874 22.0868C5.66526 22.4081 5.78537 22.7635 5.83195 23.1321C5.87853 23.5007 5.85063 23.8748 5.74991 24.2324C5.66987 24.5153 5.66674 24.8144 5.74084 25.0989C5.81495 25.3834 5.96361 25.643 6.17149 25.8508C6.37937 26.0587 6.63894 26.2074 6.92343 26.2815C7.20792 26.3556 7.50703 26.3525 7.78991 26.2724C8.1475 26.1717 8.52166 26.1438 8.89023 26.1904C9.25879 26.237 9.61425 26.3571 9.93553 26.5436C10.2568 26.7301 10.5374 26.9792 10.7606 27.2762C10.9838 27.5732 11.1451 27.9119 11.2349 28.2724C11.3123 28.5511 11.4614 28.8047 11.6673 29.0078C11.8732 29.211 12.1288 29.3566 12.4085 29.4302C12.6882 29.5038 12.9824 29.5028 13.2616 29.4273C13.5408 29.3518 13.7954 29.2045 13.9999 28.9999C14.259 28.731 14.5697 28.5172 14.9133 28.3711C15.2569 28.225 15.6265 28.1497 15.9999 28.1497C16.3733 28.1497 16.7429 28.225 17.0865 28.3711C17.4302 28.5172 17.7408 28.731 17.9999 28.9999C18.2054 29.2101 18.4632 29.3617 18.7468 29.4393C19.0303 29.5168 19.3294 29.5174 19.6132 29.441C19.8971 29.3647 20.1555 29.2141 20.3619 29.0047C20.5682 28.7954 20.7151 28.5348 20.7874 28.2499C20.8772 27.8894 21.0386 27.5507 21.2618 27.2537C21.485 26.9567 21.7655 26.7076 22.0868 26.5211C22.4081 26.3346 22.7635 26.2145 23.1321 26.1679C23.5007 26.1213 23.8748 26.1492 24.2324 26.2499C24.5153 26.33 24.8144 26.3331 25.0989 26.259C25.3834 26.1849 25.643 26.0362 25.8508 25.8283C26.0587 25.6205 26.2074 25.3609 26.2815 25.0764C26.3556 24.7919 26.3525 24.4928 26.2724 24.2099C26.1717 23.8523 26.1438 23.4782 26.1904 23.1096C26.237 22.741 26.3571 22.3856 26.5436 22.0643C26.7301 21.743 26.9792 21.4625 27.2762 21.2393C27.5732 21.0161 27.9119 20.8547 28.2724 20.7649C28.5511 20.6875 28.8047 20.5385 29.0078 20.3326C29.211 20.1266 29.3566 19.8711 29.4302 19.5913C29.5038 19.3116 29.5028 19.0175 29.4273 18.7382C29.3518 18.459 29.2045 18.2044 28.9999 17.9999C28.7316 17.7409 28.5188 17.4301 28.3744 17.0862C28.23 16.7424 28.157 16.3728 28.1599 15.9999ZM28.4774 19.3424C28.4475 19.4559 28.3872 19.5592 28.3031 19.6411C28.219 19.723 28.1142 19.7805 27.9999 19.8074C27.5109 19.9322 27.0519 20.1536 26.6499 20.4587C26.2479 20.7638 25.9111 21.1464 25.6595 21.5838C25.4078 22.0212 25.2463 22.5046 25.1845 23.0054C25.1228 23.5063 25.162 24.0145 25.2999 24.4999C25.3306 24.6108 25.3314 24.7278 25.3021 24.8391C25.2728 24.9503 25.2145 25.0518 25.1331 25.1331C25.0518 25.2145 24.9503 25.2728 24.8391 25.3021C24.7278 25.3314 24.6108 25.3306 24.4999 25.2999C24.0145 25.162 23.5063 25.1228 23.0054 25.1845C22.5046 25.2463 22.0212 25.4078 21.5838 25.6595C21.1464 25.9111 20.7638 26.2479 20.4587 26.6499C20.1536 27.0519 19.9322 27.5109 19.8074 27.9999C19.7793 28.1128 19.7212 28.216 19.6394 28.2987C19.5576 28.3814 19.455 28.4406 19.3424 28.4699C19.2302 28.4999 19.112 28.4995 19 28.4687C18.8879 28.438 18.7861 28.378 18.7049 28.2949C18.3533 27.9333 17.9328 27.6458 17.4682 27.4495C17.0036 27.2531 16.5043 27.152 15.9999 27.152C15.4955 27.152 14.9963 27.2531 14.5316 27.4495C14.067 27.6458 13.6465 27.9333 13.2949 28.2949C13.2137 28.3779 13.1118 28.4378 12.9998 28.4685C12.8878 28.4992 12.7697 28.4996 12.6575 28.4695C12.5453 28.4395 12.4431 28.3802 12.3614 28.2977C12.2796 28.2152 12.2213 28.1124 12.1924 27.9999C12.0677 27.5109 11.8462 27.0519 11.5411 26.6499C11.236 26.2479 10.8535 25.9111 10.4161 25.6595C9.97865 25.4078 9.49524 25.2463 8.99438 25.1845C8.49352 25.1228 7.98536 25.162 7.49991 25.2999C7.38905 25.3306 7.27201 25.3314 7.16076 25.3021C7.04951 25.2728 6.94803 25.2145 6.86668 25.1331C6.78533 25.0518 6.72703 24.9503 6.69773 24.8391C6.66843 24.7278 6.66918 24.6108 6.69991 24.4999C6.83781 24.0145 6.87704 23.5063 6.81529 23.0054C6.75354 22.5046 6.59205 22.0212 6.34037 21.5838C6.08869 21.1464 5.75191 20.7638 5.34993 20.4587C4.94795 20.1536 4.48891 19.9322 3.99991 19.8074C3.88743 19.7785 3.78467 19.7202 3.70214 19.6385C3.61962 19.5567 3.56031 19.4545 3.53029 19.3424C3.50027 19.2302 3.50062 19.112 3.53131 19C3.56199 18.888 3.62191 18.7861 3.70491 18.7049C4.06657 18.3533 4.35406 17.9328 4.55037 17.4682C4.74668 17.0036 4.84783 16.5043 4.84783 15.9999C4.84783 15.4955 4.74668 14.9963 4.55037 14.5316C4.35406 14.067 4.06657 13.6465 3.70491 13.2949C3.62191 13.2137 3.56199 13.1118 3.53131 12.9998C3.50062 12.8878 3.50027 12.7697 3.53029 12.6575C3.56031 12.5453 3.61962 12.4431 3.70214 12.3614C3.78467 12.2796 3.88743 12.2213 3.99991 12.1924C4.48891 12.0677 4.94795 11.8462 5.34993 11.5411C5.75191 11.236 6.08869 10.8535 6.34037 10.4161C6.59205 9.97865 6.75354 9.49524 6.81529 8.99438C6.87704 8.49352 6.83781 7.98536 6.69991 7.49991C6.66918 7.38905 6.66843 7.27201 6.69773 7.16076C6.72703 7.04951 6.78533 6.94803 6.86668 6.86668C6.94803 6.78533 7.04951 6.72703 7.16076 6.69773C7.27201 6.66843 7.38905 6.66918 7.49991 6.69991C7.98536 6.83781 8.49352 6.87704 8.99438 6.81529C9.49524 6.75354 9.97865 6.59205 10.4161 6.34037C10.8535 6.08869 11.236 5.75191 11.5411 5.34993C11.8462 4.94795 12.0677 4.48891 12.1924 3.99991C12.2213 3.88743 12.2796 3.78467 12.3614 3.70214C12.4431 3.61962 12.5453 3.56031 12.6575 3.53029C12.7697 3.50027 12.8878 3.50062 12.9998 3.53131C13.1118 3.56199 13.2137 3.62191 13.2949 3.70491C13.6465 4.06657 14.067 4.35406 14.5316 4.55037C14.9963 4.74668 15.4955 4.84783 15.9999 4.84783C16.5043 4.84783 17.0036 4.74668 17.4682 4.55037C17.9328 4.35406 18.3533 4.06657 18.7049 3.70491C18.7861 3.62191 18.888 3.56199 19 3.53131C19.112 3.50062 19.2302 3.50027 19.3424 3.53029C19.4545 3.56031 19.5567 3.61962 19.6385 3.70214C19.7202 3.78467 19.7785 3.88743 19.8074 3.99991C19.9322 4.48891 20.1536 4.94795 20.4587 5.34993C20.7638 5.75191 21.1464 6.08869 21.5838 6.34037C22.0212 6.59205 22.5046 6.75354 23.0054 6.81529C23.5063 6.87704 24.0145 6.83781 24.4999 6.69991C24.6108 6.66918 24.7278 6.66843 24.8391 6.69773C24.9503 6.72703 25.0518 6.78533 25.1331 6.86668C25.2145 6.94803 25.2728 7.04951 25.3021 7.16076C25.3314 7.27201 25.3306 7.38905 25.2999 7.49991C25.162 7.98536 25.1228 8.49352 25.1845 8.99438C25.2463 9.49524 25.4078 9.97865 25.6595 10.4161C25.9111 10.8535 26.2479 11.236 26.6499 11.5411C27.0519 11.8462 27.5109 12.0677 27.9999 12.1924C28.1124 12.2213 28.2152 12.2796 28.2977 12.3614C28.3802 12.4431 28.4395 12.5453 28.4695 12.6575C28.4996 12.7697 28.4992 12.8878 28.4685 12.9998C28.4378 13.1118 28.3779 13.2137 28.2949 13.2949C27.9333 13.6465 27.6458 14.067 27.4495 14.5316C27.2531 14.9963 27.152 15.4955 27.152 15.9999C27.152 16.5043 27.2531 17.0036 27.4495 17.4682C27.6458 17.9328 27.9333 18.3533 28.2949 18.7049C28.3797 18.785 28.4415 18.8865 28.4736 18.9986C28.5057 19.1108 28.507 19.2296 28.4774 19.3424Z" fill="#191919"/>
</svg>
