<svg width="32" height="32" viewBox="0 0 32 32" fill="none" xmlns="http://www.w3.org/2000/svg">
<g clip-path="url(#clip0_202_2761)">
<path d="M16.0285 0C15.4055 0 14.7805 0.0529782 14.1711 0.157714C13.9162 0.201415 13.7451 0.443601 13.7888 0.698482C13.8325 0.953608 14.0749 1.12475 14.3295 1.08105C14.8867 0.985346 15.4584 0.936762 16.0285 0.936762C21.5243 0.936762 25.9955 5.40793 25.9955 10.9037C25.9955 13.2079 25.1471 15.4828 23.6066 17.309C23.1337 17.8695 22.5665 18.3539 22.018 18.8222C20.8551 19.8156 19.6552 20.84 19.2978 22.6168H19.1855C19.2013 22.4469 19.2314 22.2233 19.287 21.9413C19.4228 21.2518 19.7433 20.066 20.498 18.3309C20.8136 17.6051 20.5334 16.7609 19.8459 16.3666C19.4474 16.1383 18.9711 16.0978 18.5397 16.2558C18.1088 16.4135 17.7719 16.7511 17.6154 17.1823L17.5795 17.2816C17.5658 17.319 17.5522 17.3568 17.5385 17.3944C16.329 17.058 15.1266 17.2189 14.5026 17.3495C14.4943 17.3268 14.486 17.3041 14.478 17.2816L14.4418 17.1823C14.2853 16.7514 13.9484 16.4135 13.5175 16.2558C13.0861 16.0978 12.6101 16.1383 12.2114 16.3666C11.5239 16.7609 11.2436 17.6051 11.5593 18.3309C11.5915 18.4052 11.623 18.4784 11.6538 18.5507C11.7551 18.7887 12.03 18.8998 12.268 18.7985C12.5061 18.6974 12.6171 18.4223 12.5158 18.1842C12.4841 18.1095 12.4516 18.0338 12.4182 17.9572C12.2934 17.6701 12.4047 17.3356 12.6772 17.1793C12.8354 17.0888 13.0241 17.0727 13.1955 17.1354C13.3659 17.1979 13.4992 17.3314 13.5612 17.5018L13.5974 17.6015C13.6516 17.7504 13.7072 17.9037 13.7634 18.0607L14.3281 19.7821C14.5663 20.6083 14.7812 21.5419 14.9228 22.6168H13.8124C13.7768 22.1576 13.6552 21.3863 13.2883 20.2384C13.2097 19.9921 12.946 19.8561 12.6997 19.9349C12.4531 20.0138 12.3173 20.2772 12.396 20.5238C12.7219 21.5431 12.8342 22.2245 12.8713 22.6168H12.7573C12.3955 20.891 11.1394 19.7628 9.92185 18.6696C9.34202 18.1491 8.79466 17.6574 8.34422 17.1083C6.85106 15.2878 6.06176 13.1423 6.06176 10.9037C6.06176 8.87177 6.66918 6.91744 7.81834 5.25168C8.94114 3.62376 10.5014 2.37669 12.3303 1.6455C12.5705 1.54955 12.6872 1.27685 12.5913 1.03661C12.4951 0.796382 12.2226 0.679439 11.9824 0.77563C9.98166 1.57567 8.27513 2.93944 7.04711 4.7197C5.78979 6.54269 5.125 8.6811 5.125 10.9037C5.125 13.3615 5.98779 15.7123 7.6201 17.7023C8.1157 18.3068 8.7158 18.8456 9.29587 19.3666C10.4489 20.402 11.542 21.3841 11.8418 22.8182C11.4792 23.048 11.2373 23.4518 11.2373 23.912V24.8727C11.2373 25.1771 11.3435 25.4566 11.52 25.6781C11.3435 25.8995 11.2373 26.179 11.2373 26.4835V27.4442C11.2373 28.0306 11.6294 28.5267 12.1648 28.6856V28.9412C12.1648 30.628 13.5371 32.0001 15.2236 32.0001H16.8339C18.5204 32.0001 19.8927 30.628 19.8927 28.9412V28.6856C20.4281 28.5267 20.8202 28.0306 20.8202 27.4442V26.4835C20.8202 26.179 20.714 25.8995 20.5375 25.6781C20.714 25.4566 20.8202 25.1771 20.8202 24.8727V23.912C20.8202 23.451 20.5775 23.0465 20.2135 22.817C20.5028 21.349 21.4923 20.5033 22.6266 19.5346C23.2038 19.0419 23.8004 18.5321 24.3229 17.913C26.0057 15.9181 26.9325 13.4286 26.9325 10.9037C26.9322 4.89133 22.0409 0 16.0285 0ZM17.7287 19.7833L18.2717 18.1288C18.2746 18.1198 18.2768 18.1105 18.2792 18.1012C18.3405 17.9298 18.401 17.7633 18.4599 17.6015L18.496 17.5018C18.5578 17.3314 18.6911 17.1979 18.8617 17.1354C19.0329 17.0727 19.2218 17.0888 19.38 17.1793C19.6525 17.3356 19.7638 17.6701 19.6388 17.9572C18.986 19.4586 18.5519 20.7706 18.3493 21.857C18.2909 22.1693 18.2604 22.4213 18.2453 22.6168H17.1344C17.2758 21.5424 17.4906 20.6095 17.7287 19.7833ZM14.8205 18.2416C15.3644 18.1395 16.299 18.0375 17.2238 18.2792C17.1244 18.5678 17.0246 18.8707 16.9274 19.1896H15.1298C15.0283 18.8568 14.924 18.5416 14.8205 18.2416ZM16.6635 20.1263C16.4731 20.868 16.3061 21.6915 16.1901 22.6166H15.8669C15.7512 21.6915 15.5842 20.868 15.3935 20.1263H16.6635ZM18.9557 28.9412C18.9557 30.1111 18.0038 31.063 16.8339 31.063H15.2233C14.0534 31.063 13.1015 30.1111 13.1015 28.9412V28.7393H18.9557V28.9412ZM19.8832 27.4439C19.8832 27.6417 19.7226 27.8026 19.5248 27.8026H12.5322C12.3347 27.8026 12.1738 27.6417 12.1738 27.4439V26.4835C12.1738 26.3394 12.2592 26.2154 12.382 26.1583C12.4314 26.1642 12.4814 26.1678 12.5322 26.1678H19.5248C19.5756 26.1678 19.6256 26.1642 19.675 26.1583C19.7978 26.2152 19.8832 26.3394 19.8832 26.4835V27.4439ZM19.8832 24.8727C19.8832 25.0167 19.7978 25.1407 19.675 25.1976C19.6256 25.192 19.5758 25.1883 19.5248 25.1883H12.5322C12.4814 25.1883 12.4314 25.192 12.382 25.1976C12.2595 25.1407 12.1738 25.0167 12.1738 24.8727V23.912C12.1738 23.7142 12.3347 23.5536 12.5324 23.5536H19.5248C19.7226 23.5536 19.8835 23.7142 19.8835 23.912V24.8727H19.8832Z" fill="#191919"/>
</g>
<defs>
<clipPath id="clip0_202_2761">
<rect width="32" height="32" fill="white"/>
</clipPath>
</defs>
</svg>
