<svg width="24" height="24" viewBox="0 0 24 24" fill="none" xmlns="http://www.w3.org/2000/svg">
<g clip-path="url(#clip0_24_1339)">
<path d="M21.0274 4.10281C21.0046 4.06769 20.976 4.03663 20.943 4.01093C19.8193 2.74858 18.4412 1.7383 16.8993 1.04651C15.3573 0.354719 13.6864 -0.00292969 11.9964 -0.00292969C10.3064 -0.00292969 8.6355 0.354719 7.09355 1.04651C5.55161 1.7383 4.17352 2.74858 3.04985 4.01093C3.01844 4.03581 2.99122 4.06556 2.96923 4.09906V4.10843C1.45227 5.84377 0.467168 7.97926 0.131697 10.2596C-0.203774 12.54 0.124579 14.8687 1.0775 16.9674C2.03042 19.0661 3.56759 20.8459 5.50524 22.0942C7.44288 23.3424 9.69902 24.0062 12.0039 24.0062C14.3088 24.0062 16.5649 23.3424 18.5026 22.0942C20.4402 20.8459 21.9774 19.0661 22.9303 16.9674C23.8832 14.8687 24.2116 12.54 23.8761 10.2596C23.5407 7.97926 22.5556 5.84377 21.0386 4.10843L21.0274 4.10281ZM20.6524 19.1797C19.8004 18.6824 18.8962 18.2806 17.9561 17.9816C18.5391 16.169 18.8469 14.2792 18.8692 12.3753H23.2398C23.1598 14.869 22.2492 17.2645 20.6524 19.1816V19.1797ZM0.758601 12.3753H5.12923C5.15139 14.2798 5.4592 16.1702 6.04235 17.9834C5.10228 18.2825 4.19807 18.6843 3.3461 19.1816C1.7493 17.2645 0.838613 14.869 0.758601 12.3753ZM3.37423 4.79093C4.22199 5.2837 5.12108 5.68232 6.05548 5.97968C5.46382 7.80409 5.15153 9.70749 5.12923 11.6253H0.758601C0.840318 9.11851 1.76142 6.71176 3.37423 4.79093ZM12.3742 6.87031C14.0213 6.84697 15.659 6.61769 17.2492 6.18781C17.8105 7.94659 18.1063 9.77926 18.1267 11.6253H12.3742V6.87031ZM12.3742 6.12031V0.772808C14.2755 0.984683 15.9367 2.79593 16.9867 5.48093C15.4812 5.88214 13.9321 6.09687 12.3742 6.12031ZM11.6242 6.12031C10.0663 6.09689 8.51724 5.88216 7.01173 5.48093C8.06173 2.79593 9.72298 0.984683 11.6242 0.772808V6.12031ZM11.6242 6.87031V11.6253H5.87923C5.89727 9.77963 6.1905 7.94697 6.74923 6.18781C8.33941 6.61767 9.97713 6.84695 11.6242 6.87031ZM5.87923 12.3753H11.6242V17.0891C9.97696 17.1136 8.33924 17.3441 6.74923 17.7753C6.1946 16.028 5.90143 14.2084 5.87923 12.3753ZM11.6242 17.8391V23.2278C9.71548 23.0141 8.03923 21.1878 6.99673 18.4822C8.50692 18.0784 10.0612 17.8624 11.6242 17.8391ZM12.3742 17.8391C13.9373 17.8624 15.4915 18.0784 17.0017 18.4822C15.9592 21.1878 14.283 23.0141 12.3742 23.2278V17.8391ZM12.3742 17.0891V12.3753H18.1192C18.0968 14.2077 17.8037 16.0268 17.2492 17.7734C15.6591 17.3429 14.0214 17.113 12.3742 17.0891ZM18.8692 11.6253C18.8469 9.70749 18.5346 7.80409 17.943 5.97968C18.8774 5.68232 19.7765 5.2837 20.6242 4.79093C22.237 6.71176 23.1581 9.11851 23.2398 11.6253H18.8692ZM20.1161 4.22281C19.3455 4.65508 18.5325 5.00693 17.6898 5.27281C16.998 3.49531 16.038 2.06281 14.913 1.13468C16.8968 1.6696 18.6963 2.7376 20.1161 4.22281ZM9.08548 1.13468C7.96048 2.05718 7.00235 3.49343 6.31048 5.27281C5.46786 5.00693 4.65483 4.65508 3.88423 4.22281C5.30353 2.73789 7.10231 1.66991 9.08548 1.13468ZM3.8561 19.7516C4.62967 19.3144 5.44655 18.9587 6.2936 18.6903C6.98735 20.4866 7.9511 21.9378 9.0836 22.8659C7.0881 22.3277 5.27944 21.2502 3.8561 19.7516ZM14.9186 22.8659C16.0436 21.9284 17.0149 20.4866 17.7086 18.6903C18.5556 18.9587 19.3725 19.3144 20.1461 19.7516C18.7212 21.251 16.9105 22.3287 14.913 22.8659H14.9186Z" fill="#191919"/>
</g>
<defs>
<clipPath id="clip0_24_1339">
<rect width="24" height="24" fill="white"/>
</clipPath>
</defs>
</svg>
