<svg width="32" height="32" viewBox="0 0 32 32" fill="none" xmlns="http://www.w3.org/2000/svg">
<path d="M29.4043 20.2068L16.4043 2.20678C16.3579 2.14276 16.297 2.09063 16.2266 2.05469C16.1562 2.01874 16.0783 2 15.9993 2C15.9202 2 15.8423 2.01874 15.7719 2.05469C15.7015 2.09063 15.6406 2.14276 15.5943 2.20678L2.59426 20.2068C2.5555 20.2606 2.52784 20.3216 2.51288 20.3862C2.49792 20.4508 2.49597 20.5178 2.50714 20.5832C2.51831 20.6485 2.54237 20.7111 2.57793 20.767C2.61349 20.823 2.65983 20.8714 2.71426 20.9093L15.7143 29.9093C15.798 29.9674 15.8974 29.9985 15.9993 29.9985C16.1011 29.9985 16.2006 29.9674 16.2843 29.9093L29.2843 20.9093C29.3387 20.8714 29.385 20.823 29.4206 20.767C29.4562 20.7111 29.4802 20.6485 29.4914 20.5832C29.5026 20.5178 29.5006 20.4508 29.4856 20.3862C29.4707 20.3216 29.443 20.2606 29.4043 20.2068ZM15.9993 20.8593L11.5843 17.3268L15.9993 4.07929L20.4143 17.3293L15.9993 20.8593ZM10.5993 17.1093L4.29676 19.5568L14.4993 5.44179L10.5993 17.1093ZM10.9118 18.0618L15.4993 21.7493V28.5543L4.14926 20.6868L10.9118 18.0618ZM16.4993 21.7493L21.0893 18.0668L27.9293 20.6318L16.4993 28.5443V21.7493ZM21.3993 17.1243L17.4993 5.44179L27.6168 19.4418L21.3993 17.1243Z" fill="#191919"/>
</svg>
