<svg width="32" height="32" viewBox="0 0 32 32" fill="none" xmlns="http://www.w3.org/2000/svg">
<g clip-path="url(#clip0_198_2529)">
<path d="M31.8625 5.44053L26.5625 0.1374C26.519 0.0938406 26.4673 0.0592859 26.4104 0.0357102C26.3535 0.0121345 26.2925 0 26.2309 0C26.1694 0 26.1084 0.0121345 26.0515 0.0357102C25.9946 0.0592859 25.9429 0.0938406 25.8994 0.1374L24.5706 1.46302C24.3776 1.65689 24.2641 1.91599 24.2526 2.18932C24.241 2.46266 24.3322 2.73042 24.5081 2.9399L20.8675 4.3399C20.8051 4.36404 20.7485 4.40122 20.7017 4.44897C20.6548 4.49672 20.6186 4.55393 20.5956 4.61678L19.1581 8.5624H1.71875C1.26311 8.56306 0.826326 8.74436 0.504141 9.06654C0.181956 9.38873 0.000661304 9.82551 0 10.2811L0 30.2812C0.000661304 30.7368 0.181956 31.1736 0.504141 31.4958C0.826326 31.8179 1.26311 31.9992 1.71875 31.9999H21.7188C22.1744 31.9992 22.6112 31.8179 22.9334 31.4958C23.2555 31.1736 23.4368 30.7368 23.4375 30.2812V12.8436L27.3831 11.403C27.446 11.38 27.5032 11.3439 27.5509 11.297C27.5987 11.2501 27.6359 11.1936 27.66 11.1312L29.0625 7.4924C29.2718 7.66877 29.5396 7.7602 29.8131 7.74863C30.0866 7.73705 30.3457 7.62332 30.5394 7.4299L31.8625 6.10365C31.9061 6.06012 31.9406 6.00843 31.9642 5.95154C31.9878 5.89465 31.9999 5.83367 31.9999 5.77209C31.9999 5.71051 31.9878 5.64953 31.9642 5.59264C31.9406 5.53574 31.9061 5.48406 31.8625 5.44053ZM18.21 11.9999C18.2643 12.1314 18.3439 12.251 18.4444 12.3518L19.6488 13.5555C19.7493 13.6561 19.8687 13.7359 20 13.7905V28.5624H3.4375V11.9999H18.21ZM22.5 30.2812C22.4997 30.4882 22.4173 30.6868 22.2708 30.8332C22.1244 30.9797 21.9258 31.0621 21.7188 31.0624H1.71875C1.51165 31.0621 1.31313 30.9797 1.16669 30.8332C1.02025 30.6868 0.937831 30.4882 0.9375 30.2812V10.2811C0.937831 10.0741 1.02025 9.87553 1.16669 9.72909C1.31313 9.58265 1.51165 9.50023 1.71875 9.4999H18.8125L18.2425 11.0624H2.96875C2.84443 11.0624 2.7252 11.1118 2.63729 11.1997C2.54939 11.2876 2.5 11.4068 2.5 11.5311V29.0312C2.5 29.1555 2.54939 29.2747 2.63729 29.3626C2.7252 29.4505 2.84443 29.4999 2.96875 29.4999H20.4688C20.5931 29.4999 20.7123 29.4505 20.8002 29.3626C20.8881 29.2747 20.9375 29.1555 20.9375 29.0312V13.758L22.5 13.1874V30.2812ZM26.8612 10.5974L20.4756 12.9286C20.4476 12.939 20.4173 12.9411 20.3881 12.9347C20.359 12.9282 20.3323 12.9136 20.3113 12.8924L20.0406 12.6249L23.2906 9.3749C23.6529 9.57708 24.076 9.64143 24.4819 9.55607C24.8879 9.47072 25.2493 9.24142 25.4994 8.91048C25.7496 8.57955 25.8716 8.16931 25.843 7.75546C25.8143 7.34162 25.637 6.95209 25.3436 6.65876C25.0503 6.36543 24.6608 6.18808 24.2469 6.15945C23.8331 6.13081 23.4229 6.25282 23.0919 6.50296C22.761 6.7531 22.5317 7.11449 22.4463 7.52045C22.361 7.92641 22.4253 8.34954 22.6275 8.71177L19.3775 11.9618L19.1075 11.6874C19.0863 11.6664 19.0717 11.6397 19.0652 11.6105C19.0588 11.5814 19.0609 11.551 19.0713 11.523L21.4025 5.1374L25.2281 3.66615L28.3325 6.77052L26.8612 10.5974ZM23.5763 7.31865C23.6855 7.20941 23.8247 7.13502 23.9763 7.1049C24.1278 7.07477 24.2849 7.09025 24.4276 7.14939C24.5704 7.20853 24.6924 7.30866 24.7782 7.43713C24.864 7.5656 24.9099 7.71664 24.9099 7.87115C24.9099 8.02566 24.864 8.1767 24.7782 8.30517C24.6924 8.43364 24.5704 8.53377 24.4276 8.59291C24.2849 8.65205 24.1278 8.66753 23.9763 8.6374C23.8247 8.60728 23.6855 8.53289 23.5763 8.42365C23.5033 8.35131 23.4454 8.26525 23.4059 8.17042C23.3664 8.07559 23.3461 7.97388 23.3461 7.87115C23.3461 7.76842 23.3664 7.66671 23.4059 7.57188C23.4454 7.47705 23.5033 7.39099 23.5763 7.31865ZM29.875 6.76615C29.8605 6.78068 29.8433 6.79221 29.8244 6.80008C29.8055 6.80795 29.7852 6.812 29.7647 6.812C29.7442 6.812 29.7239 6.80795 29.705 6.80008C29.686 6.79221 29.6688 6.78068 29.6544 6.76615L25.2337 2.34677C25.2192 2.33231 25.2077 2.31512 25.1998 2.29619C25.1919 2.27726 25.1879 2.25696 25.1879 2.23646C25.1879 2.21596 25.1919 2.19566 25.1998 2.17673C25.2077 2.1578 25.2192 2.14061 25.2337 2.12615L26.2281 1.13178L30.8681 5.77177L29.875 6.76615Z" fill="#191919"/>
<path d="M7.51658 21.6569C7.54423 21.7555 7.60333 21.8424 7.6849 21.9043C7.76647 21.9662 7.86604 21.9998 7.96846 22H15.4685C15.5709 21.9998 15.6704 21.9662 15.752 21.9043C15.8336 21.8424 15.8927 21.7555 15.9203 21.6569L17.1703 17.1569C17.1942 17.0711 17.1931 16.9803 17.1672 16.8951C17.1413 16.8099 17.0917 16.7338 17.0242 16.6758C16.9567 16.6177 16.874 16.5801 16.7859 16.5674C16.6977 16.5546 16.6078 16.5672 16.5266 16.6037L13.7722 17.8381L12.1247 15.0431C12.0833 14.9729 12.0242 14.9147 11.9534 14.8742C11.8826 14.8338 11.8025 14.8125 11.721 14.8125C11.6394 14.8125 11.5593 14.8338 11.4885 14.8742C11.4177 14.9147 11.3586 14.9729 11.3172 15.0431L9.66721 17.8381L6.91283 16.6037C6.83161 16.5672 6.74168 16.5546 6.65355 16.5674C6.56543 16.5801 6.48276 16.6177 6.41522 16.6758C6.34768 16.7338 6.29807 16.8099 6.27219 16.8951C6.24631 16.9803 6.24523 17.0711 6.26908 17.1569L7.51658 21.6569ZM9.66346 18.865C9.76843 18.9124 9.88718 18.9194 9.99704 18.8848C10.1069 18.8503 10.2002 18.7764 10.2591 18.6775L11.7185 16.205L13.1778 18.6775C13.2368 18.7763 13.3301 18.8501 13.4399 18.8846C13.5498 18.9192 13.6685 18.9122 13.7735 18.865L15.9997 17.865L15.1122 21.0625H8.32471L7.43721 17.8669L9.66346 18.865Z" fill="#191919"/>
<path d="M15.4688 22.9375H7.96875C7.84443 22.9375 7.7252 22.9869 7.63729 23.0748C7.54939 23.1627 7.5 23.2819 7.5 23.4062V24.6562C7.50033 24.9462 7.61567 25.2242 7.82072 25.4293C8.02576 25.6343 8.30377 25.7497 8.59375 25.75H14.8438C15.1337 25.7497 15.4117 25.6343 15.6168 25.4293C15.8218 25.2242 15.9372 24.9462 15.9375 24.6562V23.4062C15.9375 23.2819 15.8881 23.1627 15.8002 23.0748C15.7123 22.9869 15.5931 22.9375 15.4688 22.9375ZM15 24.6562C15 24.6977 14.9835 24.7374 14.9542 24.7667C14.9249 24.796 14.8852 24.8125 14.8438 24.8125H8.59375C8.55231 24.8125 8.51257 24.796 8.48326 24.7667C8.45396 24.7374 8.4375 24.6977 8.4375 24.6562V23.875H15V24.6562Z" fill="#191919"/>
</g>
<defs>
<clipPath id="clip0_198_2529">
<rect width="32" height="32" fill="white"/>
</clipPath>
</defs>
</svg>
