<svg width="32" height="32" viewBox="0 0 32 32" fill="none" xmlns="http://www.w3.org/2000/svg">
<g clip-path="url(#clip0_198_2567)">
<path d="M6 1.5C6 1.2235 5.7765 1 5.5 1C5.2235 1 5 1.2235 5 1.5C5 4.381 3.2005 4.496 3 4.5H2.997C2.9965 4.4995 2.995 4.4995 2.9935 4.5C2.993 4.5 2.9925 4.5 2.9925 4.5C2.992 4.5 2.9915 4.5 2.991 4.5C2.719 4.505 2.5 4.727 2.5 5C2.5 5.275 2.7215 5.498 2.996 5.5C3.204 5.504 5 5.622 5 8.5C5 8.7765 5.2235 9 5.5 9C5.7765 9 6 8.7765 6 8.5C6 5.622 7.796 5.504 8.004 5.5H8.0065H8.0075H8.008H8.009C8.281 5.495 8.5 5.273 8.5 5C8.5 4.725 8.2785 4.502 8.004 4.5C7.796 4.496 6 4.378 6 1.5ZM5.5 6.1375C5.219 5.6025 4.8515 5.2425 4.486 5C4.8515 4.7575 5.219 4.3975 5.5 3.8625C5.781 4.3975 6.1485 4.7575 6.514 5C6.1485 5.2425 5.781 5.6025 5.5 6.1375Z" fill="#191919"/>
<path d="M27.004 12.5C26.796 12.496 25 12.378 25 9.5C25 9.2235 24.7765 9 24.5 9C24.2235 9 24 9.2235 24 9.5C24 12.381 22.2005 12.496 22 12.5H21.997C21.997 12.5 21.9945 12.5 21.9935 12.5C21.993 12.5 21.9925 12.5 21.9925 12.5C21.992 12.5 21.9915 12.5 21.991 12.5C21.719 12.505 21.5 12.727 21.5 13C21.5 13.275 21.7215 13.498 21.996 13.5C22.204 13.504 24 13.622 24 16.5C24 16.7765 24.2235 17 24.5 17C24.7765 17 25 16.7765 25 16.5C25 13.622 26.796 13.504 27.004 13.5H27.0065H27.0075H27.009C27.281 13.495 27.5 13.273 27.5 13C27.5 12.725 27.2785 12.502 27.004 12.5ZM24.5 14.1375C24.219 13.6025 23.8515 13.2425 23.486 13C23.8515 12.7575 24.219 12.3975 24.5 11.8625C24.781 12.3975 25.1485 12.7575 25.514 13C25.1485 13.2425 24.781 13.6025 24.5 14.1375Z" fill="#191919"/>
<path d="M15.6384 10.1586C15.8969 10.1586 16.1539 10.0601 16.3469 9.8671L19.7999 6.4141C20.1899 6.0246 20.1899 5.3896 19.7999 5.0001L19.0929 4.2931C18.7034 3.9036 18.0684 3.9036 17.6789 4.2931L17.1324 4.8396C16.9369 5.0351 16.9369 5.3511 17.1324 5.5466C17.3279 5.7421 17.6439 5.7421 17.8394 5.5466L18.3859 5.0001L19.0929 5.7071L15.6399 9.1601L13.6929 7.7001L14.2929 6.8996L14.8519 7.3186C15.2459 7.6161 15.8084 7.5766 16.1589 7.2261L16.7459 6.6391C16.9414 6.4436 16.9414 6.1276 16.7459 5.9321C16.5504 5.7366 16.2344 5.7366 16.0389 5.9321L15.4519 6.5191L14.8929 6.1001C14.6789 5.9396 14.4169 5.8721 14.1514 5.9101C13.8874 5.9481 13.6534 6.0871 13.4939 6.2996L12.8944 7.0991C12.7339 7.3131 12.6659 7.5761 12.7034 7.8401C12.7409 8.1046 12.8799 8.3391 13.0934 8.4991L15.0404 9.9596C15.2174 10.0936 15.4279 10.1586 15.6384 10.1586Z" fill="#191919"/>
<path d="M31.5 24.5H27V18.5C27 18.2235 26.7765 18 26.5 18H20.5V12C20.5 11.7235 20.2765 11.5 20 11.5H19.3415C21.128 8.819 21.762 5.933 21.9865 4.1975C22.0445 3.748 21.916 3.3085 21.625 2.959C21.32 2.5935 20.8645 2.369 20.3755 2.3435C19.6005 2.3035 18.4355 1.968 17.288 0.5975C16.97 0.218 16.5005 0 16 0C15.4995 0 15.03 0.218 14.7115 0.597V0.5975C13.564 1.9675 12.399 2.303 11.624 2.343C11.1345 2.369 10.6795 2.593 10.3745 2.9585C10.0835 3.3075 9.955 3.747 10.013 4.197C10.2375 5.9325 10.872 8.8185 12.6585 11.4995H12C11.7235 11.4995 11.5 11.723 11.5 11.9995V17.9995H9.2195C9.608 17.059 10.387 17.0025 10.505 16.9995H10.5065C10.5065 16.9995 10.507 16.9995 10.5075 16.9995H10.508C10.7805 16.9955 11 16.7735 11 16.5C11 16.2255 10.779 16.0025 10.505 16C10.347 15.996 9 15.898 9 13.7C9 13.4235 8.7765 13.2 8.5 13.2C8.2235 13.2 8 13.4235 8 13.7C8 15.901 6.6485 15.9965 6.5 16H6.4985H6.497C6.497 16 6.496 16 6.495 16C6.4945 16 6.494 16 6.4935 16C6.493 16 6.493 16 6.4925 16C6.22 16.0045 6 16.2265 6 16.5C6 16.7745 6.221 16.9975 6.495 17C6.6125 17.003 7.392 17.0595 7.7805 18H5.5C5.2235 18 5 18.2235 5 18.5V24.5H0.5C0.2235 24.5 0 24.7235 0 25V31.5C0 31.7765 0.2235 32 0.5 32H31.5C31.7765 32 32 31.7765 32 31.5V25C32 24.7235 31.7765 24.5 31.5 24.5ZM11.1425 3.599C11.2695 3.4465 11.464 3.353 11.6755 3.342C12.649 3.291 14.0995 2.8855 15.4775 1.239V1.2395C15.7325 0.935 16.2665 0.9355 16.5215 1.239C17.9 2.8855 19.35 3.291 20.3235 3.342C20.5355 3.3525 20.7295 3.4465 20.8565 3.599C20.9345 3.693 21.022 3.851 20.9935 4.069C20.7125 6.246 19.7505 10.342 16.474 13.3185C16.2075 13.5605 15.79 13.5605 15.5245 13.3185C12.2475 10.342 11.2855 6.2455 11.0045 4.069C10.977 3.851 11.0645 3.6935 11.1425 3.599ZM8.5 15.7955C8.687 16.1015 8.9095 16.3295 9.137 16.5C8.9095 16.6705 8.687 16.8985 8.5 17.2045C8.313 16.8985 8.0905 16.6705 7.863 16.5C8.0905 16.3295 8.313 16.1015 8.5 15.7955ZM1 25.5H5V31H1V25.5ZM6 19H7.9885C7.9945 19.0965 8 19.1935 8 19.3C8 19.5765 8.2235 19.8 8.5 19.8C8.7765 19.8 9 19.5765 9 19.3C9 19.194 9.0055 19.097 9.0115 19H11.5V31H6V19ZM12.5 12.5H13.3975C13.8295 13.039 14.308 13.564 14.853 14.059C15.1745 14.351 15.5875 14.497 16 14.497C16.4125 14.497 16.8255 14.351 17.1475 14.059C17.6925 13.564 18.171 13.039 18.603 12.5H19.5V25.2335C19.5 25.51 19.7235 25.7335 20 25.7335C20.2765 25.7335 20.5 25.51 20.5 25.2335V19H26V31H20.5V27.57C20.5 27.2935 20.2765 27.07 20 27.07C19.7235 27.07 19.5 27.2935 19.5 27.57V31H12.5V12.5ZM31 31H27V25.5H31V31Z" fill="#191919"/>
</g>
<defs>
<clipPath id="clip0_198_2567">
<rect width="32" height="32" fill="white"/>
</clipPath>
</defs>
</svg>
