<svg width="32" height="32" viewBox="0 0 32 32" fill="none" xmlns="http://www.w3.org/2000/svg">
<path d="M29.25 17.065L22.75 13.315C22.674 13.2711 22.5878 13.248 22.5 13.248C22.4122 13.248 22.326 13.2711 22.25 13.315L15.75 17.065C15.6737 17.1091 15.6104 17.1725 15.5665 17.2489C15.5226 17.3253 15.4997 17.4119 15.5 17.5V25C15.5001 25.0877 15.5232 25.1738 15.5671 25.2497C15.611 25.3257 15.6741 25.3887 15.75 25.4325L22.25 29.1825C22.326 29.2264 22.4122 29.2495 22.5 29.2495C22.5878 29.2495 22.674 29.2264 22.75 29.1825L29.25 25.4325C29.3259 25.3887 29.389 25.3257 29.4329 25.2497C29.4768 25.1738 29.4999 25.0877 29.5 25V17.5C29.5004 17.4119 29.4774 17.3253 29.4335 17.2489C29.3896 17.1725 29.3263 17.1091 29.25 17.065ZM22.5 14.315L28.115 17.565L22.5 20.675L17 17.5L22.5 14.315ZM16.5 18.365L22 21.5375V27.89L16.5 24.715V18.365ZM23 27.89V21.545L28.5 18.5V24.7125L23 27.89Z" fill="#191919"/>
<path d="M14 25.5622L10 27.7672V21.6797L14.25 19.1797C14.3138 19.1509 14.3708 19.109 14.4173 19.0568C14.4639 19.0046 14.4989 18.9432 14.5203 18.8766C14.5416 18.8099 14.5487 18.7396 14.5412 18.67C14.5336 18.6005 14.5115 18.5333 14.4763 18.4728C14.4412 18.4123 14.3937 18.3599 14.337 18.3189C14.2803 18.2779 14.2156 18.2493 14.1472 18.2348C14.0787 18.2204 14.008 18.2205 13.9396 18.2351C13.8712 18.2498 13.8066 18.2786 13.75 18.3197L9.5 20.8197L3.8875 17.6397L9.5 14.4547L13.75 16.6922C13.867 16.7502 14.002 16.7602 14.1262 16.7199C14.2505 16.6797 14.354 16.5924 14.4147 16.4768C14.4755 16.3612 14.4886 16.2265 14.4513 16.1013C14.4139 15.9762 14.3291 15.8707 14.215 15.8072L9.715 13.4422C9.64142 13.402 9.55888 13.3809 9.475 13.3809C9.39112 13.3809 9.30859 13.402 9.235 13.4422L2.75 17.1322C2.6737 17.1763 2.61039 17.2397 2.56649 17.3161C2.52259 17.3925 2.49965 17.4791 2.5 17.5672V24.9322C2.49965 25.0203 2.52259 25.107 2.56649 25.1834C2.61039 25.2597 2.6737 25.3232 2.75 25.3672L9.25 29.0497C9.32601 29.0936 9.41224 29.1167 9.5 29.1167C9.58777 29.1167 9.67399 29.0936 9.75 29.0497L14.5 26.4347C14.5619 26.4057 14.6171 26.3643 14.6623 26.3131C14.7076 26.2619 14.7418 26.202 14.763 26.1371C14.7842 26.0721 14.7918 26.0035 14.7855 25.9355C14.7791 25.8675 14.7589 25.8015 14.726 25.7416C14.6932 25.6817 14.6484 25.6292 14.5944 25.5872C14.5405 25.5453 14.4785 25.5149 14.4124 25.4979C14.3462 25.4808 14.2773 25.4775 14.2098 25.4882C14.1423 25.4988 14.0777 25.5232 14.02 25.5597L14 25.5622ZM3.5 18.5622L9 21.6847V27.7497L3.5 24.6397V18.5622Z" fill="#191919"/>
<path d="M9.5 12.2505C9.63261 12.2505 9.75979 12.1978 9.85355 12.104C9.94732 12.0102 10 11.8831 10 11.7505V7.11546L15.5 10.288V15.2505C15.5 15.3831 15.5527 15.5102 15.6464 15.604C15.7402 15.6978 15.8674 15.7505 16 15.7505C16.1326 15.7505 16.2598 15.6978 16.3536 15.604C16.4473 15.5102 16.5 15.3831 16.5 15.2505V10.288L22 7.11546V11.7505C22 11.8831 22.0527 12.0102 22.1464 12.104C22.2402 12.1978 22.3674 12.2505 22.5 12.2505C22.6326 12.2505 22.7598 12.1978 22.8536 12.104C22.9473 12.0102 23 11.8831 23 11.7505V6.25046C22.9999 6.16278 22.9768 6.07667 22.9329 6.00075C22.889 5.92484 22.8259 5.8618 22.75 5.81796L16.25 2.06796C16.174 2.02408 16.0878 2.00098 16 2.00098C15.9122 2.00098 15.826 2.02408 15.75 2.06796L9.25 5.81796C9.17407 5.8618 9.111 5.92484 9.06712 6.00075C9.02324 6.07667 9.00009 6.16278 9 6.25046V11.7505C9 11.8831 9.05268 12.0102 9.14645 12.104C9.24021 12.1978 9.36739 12.2505 9.5 12.2505ZM16 3.07796L21.5 6.25046L16 9.42296L10.5 6.25046L16 3.07796Z" fill="#191919"/>
</svg>
