<svg width="20" height="20" viewBox="0 0 20 20" fill="none" xmlns="http://www.w3.org/2000/svg">
<g clip-path="url(#clip0_86_3235)">
<path d="M8.22817 9.40046C8.64321 9.1917 8.95698 8.95918 9.172 8.70791C9.55453 8.25537 9.7433 7.65532 9.7433 6.91151C9.7433 6.1877 9.55453 5.5689 9.177 5.05011C8.54695 4.20504 7.48061 3.7725 5.97299 3.75H0V15.9423H5.56921C6.19676 15.9423 6.77806 15.8885 7.3156 15.7785C7.85314 15.6672 8.31818 15.4635 8.71196 15.1659C9.06199 14.9072 9.35452 14.5859 9.58704 14.2071C9.95457 13.6346 10.1383 12.9858 10.1383 12.2632C10.1383 11.5631 9.97707 10.9668 9.65704 10.4768C9.33327 9.98676 8.85823 9.62798 8.22817 9.40046ZM2.46395 5.86767H5.15417C5.74547 5.86767 6.23301 5.93143 6.61554 6.05769C7.05808 6.24145 7.27935 6.61523 7.27935 7.18528C7.27935 7.69657 7.11058 8.0541 6.77681 8.25537C6.44053 8.45664 6.00424 8.55789 5.4692 8.55789H2.46395V5.86767ZM6.71805 13.6121C6.42053 13.7558 6.00174 13.8271 5.46545 13.8271H2.46395V10.5756H5.5067C6.03675 10.5793 6.44928 10.6493 6.7443 10.7806C7.26935 11.0181 7.53062 11.4531 7.53062 12.0894C7.53062 12.8395 7.2606 13.3445 6.71805 13.6121Z" fill="#191919"/>
<path d="M18.0779 4.31836H12.7812V5.83598H18.0779V4.31836Z" fill="#191919"/>
<path d="M19.9181 10.3078C19.8081 9.6015 19.5656 8.9802 19.188 8.4439C18.7742 7.83635 18.2492 7.39132 17.6104 7.11004C16.9741 6.82752 16.2578 6.68626 15.4602 6.68751C14.1214 6.68751 13.0338 7.10629 12.1924 7.93761C11.3536 8.77143 10.9336 9.97028 10.9336 11.5329C10.9336 13.1993 11.3974 14.4031 12.33 15.142C13.2588 15.882 14.3314 16.2508 15.549 16.2508C17.0228 16.2508 18.1692 15.812 18.988 14.9369C19.5118 14.3844 19.8081 13.8406 19.8731 13.3068H17.4329C17.2916 13.5706 17.1279 13.7768 16.9403 13.9269C16.6003 14.2019 16.1578 14.3394 15.6152 14.3394C15.0989 14.3394 14.6614 14.2256 14.2964 13.9994C13.6938 13.6368 13.3788 13.0018 13.3388 12.098H19.9981C20.0081 11.3191 19.9831 10.7203 19.9181 10.3078ZM13.3988 10.5416C13.4863 9.95528 13.6988 9.49024 14.0363 9.14646C14.3739 8.80393 14.8514 8.63142 15.4627 8.63017C16.0265 8.63017 16.4978 8.79143 16.8816 9.11521C17.2604 9.44148 17.4741 9.91527 17.5179 10.5416H13.3988Z" fill="#191919"/>
</g>
<defs>
<clipPath id="clip0_86_3235">
<rect width="20" height="20" fill="white"/>
</clipPath>
</defs>
</svg>
