<svg width="22" height="22" viewBox="0 0 22 22" fill="none" xmlns="http://www.w3.org/2000/svg">
<circle cx="11" cy="11" r="11" fill="#C5FF55"/>
<g clip-path="url(#clip0_270_1372)">
<path d="M16.1081 4.27734H5.89379C5.44229 4.27734 5.00928 4.4705 4.69002 4.81431C4.37076 5.15813 4.19141 5.62445 4.19141 6.11068V17.7218H17.8105V6.11068C17.8105 5.62445 17.6311 5.15813 17.3118 4.81431C16.9926 4.4705 16.5596 4.27734 16.1081 4.27734ZM5.89379 5.49957H16.1081C16.2586 5.49957 16.4029 5.56395 16.5093 5.67856C16.6157 5.79316 16.6755 5.9486 16.6755 6.11068V6.51829L12.2051 11.3332C11.8853 11.6763 11.4523 11.8689 11.0009 11.8689C10.5496 11.8689 10.1166 11.6763 9.79678 11.3332L5.32633 6.51829V6.11068C5.32633 5.9486 5.38611 5.79316 5.49253 5.67856C5.59895 5.56395 5.74329 5.49957 5.89379 5.49957ZM5.32633 16.4996V8.24957L8.99439 12.1973C9.52702 12.7695 10.2486 13.0908 11.0009 13.0908C11.7532 13.0908 12.4748 12.7695 13.0075 12.1973L16.6755 8.24957V16.4996H5.32633Z" fill="#191919"/>
</g>
<defs>
<clipPath id="clip0_270_1372">
<rect width="13.619" height="14.6667" fill="white" transform="translate(4.19141 3.66699)"/>
</clipPath>
</defs>
</svg>
