<svg width="17" height="16" viewBox="0 0 17 16" fill="none" xmlns="http://www.w3.org/2000/svg">
<path d="M0.222656 2.00976C0.222656 1.49175 0.404574 1.0644 0.768394 0.727707C1.13221 0.391001 1.6052 0.222656 2.18731 0.222656C2.75904 0.222656 3.22161 0.388406 3.57505 0.719937C3.93887 1.06182 4.12078 1.50729 4.12078 2.05638C4.12078 2.55366 3.94407 2.96805 3.59064 3.29958C3.22682 3.64146 2.74864 3.8124 2.15613 3.8124H2.14054C1.5688 3.8124 1.10624 3.64146 0.752802 3.29958C0.399366 2.9577 0.222656 2.52775 0.222656 2.00976ZM0.425359 15.6073V5.22654H3.8869V15.6073H0.425359ZM5.80478 15.6073H9.26631V9.81085C9.26631 9.44823 9.3079 9.16851 9.39106 8.97168C9.53658 8.61944 9.75748 8.32158 10.0537 8.07813C10.35 7.83467 10.7216 7.71294 11.1686 7.71294C12.3328 7.71294 12.915 8.49512 12.915 10.0595V15.6073H16.3765V9.65545C16.3765 8.12216 16.0127 6.95925 15.285 6.16671C14.5574 5.37417 13.5958 4.9779 12.4004 4.9779C11.0595 4.9779 10.0148 5.55288 9.26631 6.70284V6.73392H9.25072L9.26631 6.70284V5.22654H5.80478C5.82556 5.55806 5.83596 6.58887 5.83596 8.319C5.83596 10.0491 5.82556 12.4785 5.80478 15.6073Z" fill="#191919"/>
</svg>
