<svg width="22" height="22" viewBox="0 0 22 22" fill="none" xmlns="http://www.w3.org/2000/svg">
<circle cx="11" cy="11" r="11" fill="#C5FF55"/>
<g clip-path="url(#clip0_270_1373)">
<path d="M12.8693 13.6043C11.09 12.8509 9.67506 11.4327 8.9258 9.6516L11.0036 7.57016L7.17803 3.74155L5.24019 5.67877C4.90408 6.0168 4.63834 6.41813 4.45834 6.85953C4.27833 7.30093 4.18765 7.77365 4.19153 8.25033C4.19153 12.6797 9.84552 18.3337 14.2749 18.3337C14.7515 18.3378 15.2242 18.2473 15.6655 18.0673C16.1069 17.8872 16.5081 17.6213 16.8458 17.285L18.7836 15.3472L14.955 11.5185L12.8693 13.6043ZM15.9811 16.4209C15.7567 16.6433 15.4902 16.819 15.1973 16.9375C14.9044 17.0561 14.5908 17.1152 14.2749 17.1114C10.4658 17.1114 5.41375 12.0594 5.41375 8.25033C5.41015 7.93428 5.46934 7.62066 5.58788 7.32767C5.70642 7.03467 5.88195 6.76812 6.1043 6.54349L7.17803 5.46977L9.27841 7.57016L7.4848 9.36377L7.63453 9.73899C8.07529 10.918 8.76432 11.9885 9.65495 12.878C10.5456 13.7675 11.617 14.4551 12.7966 14.8943L13.1669 15.0355L14.955 13.2468L17.0554 15.3472L15.9811 16.4209ZM12.7471 4.88921V3.66699C14.3673 3.66877 15.9207 4.31319 17.0663 5.45886C18.212 6.60453 18.8564 8.15788 18.8582 9.7781H17.636C17.6345 8.48194 17.119 7.23927 16.2024 6.32274C15.2859 5.40622 14.0432 4.89067 12.7471 4.88921ZM12.7471 7.33366V6.11144C13.7192 6.11241 14.6513 6.49903 15.3387 7.18645C16.0262 7.87387 16.4128 8.80594 16.4137 9.7781H15.1915C15.1915 9.1298 14.934 8.50804 14.4756 8.04962C14.0171 7.5912 13.3954 7.33366 12.7471 7.33366Z" fill="#191919"/>
</g>
<defs>
<clipPath id="clip0_270_1373">
<rect width="14.6667" height="14.6667" fill="white" transform="translate(4.19141 3.66699)"/>
</clipPath>
</defs>
</svg>
