<svg width="20" height="20" viewBox="0 0 20 20" fill="none" xmlns="http://www.w3.org/2000/svg">
<g clip-path="url(#clip0_194_1999)">
<path d="M0.0332031 8.4188C0.0332031 10.6431 0.916786 12.7762 2.48957 14.349C4.06236 15.9218 6.19552 16.8054 8.41977 16.8054C10.2823 16.8077 12.0915 16.1837 13.5565 15.0337L18.1587 19.6463C18.2561 19.7446 18.3721 19.8226 18.4998 19.8758C18.6276 19.929 18.7646 19.9564 18.903 19.9564C19.0414 19.9564 19.1784 19.929 19.3061 19.8758C19.4339 19.8226 19.5498 19.7446 19.6473 19.6463C19.7455 19.5489 19.8235 19.4329 19.8768 19.3052C19.93 19.1774 19.9574 19.0404 19.9574 18.902C19.9574 18.7636 19.93 18.6266 19.8768 18.4988C19.8235 18.3711 19.7455 18.2552 19.6473 18.1577L15.0347 13.5556C16.1847 12.0905 16.8087 10.2813 16.8063 8.4188C16.8063 6.19454 15.9228 4.06138 14.35 2.4886C12.7772 0.915809 10.644 0.0322266 8.41977 0.0322266C6.19552 0.0322266 4.06236 0.915809 2.48957 2.4886C0.916786 4.06138 0.0332031 6.19454 0.0332031 8.4188ZM8.41977 2.12887C9.6638 2.12887 10.8799 2.49777 11.9143 3.18891C12.9486 3.88006 13.7548 4.86241 14.2309 6.01174C14.707 7.16108 14.8315 8.42577 14.5888 9.6459C14.3461 10.866 13.7471 11.9868 12.8674 12.8664C11.9878 13.7461 10.867 14.3452 9.64688 14.5879C8.42675 14.8306 7.16206 14.706 6.01272 14.2299C4.86339 13.7539 3.88104 12.9477 3.18989 11.9133C2.49874 10.8789 2.12985 9.66283 2.12985 8.4188C2.12985 6.7506 2.79253 5.15074 3.97212 3.97115C5.15171 2.79156 6.75158 2.12887 8.41977 2.12887Z" fill="#191919"/>
</g>
<defs>
<clipPath id="clip0_194_1999">
<rect width="20" height="20" fill="white"/>
</clipPath>
</defs>
</svg>
