<svg width="17" height="17" viewBox="0 0 17 17" fill="none" xmlns="http://www.w3.org/2000/svg">
<g clip-path="url(#clip0_83_2903)">
<path d="M16.4676 6.27113C16.3606 5.94014 16.067 5.70506 15.7197 5.67375L11.0017 5.24536L9.13614 0.87873C8.99858 0.558713 8.6853 0.351562 8.33722 0.351562C7.98915 0.351562 7.67586 0.558713 7.5383 0.879479L5.6727 5.24536L0.954002 5.67375C0.607296 5.7058 0.314466 5.94014 0.206838 6.27113C0.0992089 6.60213 0.198606 6.96517 0.460881 7.19402L4.02709 10.3216L2.9755 14.9539C2.89855 15.2945 3.03075 15.6465 3.31335 15.8508C3.46525 15.9606 3.64297 16.0164 3.82219 16.0164C3.97671 16.0164 4.12998 15.9748 4.26754 15.8925L8.33722 13.4602L12.4054 15.8925C12.7031 16.0716 13.0784 16.0552 13.3603 15.8508C13.6431 15.6459 13.7751 15.2937 13.6982 14.9539L12.6466 10.3216L16.2128 7.19464C16.4751 6.96517 16.5752 6.60275 16.4676 6.27113Z" fill="#FFC107"/>
</g>
<defs>
<clipPath id="clip0_83_2903">
<rect width="16.3462" height="16.3462" fill="white" transform="translate(0.164062)"/>
</clipPath>
</defs>
</svg>
