<svg width="20" height="16" viewBox="0 0 20 16" fill="none" xmlns="http://www.w3.org/2000/svg">
<path d="M20 2.1299C19.2563 2.43877 18.4637 2.6435 17.6375 2.74291C18.4875 2.26244 19.1363 1.50741 19.4412 0.597351C18.6488 1.04469 17.7738 1.36066 16.8412 1.537C16.0887 0.778416 15.0162 0.308594 13.8462 0.308594C11.5763 0.308594 9.74875 2.05297 9.74875 4.19143C9.74875 4.49913 9.77625 4.79498 9.84375 5.07664C6.435 4.91924 3.41875 3.3725 1.3925 1.01629C1.03875 1.59735 0.83125 2.26244 0.83125 2.97842C0.83125 4.32279 1.5625 5.51451 2.6525 6.20445C1.99375 6.19262 1.3475 6.01155 0.8 5.72635C0.8 5.73818 0.8 5.75356 0.8 5.76895C0.8 7.65534 2.22125 9.2222 4.085 9.58315C3.75125 9.66954 3.3875 9.71096 3.01 9.71096C2.7475 9.71096 2.4825 9.69676 2.23375 9.64469C2.765 11.182 4.2725 12.3121 6.065 12.3488C4.67 13.382 2.89875 14.0045 0.98125 14.0045C0.645 14.0045 0.3225 13.9902 0 13.9512C1.81625 15.0601 3.96875 15.6932 6.29 15.6932C13.835 15.6932 17.96 9.77605 17.96 4.64705C17.96 4.47546 17.9538 4.30978 17.945 4.14528C18.7588 3.59853 19.4425 2.91569 20 2.1299Z" fill="#191919"/>
</svg>
