<svg width="17" height="17" viewBox="0 0 17 17" fill="none" xmlns="http://www.w3.org/2000/svg">
<g clip-path="url(#clip0_362_5212)">
<path d="M16.3035 6.92543C16.1965 6.59444 15.903 6.35935 15.5556 6.32805L10.8377 5.89965L8.97208 1.53303C8.83452 1.21301 8.52124 1.00586 8.17316 1.00586C7.82508 1.00586 7.5118 1.21301 7.37424 1.53378L5.50864 5.89965L0.789939 6.32805C0.443233 6.3601 0.150404 6.59444 0.042775 6.92543C-0.0648536 7.25642 0.0345438 7.61947 0.296818 7.84832L3.86303 10.9759L2.81144 15.6082C2.73449 15.9488 2.86668 16.3008 3.14929 16.5051C3.30119 16.6149 3.47891 16.6707 3.65812 16.6707C3.81264 16.6707 3.96592 16.6291 4.10348 16.5468L8.17316 14.1145L12.2413 16.5468C12.539 16.7259 12.9143 16.7095 13.1963 16.5051C13.479 16.3002 13.6111 15.948 13.5341 15.6082L12.4825 10.9759L16.0488 7.84894C16.311 7.61947 16.4112 7.25705 16.3035 6.92543Z" fill="#FFC107"/>
</g>
<defs>
<clipPath id="clip0_362_5212">
<rect width="16.3462" height="16.3462" fill="white" transform="translate(0 0.654297)"/>
</clipPath>
</defs>
</svg>
