<svg width="21" height="21" viewBox="0 0 21 21" fill="none" xmlns="http://www.w3.org/2000/svg">
<path d="M20.5532 13.6561L10.8032 0.156065C10.7684 0.108044 10.7228 0.0689507 10.67 0.0419917C10.6172 0.0150326 10.5587 0.000976562 10.4994 0.000976562C10.4402 0.000976562 10.3817 0.0150326 10.3289 0.0419917C10.2761 0.0689507 10.2305 0.108044 10.1957 0.156065L0.445696 13.6561C0.416626 13.6964 0.395878 13.7422 0.38466 13.7906C0.373442 13.8391 0.371978 13.8893 0.380354 13.9384C0.38873 13.9874 0.406778 14.0343 0.433448 14.0763C0.460117 14.1182 0.494874 14.1545 0.535696 14.1829L10.2857 20.9329C10.3485 20.9765 10.423 20.9998 10.4994 20.9998C10.5758 20.9998 10.6504 20.9765 10.7132 20.9329L20.4632 14.1829C20.504 14.1545 20.5388 14.1182 20.5654 14.0763C20.5921 14.0343 20.6102 13.9874 20.6185 13.9384C20.6269 13.8893 20.6254 13.8391 20.6142 13.7906C20.603 13.7422 20.5823 13.6964 20.5532 13.6561ZM10.4994 14.1454L7.1882 11.4961L10.4994 1.56044L13.8107 11.4979L10.4994 14.1454ZM6.44945 11.3329L1.72257 13.1686L9.37445 2.58232L6.44945 11.3329ZM6.68382 12.0473L10.1244 14.8129V19.9167L1.61195 14.0161L6.68382 12.0473ZM10.8744 14.8129L14.3169 12.0511L19.4469 13.9748L10.8744 19.9092V14.8129ZM14.5494 11.3442L11.6244 2.58232L19.2126 13.0823L14.5494 11.3442Z" fill="#191919"/>
</svg>
