<svg width="47" height="46" viewBox="0 0 47 46" fill="none" xmlns="http://www.w3.org/2000/svg">
<g clip-path="url(#clip0_95_7433)">
<path d="M23.5019 46.0004C22.228 46.0005 20.9563 45.8985 19.6992 45.6954L23.2078 24.5356H23.2687L23.4993 22.9482L23.7139 23.9909L27.7684 45.625C26.3607 45.8764 24.9327 46.002 23.5019 46.0004Z" fill="#2D2424"/>
<path d="M12.0049 43.0498C9.63393 41.7415 7.51163 40.0385 5.73242 38.0166L22.2047 23.9805L22.2338 24.0117L23.4687 22.917L22.9864 23.8058L12.0049 43.0498Z" fill="#2D2424"/>
<path d="M35.3925 42.823L24.3501 24.3349L24.4004 24.3063L23.5312 22.917L23.9393 23.2376L41.5617 37.6699C39.8239 39.7258 37.7365 41.4693 35.3925 42.823Z" fill="#2D2424"/>
<path d="M1.55554 31.1745C0.577591 28.6717 0.0511827 26.0201 0 23.3393L21.7908 22.9196V22.9379L23.4788 22.8779L1.55554 31.1745Z" fill="#2D2424"/>
<path d="M45.6 30.7573L25.0998 23.459V23.4277L23.5098 22.9064L25.2005 22.8752V22.8334L46.978 21.9863C46.9912 22.2913 46.9965 22.5963 46.9965 22.9038C46.9986 25.5816 46.5261 28.2392 45.6 30.7573Z" fill="#2D2424"/>
<path d="M23.5137 22.8779V22.8545V22.8727L23.7787 22.6303L24.7724 21.7832L24.7539 21.765L40.9426 7.4082C42.7671 9.39731 44.2261 11.6834 45.2541 14.1643L23.7893 22.7659L23.5137 22.8779Z" fill="#2D2424"/>
<path d="M23.4795 22.8747L21.8975 22.3117V22.343L1.23828 15.4565C2.11389 12.916 3.43301 10.5451 5.1364 8.4502L23.4795 22.8747Z" fill="#2D2424"/>
<path d="M23.4732 22.8203L22.6252 21.4414L11.2012 3.18007C13.5289 1.77189 16.0895 0.775902 18.7669 0.237305L23.4732 22.8203Z" fill="#2D2424"/>
<path d="M23.5215 22.8149L23.7573 21.225L26.8446 0C29.5513 0.380608 32.1694 1.22486 34.5798 2.49445L23.5215 22.8149Z" fill="#2D2424"/>
</g>
<defs>
<clipPath id="clip0_95_7433">
<rect width="47" height="46" fill="white"/>
</clipPath>
</defs>
</svg>
