<svg width="24" height="24" viewBox="0 0 24 24" fill="none" xmlns="http://www.w3.org/2000/svg">
<path d="M21.9375 12.7983L17.0625 9.98579C17.0055 9.95287 16.9408 9.93555 16.875 9.93555C16.8092 9.93555 16.7445 9.95287 16.6875 9.98579L11.8125 12.7983C11.7553 12.8313 11.7078 12.8789 11.6749 12.9362C11.6419 12.9935 11.6247 13.0585 11.625 13.1245V18.7495C11.6251 18.8153 11.6424 18.8799 11.6753 18.9368C11.7082 18.9938 11.7556 19.041 11.8125 19.0739L16.6875 21.8864C16.7445 21.9193 16.8092 21.9367 16.875 21.9367C16.9408 21.9367 17.0055 21.9193 17.0625 21.8864L21.9375 19.0739C21.9945 19.041 22.0418 18.9938 22.0747 18.9368C22.1076 18.8799 22.1249 18.8153 22.125 18.7495V13.1245C22.1253 13.0585 22.1081 12.9935 22.0751 12.9362C22.0422 12.8789 21.9947 12.8313 21.9375 12.7983ZM16.875 10.7358L21.0863 13.1733L16.875 15.5058L12.75 13.1245L16.875 10.7358ZM12.375 13.7733L16.5 16.1527V20.917L12.375 18.5358V13.7733ZM17.25 20.917V16.1583L21.375 13.8745V18.5339L17.25 20.917Z" fill="white"/>
<path d="M10.5 19.1722L7.5 20.8259V16.2603L10.6875 14.3853C10.7353 14.3637 10.7781 14.3323 10.813 14.2931C10.8479 14.2539 10.8742 14.2079 10.8902 14.1579C10.9062 14.1079 10.9115 14.0552 10.9059 14.003C10.9002 13.9508 10.8836 13.9004 10.8573 13.8551C10.8309 13.8097 10.7953 13.7704 10.7528 13.7397C10.7102 13.7089 10.6617 13.6874 10.6104 13.6766C10.559 13.6658 10.506 13.6659 10.4547 13.6768C10.4034 13.6878 10.3549 13.7094 10.3125 13.7403L7.125 15.6153L2.91563 13.2303L7.125 10.8415L10.3125 12.5197C10.4002 12.5632 10.5015 12.5706 10.5947 12.5404C10.6878 12.5102 10.7655 12.4448 10.8111 12.3581C10.8566 12.2714 10.8664 12.1703 10.8384 12.0765C10.8105 11.9827 10.7469 11.9035 10.6613 11.8559L7.28625 10.0822C7.23106 10.052 7.16916 10.0361 7.10625 10.0361C7.04334 10.0361 6.98144 10.052 6.92625 10.0822L2.0625 12.8497C2.00528 12.8827 1.9578 12.9303 1.92487 12.9876C1.89194 13.0449 1.87474 13.1098 1.875 13.1759V18.6997C1.87474 18.7657 1.89194 18.8307 1.92487 18.888C1.9578 18.9453 2.00528 18.9929 2.0625 19.0259L6.9375 21.7878C6.99451 21.8207 7.05918 21.838 7.125 21.838C7.19083 21.838 7.2555 21.8207 7.3125 21.7878L10.875 19.8265C10.9214 19.8048 10.9628 19.7737 10.9967 19.7353C11.0307 19.6969 11.0564 19.652 11.0723 19.6033C11.0881 19.5546 11.0939 19.5031 11.0891 19.4521C11.0843 19.4011 11.0692 19.3516 11.0445 19.3067C11.0199 19.2618 10.9863 19.2224 10.9458 19.1909C10.9054 19.1595 10.8589 19.1367 10.8093 19.1239C10.7597 19.1111 10.7079 19.1086 10.6573 19.1166C10.6067 19.1246 10.5583 19.1429 10.515 19.1703L10.5 19.1722ZM2.625 13.9222L6.75 16.264V20.8128L2.625 18.4803V13.9222Z" fill="white"/>
<path d="M7.125 9.18711C7.22446 9.18711 7.31984 9.14761 7.39017 9.07728C7.46049 9.00695 7.5 8.91157 7.5 8.81211V5.33587L11.625 7.71524V11.4371C11.625 11.5366 11.6645 11.632 11.7348 11.7023C11.8052 11.7726 11.9005 11.8121 12 11.8121C12.0995 11.8121 12.1948 11.7726 12.2652 11.7023C12.3355 11.632 12.375 11.5366 12.375 11.4371V7.71524L16.5 5.33587V8.81211C16.5 8.91157 16.5395 9.00695 16.6098 9.07728C16.6802 9.14761 16.7755 9.18711 16.875 9.18711C16.9745 9.18711 17.0698 9.14761 17.1402 9.07728C17.2105 9.00695 17.25 8.91157 17.25 8.81211V4.68712C17.2499 4.62135 17.2326 4.55677 17.1997 4.49983C17.1668 4.4429 17.1195 4.39562 17.0625 4.36274L12.1875 1.55024C12.1305 1.51733 12.0658 1.5 12 1.5C11.9342 1.5 11.8695 1.51733 11.8125 1.55024L6.9375 4.36274C6.88055 4.39562 6.83325 4.4429 6.80034 4.49983C6.76743 4.55677 6.75007 4.62135 6.75 4.68712V8.81211C6.75 8.91157 6.78951 9.00695 6.85983 9.07728C6.93016 9.14761 7.02554 9.18711 7.125 9.18711ZM12 2.30774L16.125 4.68712L12 7.06649L7.875 4.68712L12 2.30774Z" fill="white"/>
</svg>
