<svg width="25" height="25" viewBox="0 0 25 25" fill="none" xmlns="http://www.w3.org/2000/svg">
<g clip-path="url(#clip0_271_1800)">
<path d="M24.3969 4.58039L20.4219 0.60305C20.3892 0.57038 20.3505 0.544464 20.3078 0.526783C20.2651 0.509101 20.2194 0.5 20.1732 0.5C20.127 0.5 20.0813 0.509101 20.0386 0.526783C19.9959 0.544464 19.9572 0.57038 19.9245 0.60305L18.928 1.59727C18.7832 1.74267 18.6981 1.937 18.6894 2.14199C18.6807 2.34699 18.7491 2.54781 18.8811 2.70493L16.1506 3.75493C16.1038 3.77303 16.0614 3.80092 16.0262 3.83673C15.9911 3.87254 15.964 3.91545 15.9467 3.96258L14.8686 6.9218H1.78906C1.44733 6.9223 1.11974 7.05827 0.878105 7.29991C0.636467 7.54154 0.500496 7.86913 0.5 8.21086L0.5 23.2109C0.500496 23.5526 0.636467 23.8802 0.878105 24.1218C1.11974 24.3635 1.44733 24.4994 1.78906 24.4999H16.7891C17.1308 24.4994 17.4584 24.3635 17.7 24.1218C17.9417 23.8802 18.0776 23.5526 18.0781 23.2109V10.1327L21.0373 9.05227C21.0845 9.03502 21.1274 9.00791 21.1632 8.97275C21.199 8.93758 21.2269 8.89517 21.245 8.84836L22.2969 6.1193C22.4538 6.25157 22.6547 6.32015 22.8598 6.31147C23.0649 6.30279 23.2593 6.21749 23.4045 6.07242L24.3969 5.07774C24.4295 5.04509 24.4555 5.00632 24.4731 4.96365C24.4908 4.92099 24.4999 4.87525 24.4999 4.82907C24.4999 4.78288 24.4908 4.73714 24.4731 4.69448C24.4555 4.65181 24.4295 4.61304 24.3969 4.58039ZM14.1575 9.49992C14.1982 9.59857 14.2579 9.68825 14.3333 9.76383L15.2366 10.6666C15.312 10.7421 15.4015 10.8019 15.5 10.8429V21.9218H3.07812V9.49992H14.1575ZM17.375 23.2109C17.3748 23.3662 17.3129 23.5151 17.2031 23.6249C17.0933 23.7347 16.9444 23.7966 16.7891 23.7968H1.78906C1.63374 23.7966 1.48485 23.7347 1.37502 23.6249C1.26519 23.5151 1.20337 23.3662 1.20312 23.2109V8.21086C1.20337 8.05554 1.26519 7.90665 1.37502 7.79682C1.48485 7.68699 1.63374 7.62517 1.78906 7.62492H14.6094L14.1819 8.7968H2.72656C2.63332 8.7968 2.5439 8.83384 2.47797 8.89977C2.41204 8.9657 2.375 9.05512 2.375 9.14836V22.2734C2.375 22.3666 2.41204 22.456 2.47797 22.522C2.5439 22.5879 2.63332 22.6249 2.72656 22.6249H15.8516C15.9448 22.6249 16.0342 22.5879 16.1002 22.522C16.1661 22.456 16.2031 22.3666 16.2031 22.2734V10.8185L17.375 10.3905V23.2109ZM20.6459 8.44805L15.8567 10.1965C15.8357 10.2043 15.8129 10.2058 15.7911 10.201C15.7692 10.1962 15.7492 10.1852 15.7334 10.1693L15.5305 9.96867L17.968 7.53117C18.2396 7.68281 18.557 7.73107 18.8615 7.66706C19.1659 7.60304 19.437 7.43106 19.6246 7.18286C19.8122 6.93466 19.9037 6.62698 19.8822 6.3166C19.8607 6.00621 19.7277 5.71407 19.5077 5.49407C19.2877 5.27407 18.9956 5.14106 18.6852 5.11959C18.3748 5.09811 18.0671 5.18962 17.8189 5.37722C17.5707 5.56483 17.3988 5.83587 17.3347 6.14034C17.2707 6.44481 17.319 6.76216 17.4706 7.03383L15.0331 9.47133L14.8306 9.26555C14.8147 9.24977 14.8037 9.22976 14.7989 9.2079C14.7941 9.18604 14.7957 9.16326 14.8034 9.14227L16.5519 4.35305L19.4211 3.24961L21.7494 5.57789L20.6459 8.44805ZM18.1822 5.98899C18.2641 5.90706 18.3685 5.85127 18.4822 5.82867C18.5959 5.80608 18.7137 5.81769 18.8207 5.86204C18.9278 5.90639 19.0193 5.9815 19.0837 6.07785C19.148 6.1742 19.1824 6.28748 19.1824 6.40336C19.1824 6.51924 19.148 6.63252 19.0837 6.72888C19.0193 6.82523 18.9278 6.90033 18.8207 6.94468C18.7137 6.98904 18.5959 7.00065 18.4822 6.97805C18.3685 6.95546 18.2641 6.89967 18.1822 6.81774C18.1275 6.76348 18.0841 6.69893 18.0544 6.62781C18.0248 6.55669 18.0095 6.48041 18.0095 6.40336C18.0095 6.32632 18.0248 6.25003 18.0544 6.17891C18.0841 6.10779 18.1275 6.04324 18.1822 5.98899ZM22.9062 5.57461C22.8954 5.58551 22.8825 5.59416 22.8683 5.60006C22.8541 5.60596 22.8389 5.609 22.8235 5.609C22.8081 5.609 22.7929 5.60596 22.7787 5.60006C22.7645 5.59416 22.7516 5.58551 22.7408 5.57461L19.4253 2.26008C19.4144 2.24924 19.4058 2.23634 19.3999 2.22215C19.394 2.20795 19.3909 2.19272 19.3909 2.17735C19.3909 2.16197 19.394 2.14675 19.3999 2.13255C19.4058 2.11835 19.4144 2.10546 19.4253 2.09461L20.1711 1.34883L23.6511 4.82883L22.9062 5.57461Z" fill="white"/>
<path d="M6.13597 16.7426C6.15671 16.8166 6.20104 16.8818 6.26221 16.9282C6.32339 16.9747 6.39806 16.9999 6.47488 17H12.0999C12.1767 16.9999 12.2514 16.9747 12.3125 16.9282C12.3737 16.8818 12.418 16.8166 12.4388 16.7426L13.3763 13.3676C13.3942 13.3033 13.3934 13.2352 13.374 13.1713C13.3545 13.1074 13.3173 13.0503 13.2667 13.0068C13.216 12.9633 13.154 12.9351 13.0879 12.9255C13.0218 12.916 12.9544 12.9254 12.8935 12.9528L10.8277 13.8786L9.59207 11.7823C9.561 11.7297 9.51672 11.686 9.46361 11.6557C9.41051 11.6253 9.35041 11.6094 9.28925 11.6094C9.2281 11.6094 9.168 11.6253 9.11489 11.6557C9.06178 11.686 9.01751 11.7297 8.98644 11.7823L7.74894 13.8786L5.68316 12.9528C5.62224 12.9254 5.55479 12.916 5.4887 12.9255C5.4226 12.9351 5.3606 12.9633 5.30995 13.0068C5.2593 13.0503 5.22209 13.1074 5.20268 13.1713C5.18327 13.2352 5.18246 13.3033 5.20035 13.3676L6.13597 16.7426ZM7.74613 14.6487C7.82486 14.6843 7.91392 14.6896 7.99631 14.6636C8.07871 14.6377 8.14867 14.5823 8.19285 14.5081L9.28738 12.6537L10.3819 14.5081C10.4262 14.5823 10.4961 14.6376 10.5785 14.6635C10.6609 14.6894 10.7499 14.6842 10.8286 14.6487L12.4983 13.8987L11.8327 16.2969H6.74207L6.07644 13.9001L7.74613 14.6487Z" fill="white"/>
<path d="M12.1016 17.7031H6.47656C6.38332 17.7031 6.2939 17.7402 6.22797 17.8061C6.16204 17.872 6.125 17.9614 6.125 18.0547V18.9922C6.12525 19.2097 6.21175 19.4182 6.36554 19.572C6.51932 19.7257 6.72783 19.8123 6.94531 19.8125H11.6328C11.8503 19.8123 12.0588 19.7257 12.2126 19.572C12.3664 19.4182 12.4529 19.2097 12.4531 18.9922V18.0547C12.4531 17.9614 12.4161 17.872 12.3502 17.8061C12.2842 17.7402 12.1948 17.7031 12.1016 17.7031ZM11.75 18.9922C11.75 19.0233 11.7377 19.0531 11.7157 19.0751C11.6937 19.097 11.6639 19.1094 11.6328 19.1094H6.94531C6.91423 19.1094 6.88443 19.097 6.86245 19.0751C6.84047 19.0531 6.82812 19.0233 6.82812 18.9922V18.4062H11.75V18.9922Z" fill="white"/>
</g>
<defs>
<clipPath id="clip0_271_1800">
<rect width="24" height="24" fill="white" transform="translate(0.5 0.5)"/>
</clipPath>
</defs>
</svg>
