<svg width="25" height="25" viewBox="0 0 25 25" fill="none" xmlns="http://www.w3.org/2000/svg">
<path d="M16.1403 9.0485C16.07 8.97866 15.975 8.93945 15.8759 8.93945C15.7769 8.93945 15.6818 8.97866 15.6115 9.0485L8.86155 15.7985C8.82229 15.8321 8.79041 15.8735 8.7679 15.92C8.74539 15.9665 8.73274 16.0172 8.73075 16.0689C8.72875 16.1205 8.73746 16.172 8.75631 16.2201C8.77516 16.2682 8.80376 16.3119 8.8403 16.3485C8.87685 16.385 8.92055 16.4136 8.96868 16.4325C9.0168 16.4513 9.0683 16.46 9.11994 16.458C9.17159 16.4561 9.22226 16.4434 9.26879 16.4209C9.31531 16.3984 9.35668 16.3665 9.3903 16.3273L16.1403 9.57725C16.2101 9.50699 16.2493 9.41194 16.2493 9.31288C16.2493 9.21381 16.2101 9.11876 16.1403 9.0485Z" fill="white"/>
<path d="M11.9375 10.25C11.9375 9.87916 11.8275 9.51665 11.6215 9.20831C11.4155 8.89996 11.1226 8.65964 10.78 8.51773C10.4374 8.37581 10.0604 8.33868 9.69671 8.41103C9.33299 8.48338 8.9989 8.66195 8.73668 8.92418C8.47445 9.1864 8.29588 9.52049 8.22353 9.88421C8.15118 10.2479 8.18831 10.6249 8.33023 10.9675C8.47214 11.3101 8.71246 11.603 9.02081 11.809C9.32915 12.015 9.69166 12.125 10.0625 12.125C10.5598 12.125 11.0367 11.9275 11.3883 11.5758C11.74 11.2242 11.9375 10.7473 11.9375 10.25ZM8.9375 10.25C8.9375 10.0275 9.00348 9.80999 9.1271 9.62498C9.25071 9.43998 9.42642 9.29579 9.63198 9.21064C9.83755 9.12549 10.0637 9.10321 10.282 9.14662C10.5002 9.19003 10.7007 9.29717 10.858 9.45451C11.0153 9.61184 11.1225 9.8123 11.1659 10.0305C11.2093 10.2488 11.187 10.475 11.1019 10.6805C11.0167 10.8861 10.8725 11.0618 10.6875 11.1854C10.5025 11.309 10.285 11.375 10.0625 11.375C9.76413 11.375 9.47798 11.2565 9.26701 11.0455C9.05603 10.8345 8.9375 10.5484 8.9375 10.25Z" fill="white"/>
<path d="M14.9375 12.875C14.5667 12.875 14.2041 12.985 13.8958 13.191C13.5875 13.397 13.3471 13.6899 13.2052 14.0325C13.0633 14.3751 13.0262 14.7521 13.0985 15.1158C13.1709 15.4795 13.3495 15.8136 13.6117 16.0758C13.8739 16.338 14.208 16.5166 14.5717 16.589C14.9354 16.6613 15.3124 16.6242 15.655 16.4823C15.9976 16.3404 16.2905 16.1 16.4965 15.7917C16.7025 15.4834 16.8125 15.1208 16.8125 14.75C16.8125 14.5038 16.764 14.26 16.6698 14.0325C16.5755 13.805 16.4374 13.5983 16.2633 13.4242C16.0892 13.2501 15.8825 13.112 15.655 13.0177C15.4275 12.9235 15.1837 12.875 14.9375 12.875ZM14.9375 15.875C14.715 15.875 14.4975 15.809 14.3125 15.6854C14.1275 15.5618 13.9833 15.3861 13.8981 15.1805C13.813 14.975 13.7907 14.7488 13.8341 14.5305C13.8775 14.3123 13.9847 14.1118 14.142 13.9545C14.2993 13.7972 14.4998 13.69 14.718 13.6466C14.9363 13.6032 15.1625 13.6255 15.368 13.7106C15.5736 13.7958 15.7493 13.94 15.8729 14.125C15.9965 14.31 16.0625 14.5275 16.0625 14.75C16.0625 15.0484 15.944 15.3345 15.733 15.5455C15.522 15.7565 15.2359 15.875 14.9375 15.875Z" fill="white"/>
<path d="M21.6185 12.5004C21.6163 12.2207 21.671 11.9435 21.7793 11.6857C21.8876 11.4278 22.0472 11.1947 22.2485 11.0004C22.4061 10.8463 22.5198 10.653 22.578 10.4403C22.6361 10.2276 22.6366 10.0033 22.5793 9.79042C22.522 9.57753 22.4091 9.38373 22.2521 9.22896C22.0951 9.07418 21.8997 8.96402 21.686 8.9098C21.4156 8.84242 21.1615 8.72144 20.9388 8.55404C20.7161 8.38664 20.5292 8.17622 20.3894 7.93526C20.2495 7.6943 20.1594 7.42771 20.1244 7.15128C20.0895 6.87486 20.1104 6.59424 20.186 6.32605C20.2414 6.11594 20.2407 5.89494 20.1838 5.68521C20.1269 5.47548 20.0159 5.2844 19.8619 5.13112C19.7078 4.97784 19.5162 4.86776 19.3062 4.81191C19.0962 4.75606 18.8752 4.75641 18.6653 4.81292C18.3972 4.88846 18.1165 4.90939 17.8401 4.87445C17.5637 4.83951 17.2971 4.74943 17.0561 4.60954C16.8152 4.46965 16.6048 4.2828 16.4373 4.06008C16.2699 3.83735 16.149 3.58328 16.0816 3.31292C16.0266 3.10071 15.9164 2.90685 15.7622 2.75105C15.608 2.59524 15.4152 2.48306 15.2036 2.42592C14.992 2.36877 14.769 2.36869 14.5573 2.42569C14.3456 2.48269 14.1528 2.59473 13.9985 2.75042C13.8041 2.95208 13.5712 3.11248 13.3134 3.22204C13.0557 3.3316 12.7785 3.38807 12.4985 3.38807C12.2184 3.38807 11.9412 3.3316 11.6835 3.22204C11.4258 3.11248 11.1928 2.95208 10.9985 2.75042C10.8443 2.59279 10.651 2.47905 10.4383 2.4209C10.2257 2.36276 10.0014 2.3623 9.78847 2.41958C9.57557 2.47686 9.38177 2.58981 9.227 2.74682C9.07223 2.90383 8.96207 3.09923 8.90784 3.31292C8.84047 3.58328 8.71949 3.83735 8.55209 4.06008C8.38469 4.2828 8.17427 4.46965 7.93331 4.60954C7.69235 4.74943 7.42576 4.83951 7.14933 4.87445C6.87291 4.90939 6.59228 4.88846 6.3241 4.81292C6.11399 4.75745 5.89299 4.75819 5.68326 4.81508C5.47353 4.87196 5.28244 4.98299 5.12917 5.13703C4.97589 5.29107 4.8658 5.4827 4.80995 5.69271C4.75411 5.90272 4.75446 6.12372 4.81097 6.33355C4.88651 6.60174 4.90743 6.88236 4.8725 7.15878C4.83756 7.43521 4.74748 7.7018 4.60759 7.94276C4.4677 8.18372 4.28085 8.39414 4.05812 8.56154C3.8354 8.72894 3.58132 8.84992 3.31097 8.9173C3.09876 8.97228 2.90489 9.08249 2.74909 9.2367C2.59329 9.39092 2.48111 9.58365 2.42396 9.79529C2.36681 10.0069 2.36674 10.2299 2.42374 10.4416C2.48073 10.6533 2.59278 10.8461 2.74847 11.0004C2.95013 11.1947 3.11053 11.4277 3.22009 11.6855C3.32965 11.9432 3.38612 12.2204 3.38612 12.5004C3.38612 12.7805 3.32965 13.0576 3.22009 13.3154C3.11053 13.5731 2.95013 13.8061 2.74847 14.0004C2.59083 14.1546 2.4771 14.3479 2.41895 14.5606C2.3608 14.7732 2.36035 14.9975 2.41763 15.2104C2.47491 15.4233 2.58786 15.6171 2.74487 15.7719C2.90188 15.9267 3.09727 16.0368 3.31097 16.091C3.58132 16.1584 3.8354 16.2794 4.05812 16.4468C4.28085 16.6142 4.4677 16.8246 4.60759 17.0656C4.74748 17.3065 4.83756 17.5731 4.8725 17.8496C4.90743 18.126 4.88651 18.4066 4.81097 18.6748C4.75094 18.887 4.74859 19.1113 4.80417 19.3247C4.85975 19.538 4.97124 19.7327 5.12715 19.8886C5.28306 20.0445 5.47774 20.156 5.69111 20.2116C5.90448 20.2672 6.12881 20.2648 6.34097 20.2048C6.60916 20.1293 6.88978 20.1083 7.16621 20.1433C7.44263 20.1782 7.70923 20.2683 7.95019 20.4082C8.19114 20.5481 8.40156 20.7349 8.56896 20.9576C8.73637 21.1804 8.85734 21.4344 8.92472 21.7048C8.98275 21.9138 9.09456 22.104 9.24899 22.2564C9.40343 22.4087 9.5951 22.518 9.8049 22.5732C10.0147 22.6284 10.2353 22.6276 10.4447 22.571C10.6542 22.5144 10.8451 22.4038 10.9985 22.2504C11.1928 22.0488 11.4258 21.8884 11.6835 21.7788C11.9412 21.6692 12.2184 21.6128 12.4985 21.6128C12.7785 21.6128 13.0557 21.6692 13.3134 21.7788C13.5712 21.8884 13.8041 22.0488 13.9985 22.2504C14.1526 22.4081 14.3459 22.5218 14.5586 22.5799C14.7713 22.6381 14.9956 22.6385 15.2085 22.5813C15.4214 22.524 15.6152 22.411 15.7699 22.254C15.9247 22.097 16.0349 21.9016 16.0891 21.6879C16.1565 21.4176 16.2774 21.1635 16.4448 20.9408C16.6123 20.718 16.8227 20.5312 17.0636 20.3913C17.3046 20.2514 17.5712 20.1613 17.8476 20.1264C18.124 20.0915 18.4047 20.1124 18.6728 20.1879C18.885 20.248 19.1093 20.2503 19.3227 20.1947C19.5361 20.1391 19.7308 20.0277 19.8867 19.8717C20.0426 19.7158 20.1541 19.5212 20.2096 19.3078C20.2652 19.0944 20.2629 18.8701 20.2028 18.6579C20.1273 18.3897 20.1064 18.1091 20.1413 17.8327C20.1763 17.5563 20.2663 17.2897 20.4062 17.0487C20.5461 16.8077 20.733 16.5973 20.9557 16.4299C21.1784 16.2625 21.4325 16.1416 21.7028 16.0742C21.9119 16.0161 22.1021 15.9043 22.2544 15.7499C22.4068 15.5955 22.516 15.4038 22.5712 15.194C22.6264 14.9842 22.6257 14.7636 22.569 14.5542C22.5124 14.3447 22.4019 14.1538 22.2485 14.0004C22.0472 13.8062 21.8876 13.573 21.7793 13.3152C21.671 13.0573 21.6163 12.7801 21.6185 12.5004ZM21.8566 15.0073C21.8341 15.0924 21.7889 15.1699 21.7259 15.2313C21.6628 15.2927 21.5842 15.3358 21.4985 15.356C21.1317 15.4496 20.7874 15.6157 20.486 15.8445C20.1845 16.0733 19.9319 16.3603 19.7431 16.6883C19.5544 17.0164 19.4333 17.3789 19.3869 17.7546C19.3406 18.1302 19.37 18.5113 19.4735 18.8754C19.4965 18.9586 19.4971 19.0463 19.4751 19.1298C19.4531 19.2132 19.4094 19.2893 19.3484 19.3503C19.2874 19.4114 19.2113 19.4551 19.1278 19.4771C19.0444 19.499 18.9566 19.4985 18.8735 19.4754C18.5094 19.372 18.1283 19.3426 17.7526 19.3889C17.377 19.4352 17.0144 19.5563 16.6864 19.7451C16.3583 19.9338 16.0714 20.1864 15.8426 20.4879C15.6137 20.7894 15.4477 21.1337 15.3541 21.5004C15.333 21.5851 15.2895 21.6625 15.2281 21.7245C15.1667 21.7866 15.0898 21.8309 15.0053 21.8529C14.9212 21.8754 14.8325 21.8751 14.7485 21.852C14.6645 21.829 14.5881 21.784 14.5272 21.7217C14.2635 21.4504 13.9481 21.2348 13.5997 21.0876C13.2512 20.9403 12.8768 20.8645 12.4985 20.8645C12.1202 20.8645 11.7457 20.9403 11.3973 21.0876C11.0488 21.2348 10.7334 21.4504 10.4697 21.7217C10.4088 21.7839 10.3324 21.8289 10.2484 21.8519C10.1644 21.8749 10.0758 21.8752 9.99164 21.8526C9.9075 21.8301 9.83085 21.7856 9.76956 21.7237C9.70827 21.6619 9.66454 21.5848 9.64285 21.5004C9.54929 21.1337 9.3832 20.7894 9.15437 20.4879C8.92555 20.1864 8.63864 19.9338 8.31058 19.7451C7.98252 19.5563 7.61996 19.4352 7.24432 19.3889C6.86867 19.3426 6.48756 19.372 6.12347 19.4754C6.04032 19.4985 5.95255 19.499 5.86911 19.4771C5.78567 19.4551 5.70956 19.4114 5.64854 19.3503C5.58753 19.2893 5.54381 19.2132 5.52183 19.1298C5.49986 19.0463 5.50042 18.9586 5.52347 18.8754C5.62689 18.5113 5.65632 18.1302 5.61 17.7546C5.56369 17.3789 5.44257 17.0164 5.25381 16.6883C5.06505 16.3603 4.81247 16.0733 4.51098 15.8445C4.20949 15.6157 3.86521 15.4496 3.49847 15.356C3.41411 15.3344 3.33703 15.2906 3.27514 15.2293C3.21325 15.168 3.16877 15.0914 3.14625 15.0073C3.12374 14.9231 3.124 14.8345 3.14702 14.7505C3.17003 14.6665 3.21497 14.5901 3.27722 14.5292C3.54847 14.2655 3.76408 13.9501 3.91131 13.6016C4.05854 13.2532 4.1344 12.8787 4.1344 12.5004C4.1344 12.1221 4.05854 11.7477 3.91131 11.3992C3.76408 11.0508 3.54847 10.7354 3.27722 10.4717C3.21497 10.4108 3.17003 10.3344 3.14702 10.2504C3.124 10.1664 3.12374 10.0777 3.14625 9.99359C3.16877 9.90945 3.21325 9.8328 3.27514 9.77151C3.33703 9.71022 3.41411 9.66649 3.49847 9.6448C3.86521 9.55124 4.20949 9.38515 4.51098 9.15633C4.81247 8.9275 5.06505 8.64059 5.25381 8.31253C5.44257 7.98447 5.56369 7.62192 5.61 7.24627C5.65632 6.87063 5.62689 6.48951 5.52347 6.12542C5.50042 6.04227 5.49986 5.9545 5.52183 5.87106C5.54381 5.78762 5.58753 5.71151 5.64854 5.6505C5.70956 5.58949 5.78567 5.54576 5.86911 5.52379C5.95255 5.50181 6.04032 5.50238 6.12347 5.52542C6.48756 5.62885 6.86867 5.65827 7.24432 5.61196C7.61996 5.56564 7.98252 5.44453 8.31058 5.25577C8.63864 5.067 8.92555 4.81442 9.15437 4.51294C9.3832 4.21145 9.54929 3.86717 9.64285 3.50042C9.66454 3.41606 9.70827 3.33899 9.76956 3.2771C9.83085 3.2152 9.9075 3.17072 9.99164 3.14821C10.0758 3.12569 10.1644 3.12595 10.2484 3.14897C10.3324 3.17198 10.4088 3.21692 10.4697 3.27917C10.7334 3.55042 11.0488 3.76603 11.3973 3.91327C11.7457 4.0605 12.1202 4.13636 12.4985 4.13636C12.8768 4.13636 13.2512 4.0605 13.5997 3.91327C13.9481 3.76603 14.2635 3.55042 14.5272 3.27917C14.5881 3.21692 14.6645 3.17198 14.7485 3.14897C14.8325 3.12595 14.9212 3.12569 15.0053 3.14821C15.0894 3.17072 15.1661 3.2152 15.2274 3.2771C15.2887 3.33899 15.3324 3.41606 15.3541 3.50042C15.4477 3.86717 15.6137 4.21145 15.8426 4.51294C16.0714 4.81442 16.3583 5.067 16.6864 5.25577C17.0144 5.44453 17.377 5.56564 17.7526 5.61196C18.1283 5.65827 18.5094 5.62885 18.8735 5.52542C18.9566 5.50238 19.0444 5.50181 19.1278 5.52379C19.2113 5.54576 19.2874 5.58949 19.3484 5.6505C19.4094 5.71151 19.4531 5.78762 19.4751 5.87106C19.4971 5.9545 19.4965 6.04227 19.4735 6.12542C19.37 6.48951 19.3406 6.87063 19.3869 7.24627C19.4333 7.62192 19.5544 7.98447 19.7431 8.31253C19.9319 8.64059 20.1845 8.9275 20.486 9.15633C20.7874 9.38515 21.1317 9.55124 21.4985 9.6448C21.5828 9.66649 21.6599 9.71022 21.7218 9.77151C21.7837 9.8328 21.8282 9.90945 21.8507 9.99359C21.8732 10.0777 21.8729 10.1664 21.8499 10.2504C21.8269 10.3344 21.782 10.4108 21.7197 10.4717C21.4485 10.7354 21.2329 11.0508 21.0856 11.3992C20.9384 11.7477 20.8625 12.1221 20.8625 12.5004C20.8625 12.8787 20.9384 13.2532 21.0856 13.6016C21.2329 13.9501 21.4485 14.2655 21.7197 14.5292C21.7833 14.5892 21.8296 14.6653 21.8537 14.7495C21.8778 14.8336 21.8788 14.9227 21.8566 15.0073Z" fill="white"/>
</svg>
