<svg width="24" height="24" viewBox="0 0 24 24" fill="none" xmlns="http://www.w3.org/2000/svg">
<path d="M21.2235 9.73064C21.6868 8.81418 21.495 7.72626 20.7462 7.02356L19.6934 6.03543C19.4582 5.8147 19.3205 5.57615 19.2469 5.262L18.9175 3.85622C18.6833 2.85637 17.8371 2.14631 16.8118 2.08926L15.3702 2.00911C15.048 1.9912 14.7892 1.89698 14.5309 1.70367L13.375 0.838449C12.5528 0.223121 11.4482 0.223121 10.6261 0.838449L9.4702 1.70362C9.21187 1.89698 8.95303 1.9912 8.63091 2.00911L7.18931 2.08926C6.16397 2.14631 5.31773 2.85637 5.08355 3.85622L4.75425 5.262C4.68065 5.57615 4.54294 5.8147 4.30772 6.03543L3.2549 7.02356C2.50612 7.72631 2.31431 8.81418 2.77758 9.73064L3.42895 11.0192C3.5745 11.3072 3.62231 11.5784 3.58406 11.8988L3.41273 13.3324C3.29086 14.352 3.84319 15.3087 4.78715 15.713L5.87278 16.178L3.65287 20.946C3.56676 21.131 3.59039 21.3465 3.71447 21.5084C3.83859 21.6705 4.04062 21.7492 4.24162 21.7141L6.57361 21.3067L7.76301 23.3534C7.86131 23.5226 8.04028 23.625 8.23444 23.625C8.24283 23.625 8.25122 23.6248 8.2597 23.6244C8.46356 23.6152 8.6437 23.4945 8.72986 23.3095L10.8264 18.8062L11.554 18.5864C11.8628 18.4931 12.1383 18.4931 12.4471 18.5864L13.1746 18.8063L15.2712 23.3096C15.3573 23.4946 15.5375 23.6152 15.7412 23.6245C15.7497 23.6249 15.7581 23.625 15.7665 23.625C15.9607 23.625 16.1397 23.5226 16.238 23.3535L17.4274 21.3067L19.7594 21.7141C19.9605 21.7493 20.1625 21.6704 20.2866 21.5085C20.4107 21.3465 20.4343 21.131 20.3482 20.946L18.1284 16.178L19.2141 15.7131C20.158 15.3088 20.7104 14.3521 20.5885 13.3325L20.4171 11.8988C20.3789 11.5785 20.4267 11.3072 20.5722 11.0193L21.2235 9.73064ZM8.21498 22.6384L7.09083 20.7038C7.01194 20.5681 6.85697 20.4958 6.70204 20.5229L4.49794 20.9079L6.53076 16.5415C6.63014 16.6299 6.71822 16.7327 6.79851 16.8555L7.58878 18.0639C8.09447 18.8371 8.98542 19.2202 9.87497 19.073L8.21498 22.6384ZM17.299 20.5229C17.1443 20.4957 16.9891 20.568 16.9102 20.7038L15.7861 22.6384L14.1261 19.0729C14.2518 19.0937 14.3776 19.1043 14.5024 19.1043C15.2598 19.1043 15.9781 18.7277 16.4122 18.0639L17.2025 16.8555C17.2828 16.7327 17.3709 16.6299 17.4703 16.5415L19.5031 20.9079L17.299 20.5229ZM19.9028 10.6809C19.6924 11.0972 19.617 11.5246 19.6723 11.9878L19.8437 13.4214C19.927 14.1184 19.5639 14.7472 18.9187 15.0236L17.5914 15.592C17.1627 15.7756 16.8301 16.0546 16.5749 16.445L15.7846 17.6534C15.4004 18.2408 14.718 18.4892 14.0462 18.2862L12.6641 17.8685C12.4408 17.801 12.2207 17.7673 12.0006 17.7673C11.7804 17.7673 11.5603 17.801 11.337 17.8685L9.95494 18.2862C9.28312 18.4891 8.60072 18.2408 8.21653 17.6534L7.42626 16.4451C7.17103 16.0547 6.8385 15.7757 6.40964 15.592L5.08242 15.0236C4.43719 14.7472 4.07409 14.1183 4.15744 13.4214L4.32876 11.9878C4.38412 11.5246 4.30875 11.0971 4.09833 10.6808L3.44695 9.39225C3.13031 8.76581 3.2564 8.05068 3.76819 7.57036L4.821 6.58223C5.16108 6.26301 5.37811 5.88707 5.48447 5.43295L5.81376 4.02717C5.97384 3.34378 6.53015 2.877 7.23098 2.838L8.67258 2.75784C9.13828 2.73192 9.54619 2.58346 9.91964 2.30395L11.0755 1.43873C11.6374 1.01821 12.3636 1.01817 12.9255 1.43873L14.0814 2.304C14.4549 2.58351 14.8628 2.73196 15.3285 2.75789L16.7701 2.83804C17.4709 2.87704 18.0272 3.34378 18.1873 4.02722L18.5166 5.433C18.623 5.88717 18.84 6.26311 19.1801 6.58228L20.2329 7.5704C20.7447 8.05078 20.8708 8.76585 20.5541 9.39229L19.9028 10.6809ZM12.0005 3.45271C8.53364 3.45271 5.71308 6.27323 5.71308 9.7401C5.71308 13.207 8.53359 16.0275 12.0005 16.0275C15.4674 16.0275 18.2879 13.207 18.2879 9.7401C18.288 6.27323 15.4674 3.45271 12.0005 3.45271ZM12.0005 15.2775C8.94717 15.2775 6.46308 12.7934 6.46308 9.7401C6.46308 6.68676 8.94717 4.20271 12.0005 4.20271C15.0539 4.20271 17.5379 6.68681 17.5379 9.7401C17.538 12.7934 15.0539 15.2775 12.0005 15.2775ZM13.3683 9.82101C13.8318 9.43064 14.1271 8.84648 14.1271 8.1944C14.1271 7.02182 13.1731 6.06787 12.0006 6.06787C10.828 6.06787 9.87403 7.02182 9.87403 8.1944C9.87403 8.84643 10.1693 9.43059 10.6328 9.82101C9.31701 10.3203 8.3414 11.5215 8.18348 12.9974C8.17219 13.1032 8.20631 13.2089 8.27742 13.288C8.34853 13.3672 8.44992 13.4123 8.55633 13.4123H15.4447C15.5512 13.4123 15.6525 13.3672 15.7237 13.288C15.7948 13.2089 15.8289 13.1032 15.8176 12.9974C15.6597 11.5215 14.6841 10.3204 13.3683 9.82101ZM10.624 8.1944C10.624 7.4354 11.2415 6.81787 12.0006 6.81787C12.7596 6.81787 13.3771 7.43536 13.3771 8.1944C13.3771 8.95312 12.7601 9.57037 12.0015 9.57089C12.0012 9.57089 12.0009 9.57089 12.0006 9.57089C12.0002 9.57089 12 9.57089 11.9996 9.57089C11.241 9.57042 10.624 8.95312 10.624 8.1944ZM9.00211 12.6623C9.33745 11.3022 10.5599 10.3214 11.9996 10.3209C11.9999 10.3209 12.0002 10.321 12.0006 10.321C12.0009 10.321 12.0012 10.3209 12.0015 10.3209C13.4412 10.3214 14.6636 11.3023 14.999 12.6623H9.00211Z" fill="white"/>
</svg>
