<svg width="24" height="24" viewBox="0 0 24 24" fill="none" xmlns="http://www.w3.org/2000/svg">
<path d="M21.7504 9.00001H19.8379C19.8604 8.64001 19.8735 8.26688 19.8754 7.87501C19.8757 7.82565 19.8662 7.77673 19.8476 7.73104C19.8289 7.68535 19.8014 7.6438 19.7667 7.60876C19.7316 7.574 19.6901 7.5465 19.6444 7.52784C19.5987 7.50918 19.5498 7.49972 19.5004 7.50001H11.2504C11.2009 7.49997 11.1519 7.50972 11.1062 7.52871C11.0605 7.54769 11.0191 7.57554 10.9842 7.61063C10.9144 7.68094 10.8753 7.77598 10.8754 7.87501C10.8754 8.26501 10.8904 8.63813 10.9129 9.00001H9.00042C8.90097 9.00001 8.80559 9.03951 8.73526 9.10984C8.66493 9.18017 8.62542 9.27555 8.62542 9.37501C8.6041 11.4305 9.38736 13.4129 10.8079 14.8988C10.8771 14.9635 10.9682 14.9997 11.0629 15C11.1143 14.9998 11.1652 14.9891 11.2123 14.9685C11.2594 14.9478 11.3017 14.9177 11.3367 14.88C11.4041 14.8073 11.44 14.7108 11.4364 14.6118C11.4329 14.5127 11.3903 14.419 11.3179 14.3513C10.145 13.0974 9.45933 11.4653 9.3848 9.75001H10.9748C11.4867 14.6381 13.851 16.6069 15.0004 16.9894V17.985C14.1585 18.315 12.6454 19.485 12.5085 20.5781C12.5019 20.6312 12.5066 20.685 12.5224 20.7361C12.5383 20.7871 12.5648 20.8342 12.6003 20.8742C12.6358 20.9141 12.6795 20.946 12.7283 20.9677C12.7772 20.9894 12.8301 21.0004 12.8835 21H17.8692C17.9226 21.0004 17.9755 20.9894 18.0244 20.9677C18.0732 20.946 18.1169 20.9141 18.1524 20.8742C18.1879 20.8342 18.2145 20.7871 18.2303 20.7361C18.2461 20.685 18.2509 20.6312 18.2442 20.5781C18.1073 19.485 16.5942 18.315 15.7523 17.985V16.9894C16.9017 16.6144 19.266 14.6381 19.7779 9.75001H21.3754C21.2966 11.4647 20.6108 13.0956 19.4404 14.3513C19.3683 14.4193 19.326 14.5131 19.3229 14.6121C19.3197 14.7112 19.3559 14.8075 19.4235 14.88C19.4574 14.9166 19.4983 14.946 19.5437 14.9666C19.589 14.9872 19.6381 14.9986 19.6879 15C19.7827 14.9997 19.8738 14.9635 19.9429 14.8988C21.3635 13.4129 22.1468 11.4305 22.1254 9.37501C22.1254 9.27555 22.0859 9.18017 22.0156 9.10984C21.9453 9.03951 21.8499 9.00001 21.7504 9.00001ZM17.3442 20.25H13.4067C13.8473 19.4831 15.0717 18.705 15.3754 18.645C15.6792 18.705 16.9035 19.4831 17.3442 20.25ZM15.3754 16.3125C14.9423 16.3125 11.781 14.5988 11.6254 8.25001H19.1254C18.9698 14.5988 15.8085 16.3125 15.3754 16.3125Z" fill="white"/>
<path d="M13.0009 17.6831C13.0807 17.6237 13.1337 17.535 13.1481 17.4365C13.1625 17.3381 13.1372 17.2379 13.0778 17.1581C13.0184 17.0783 12.9297 17.0253 12.8312 17.0109C12.7327 16.9965 12.6326 17.0218 12.5528 17.0812L12.3053 17.2687C11.6082 17.7833 10.8701 18.2399 10.0984 18.6337C9.33715 18.2587 6.00528 16.4381 4.58215 13.5956C3.41028 11.25 3.70278 6.51371 3.80215 5.28184C4.93098 5.10446 6.03284 4.78505 7.08153 4.33121C8.16195 3.87517 9.17656 3.27675 10.0984 2.55184C11.0202 3.27675 12.0349 3.87517 13.1153 4.33121C14.1636 4.78597 15.2656 5.10541 16.3947 5.28184C16.4134 5.51246 16.4397 5.86309 16.4603 6.29434C16.4651 6.39051 16.5067 6.48114 16.5765 6.54746C16.6463 6.61378 16.739 6.65071 16.8353 6.65059C16.8873 6.64869 16.9385 6.63638 16.9857 6.61439C17.0329 6.59239 17.0753 6.56116 17.1102 6.52254C17.1452 6.48391 17.172 6.43868 17.1892 6.3895C17.2064 6.34032 17.2136 6.2882 17.2103 6.23621C17.1709 5.43934 17.1184 4.92371 17.1165 4.90871C17.1076 4.82148 17.0684 4.74013 17.0057 4.67881C16.943 4.6175 16.8608 4.58009 16.7734 4.57309C15.6128 4.42449 14.4798 4.10872 13.4097 3.63559C12.3025 3.17595 11.2709 2.55207 10.3497 1.78496C10.2806 1.72225 10.1907 1.6875 10.0975 1.6875C10.0042 1.6875 9.9143 1.72225 9.84528 1.78496C8.92613 2.55403 7.89566 3.17927 6.78903 3.63934C5.71851 4.11146 4.58567 4.42719 3.42528 4.57684C3.33787 4.58384 3.25567 4.62125 3.19299 4.68256C3.1303 4.74388 3.09108 4.82523 3.08215 4.91246C3.0559 5.16184 2.46715 11.0512 3.9109 13.9312C5.6359 17.37 9.76653 19.3125 9.93903 19.3875C9.98843 19.4103 10.0421 19.4224 10.0965 19.4231C10.1505 19.4233 10.2037 19.4111 10.2522 19.3875C11.1315 18.9607 11.9684 18.4516 12.7515 17.8668L13.0009 17.6831Z" fill="white"/>
</svg>
