<svg width="25" height="25" viewBox="0 0 25 25" fill="none" xmlns="http://www.w3.org/2000/svg">
<g clip-path="url(#clip0_271_1787)">
<path d="M5 1.625C5 1.41763 4.83238 1.25 4.625 1.25C4.41762 1.25 4.25 1.41763 4.25 1.625C4.25 3.78575 2.90038 3.872 2.75 3.875H2.74775C2.74737 3.87462 2.74625 3.87462 2.74512 3.875C2.74475 3.875 2.74438 3.875 2.74438 3.875C2.744 3.875 2.74362 3.875 2.74325 3.875C2.53925 3.87875 2.375 4.04525 2.375 4.25C2.375 4.45625 2.54113 4.6235 2.747 4.625C2.903 4.628 4.25 4.7165 4.25 6.875C4.25 7.08238 4.41762 7.25 4.625 7.25C4.83238 7.25 5 7.08238 5 6.875C5 4.7165 6.347 4.628 6.503 4.625H6.50488H6.50562H6.506H6.50675C6.71075 4.62125 6.875 4.45475 6.875 4.25C6.875 4.04375 6.70887 3.8765 6.503 3.875C6.347 3.872 5 3.7835 5 1.625ZM4.625 5.10312C4.41425 4.70187 4.13863 4.43187 3.8645 4.25C4.13863 4.06813 4.41425 3.79813 4.625 3.39687C4.83575 3.79813 5.11137 4.06813 5.3855 4.25C5.11137 4.43187 4.83575 4.70187 4.625 5.10312Z" fill="white"/>
<path d="M20.753 9.875C20.597 9.872 19.25 9.7835 19.25 7.625C19.25 7.41763 19.0824 7.25 18.875 7.25C18.6676 7.25 18.5 7.41763 18.5 7.625C18.5 9.78575 17.1504 9.872 17 9.875H16.9977C16.9977 9.875 16.9959 9.875 16.9951 9.875C16.9947 9.875 16.9944 9.875 16.9944 9.875C16.994 9.875 16.9936 9.875 16.9932 9.875C16.7892 9.87875 16.625 10.0452 16.625 10.25C16.625 10.4562 16.7911 10.6235 16.997 10.625C17.153 10.628 18.5 10.7165 18.5 12.875C18.5 13.0824 18.6676 13.25 18.875 13.25C19.0824 13.25 19.25 13.0824 19.25 12.875C19.25 10.7165 20.597 10.628 20.753 10.625H20.7549H20.7556H20.7568C20.9608 10.6212 21.125 10.4548 21.125 10.25C21.125 10.0438 20.9589 9.8765 20.753 9.875ZM18.875 11.1031C18.6642 10.7019 18.3886 10.4319 18.1145 10.25C18.3886 10.0681 18.6642 9.79813 18.875 9.39688C19.0858 9.79813 19.3614 10.0681 19.6355 10.25C19.3614 10.4319 19.0858 10.7019 18.875 11.1031Z" fill="white"/>
<path d="M12.2283 8.11822C12.4222 8.11822 12.615 8.04434 12.7597 7.89959L15.3495 5.30984C15.642 5.01772 15.642 4.54147 15.3495 4.24934L14.8192 3.71909C14.5271 3.42697 14.0508 3.42697 13.7587 3.71909L13.3488 4.12897C13.2022 4.27559 13.2022 4.51259 13.3488 4.65922C13.4955 4.80584 13.7325 4.80584 13.8791 4.65922L14.289 4.24934L14.8192 4.77959L12.2295 7.36934L10.7692 6.27434L11.2192 5.67397L11.6385 5.98822C11.934 6.21134 12.3558 6.18172 12.6187 5.91884L13.059 5.47859C13.2056 5.33197 13.2056 5.09497 13.059 4.94834C12.9123 4.80172 12.6753 4.80172 12.5287 4.94834L12.0885 5.38859L11.6692 5.07434C11.5087 4.95397 11.3122 4.90334 11.1131 4.93184C10.9151 4.96034 10.7396 5.06459 10.62 5.22397L10.1703 5.82359C10.05 5.98409 9.99896 6.18134 10.0271 6.37934C10.0552 6.57772 10.1595 6.75359 10.3196 6.87359L11.7798 7.96897C11.9126 8.06947 12.0705 8.11822 12.2283 8.11822Z" fill="white"/>
<path d="M24.125 18.875H20.75V14.375C20.75 14.1676 20.5824 14 20.375 14H15.875V9.5C15.875 9.29263 15.7074 9.125 15.5 9.125H15.0061C16.346 7.11425 16.8215 4.94975 16.9899 3.64813C17.0334 3.311 16.937 2.98137 16.7188 2.71925C16.49 2.44513 16.1484 2.27675 15.7816 2.25762C15.2004 2.22762 14.3266 1.976 13.466 0.948125C13.2275 0.6635 12.8754 0.5 12.5 0.5C12.1246 0.5 11.7725 0.6635 11.5336 0.94775V0.948125C10.673 1.97563 9.79925 2.22725 9.218 2.25725C8.85087 2.27675 8.50963 2.44475 8.28088 2.71887C8.06263 2.98062 7.96625 3.31025 8.00975 3.64775C8.17812 4.94938 8.654 7.11388 9.99387 9.12463H9.5C9.29263 9.12463 9.125 9.29225 9.125 9.49963V13.9996H7.41462C7.706 13.2943 8.29025 13.2519 8.37875 13.2496H8.37988C8.37988 13.2496 8.38025 13.2496 8.38062 13.2496H8.381C8.58537 13.2466 8.75 13.0801 8.75 12.875C8.75 12.6691 8.58425 12.5019 8.37875 12.5C8.26025 12.497 7.25 12.4235 7.25 10.775C7.25 10.5676 7.08238 10.4 6.875 10.4C6.66762 10.4 6.5 10.5676 6.5 10.775C6.5 12.4257 5.48637 12.4974 5.375 12.5H5.37387H5.37275C5.37275 12.5 5.372 12.5 5.37125 12.5C5.37087 12.5 5.3705 12.5 5.37013 12.5C5.36975 12.5 5.36975 12.5 5.36937 12.5C5.165 12.5034 5 12.6699 5 12.875C5 13.0809 5.16575 13.2481 5.37125 13.25C5.45937 13.2522 6.044 13.2946 6.33537 14H4.625C4.41762 14 4.25 14.1676 4.25 14.375V18.875H0.875C0.667625 18.875 0.5 19.0426 0.5 19.25V24.125C0.5 24.3324 0.667625 24.5 0.875 24.5H24.125C24.3324 24.5 24.5 24.3324 24.5 24.125V19.25C24.5 19.0426 24.3324 18.875 24.125 18.875ZM8.85687 3.19925C8.95212 3.08487 9.098 3.01475 9.25663 3.0065C9.98675 2.96825 11.0746 2.66412 12.1081 1.42925V1.42963C12.2994 1.20125 12.6999 1.20162 12.8911 1.42925C13.925 2.66412 15.0125 2.96825 15.7426 3.0065C15.9016 3.01437 16.0471 3.08487 16.1424 3.19925C16.2009 3.26975 16.2665 3.38825 16.2451 3.55175C16.0344 5.1845 15.3129 8.2565 12.8555 10.4889C12.6556 10.6704 12.3425 10.6704 12.1434 10.4889C9.68563 8.2565 8.96413 5.18412 8.75338 3.55175C8.73275 3.38825 8.79838 3.27012 8.85687 3.19925ZM6.875 12.3466C7.01525 12.5761 7.18213 12.7471 7.35275 12.875C7.18213 13.0029 7.01525 13.1739 6.875 13.4034C6.73475 13.1739 6.56787 13.0029 6.39725 12.875C6.56787 12.7471 6.73475 12.5761 6.875 12.3466ZM1.25 19.625H4.25V23.75H1.25V19.625ZM5 14.75H6.49137C6.49587 14.8224 6.5 14.8951 6.5 14.975C6.5 15.1824 6.66762 15.35 6.875 15.35C7.08238 15.35 7.25 15.1824 7.25 14.975C7.25 14.8955 7.25413 14.8228 7.25863 14.75H9.125V23.75H5V14.75ZM9.875 9.875H10.5481C10.8721 10.2793 11.231 10.673 11.6397 11.0443C11.8809 11.2633 12.1906 11.3727 12.5 11.3727C12.8094 11.3727 13.1191 11.2633 13.3606 11.0443C13.7694 10.673 14.1283 10.2793 14.4523 9.875H15.125V19.4251C15.125 19.6325 15.2926 19.8001 15.5 19.8001C15.7074 19.8001 15.875 19.6325 15.875 19.4251V14.75H20V23.75H15.875V21.1775C15.875 20.9701 15.7074 20.8025 15.5 20.8025C15.2926 20.8025 15.125 20.9701 15.125 21.1775V23.75H9.875V9.875ZM23.75 23.75H20.75V19.625H23.75V23.75Z" fill="white"/>
</g>
<defs>
<clipPath id="clip0_271_1787">
<rect width="24" height="24" fill="white" transform="translate(0.5 0.5)"/>
</clipPath>
</defs>
</svg>
