<svg width="24" height="24" viewBox="0 0 24 24" fill="none" xmlns="http://www.w3.org/2000/svg">
<path d="M11.2502 12.375C10.6804 12.3815 10.128 12.572 9.67528 12.9179C9.22254 13.2639 8.89368 13.7468 8.7377 14.2949C8.58173 14.8429 8.60698 15.4266 8.80969 15.9592C9.01241 16.4917 9.38174 16.9444 9.86267 17.25L9.59079 19.8281C9.58525 19.8806 9.59084 19.9336 9.60719 19.9837C9.62354 20.0339 9.65028 20.08 9.68567 20.1191C9.72106 20.1582 9.7643 20.1894 9.81257 20.2107C9.86084 20.232 9.91305 20.2428 9.96579 20.2425H12.5364C12.5892 20.2428 12.6414 20.232 12.6896 20.2107C12.7379 20.1894 12.7811 20.1582 12.8165 20.1191C12.8519 20.08 12.8787 20.0339 12.895 19.9837C12.9114 19.9336 12.917 19.8806 12.9114 19.8281L12.6377 17.25C13.1186 16.9444 13.4879 16.4917 13.6906 15.9592C13.8934 15.4266 13.9186 14.8429 13.7626 14.2949C13.6067 13.7468 13.2778 13.2639 12.8251 12.9179C12.3723 12.572 11.8199 12.3815 11.2502 12.375ZM12.0733 16.7156C12.0048 16.7496 11.9483 16.8038 11.9114 16.8708C11.8746 16.9378 11.8591 17.0145 11.867 17.0906L12.1202 19.5H10.3802L10.6333 17.0906C10.6413 17.0145 10.6258 16.9378 10.5889 16.8708C10.552 16.8038 10.4956 16.7496 10.427 16.7156C10.0462 16.5296 9.73967 16.2199 9.5574 15.8373C9.37512 15.4546 9.32788 15.0215 9.42337 14.6085C9.51886 14.1956 9.75145 13.8272 10.0832 13.5634C10.415 13.2996 10.8263 13.156 11.2502 13.156C11.674 13.156 12.0854 13.2996 12.4171 13.5634C12.7489 13.8272 12.9815 14.1956 13.077 14.6085C13.1725 15.0215 13.1252 15.4546 12.9429 15.8373C12.7607 16.2199 12.4541 16.5296 12.0733 16.7156Z" fill="white"/>
<path d="M18.375 1.5C18.2755 1.5 18.1802 1.53951 18.1098 1.60984C18.0395 1.68016 18 1.77554 18 1.875C18 1.97446 18.0395 2.06984 18.1098 2.14016C18.1802 2.21049 18.2755 2.25 18.375 2.25C19.0712 2.25 19.7389 2.52656 20.2312 3.01884C20.7234 3.51113 21 4.17881 21 4.875C21 4.97446 21.0395 5.06984 21.1098 5.14016C21.1802 5.21049 21.2755 5.25 21.375 5.25C21.4745 5.25 21.5698 5.21049 21.6402 5.14016C21.7105 5.06984 21.75 4.97446 21.75 4.875C21.75 3.97989 21.3944 3.12145 20.7615 2.48851C20.1285 1.85558 19.2701 1.5 18.375 1.5Z" fill="white"/>
<path d="M19.5 4.875C19.5 4.97446 19.5395 5.06984 19.6098 5.14016C19.6802 5.21049 19.7755 5.25 19.875 5.25C19.9745 5.25 20.0698 5.21049 20.1402 5.14016C20.2105 5.06984 20.25 4.97446 20.25 4.875C20.25 4.37772 20.0525 3.90081 19.7008 3.54917C19.3492 3.19754 18.8723 3 18.375 3C18.2755 3 18.1802 3.03951 18.1098 3.10984C18.0395 3.18016 18 3.27554 18 3.375C18 3.47446 18.0395 3.56984 18.1098 3.64016C18.1802 3.71049 18.2755 3.75 18.375 3.75C18.6734 3.75 18.9595 3.86853 19.1705 4.0795C19.3815 4.29048 19.5 4.57663 19.5 4.875Z" fill="white"/>
<path d="M18.375 0C18.2755 0 18.1802 0.0395088 18.1098 0.109835C18.0395 0.180161 18 0.275544 18 0.375C18 0.474456 18.0395 0.569839 18.1098 0.640165C18.1802 0.710491 18.2755 0.75 18.375 0.75C19.469 0.75 20.5182 1.1846 21.2918 1.95818C22.0654 2.73177 22.5 3.78098 22.5 4.875C22.5 4.97446 22.5395 5.06984 22.6098 5.14016C22.6802 5.21049 22.7755 5.25 22.875 5.25C22.9745 5.25 23.0698 5.21049 23.1402 5.14016C23.2105 5.06984 23.25 4.97446 23.25 4.875C23.25 3.58207 22.7364 2.34209 21.8221 1.42785C20.9079 0.513615 19.6679 0 18.375 0Z" fill="white"/>
<path d="M18.375 8.25H18V6.4575C18 2.89687 14.9719 0 11.25 0C7.52812 0 4.5 2.89687 4.5 6.4575V8.25H4.125C3.42881 8.25 2.76113 8.52656 2.26884 9.01884C1.77656 9.51113 1.5 10.1788 1.5 10.875V18.6562C1.5 20.0725 2.06223 21.4309 3.06316 22.4329C4.06409 23.4349 5.42185 23.9985 6.83813 24H15.6619C17.0772 23.9985 18.4341 23.4356 19.4349 22.4349C20.4356 21.4341 20.9985 20.0772 21 18.6619V10.875C21 10.1788 20.7234 9.51113 20.2312 9.01884C19.7389 8.52656 19.0712 8.25 18.375 8.25ZM5.25 6.4575C5.25 3.30937 7.94063 0.75 11.25 0.75C14.5594 0.75 17.25 3.30937 17.25 6.4575V8.25H15.75V6.76312C15.7509 6.17218 15.6353 5.58684 15.41 5.04055C15.1846 4.49426 14.8539 3.9977 14.4366 3.57922C14.0194 3.16075 13.5238 2.82856 12.9781 2.60162C12.4325 2.37467 11.8475 2.25742 11.2566 2.25656C10.6656 2.2557 10.0803 2.37124 9.53399 2.59659C8.98769 2.82194 8.49113 3.15269 8.07266 3.56994C7.65419 3.9872 7.322 4.48279 7.09505 5.02842C6.86811 5.57406 6.75086 6.15905 6.75 6.75V8.25H5.25V6.4575ZM7.5 8.25V6.75C7.50086 6.25754 7.59871 5.77008 7.78796 5.31544C7.97721 4.8608 8.25416 4.44788 8.60299 4.10027C8.95182 3.75266 9.3657 3.47716 9.821 3.2895C10.2763 3.10184 10.7641 3.0057 11.2566 3.00656C11.749 3.00742 12.2365 3.10527 12.6911 3.29453C13.1458 3.48378 13.5587 3.76072 13.9063 4.10955C14.2539 4.45838 14.5294 4.87226 14.7171 5.32756C14.9047 5.78286 15.0009 6.27067 15 6.76312V8.25H7.5ZM20.25 18.6619C20.2485 19.8783 19.7646 21.0444 18.9045 21.9045C18.0444 22.7646 16.8783 23.2485 15.6619 23.25H6.83813C5.62174 23.2485 4.45559 22.7646 3.59547 21.9045C2.73536 21.0444 2.25149 19.8783 2.25 18.6619V10.875C2.25 10.3777 2.44754 9.90081 2.79917 9.54918C3.15081 9.19754 3.62772 9 4.125 9H18.375C18.8723 9 19.3492 9.19754 19.7008 9.54918C20.0525 9.90081 20.25 10.3777 20.25 10.875V18.6619Z" fill="white"/>
</svg>
