<svg width="25" height="25" viewBox="0 0 25 25" fill="none" xmlns="http://www.w3.org/2000/svg">
<g clip-path="url(#clip0_271_1815)">
<path d="M12.5214 0.5C12.0541 0.5 11.5853 0.539734 11.1283 0.618285C10.9372 0.651061 10.8088 0.832701 10.8416 1.02386C10.8744 1.21521 11.0562 1.34356 11.2472 1.31079C11.665 1.23901 12.0938 1.20257 12.5214 1.20257C16.6432 1.20257 19.9966 4.55594 19.9966 8.67781C19.9966 10.4059 19.3603 12.1121 18.2049 13.4817C17.8503 13.9021 17.4249 14.2654 17.0135 14.6166C16.1413 15.3617 15.2414 16.13 14.9733 17.4626H14.8891C14.901 17.3352 14.9235 17.1674 14.9653 16.956C15.0671 16.4389 15.3075 15.5495 15.8735 14.2482C16.1102 13.7038 15.9 13.0707 15.3844 12.775C15.0856 12.6037 14.7283 12.5734 14.4048 12.6918C14.0816 12.8101 13.8289 13.0633 13.7116 13.3867L13.6846 13.4612C13.6744 13.4892 13.6641 13.5176 13.6539 13.5458C12.7468 13.2935 11.845 13.4142 11.377 13.5121C11.3707 13.4951 11.3645 13.4781 11.3585 13.4612L11.3314 13.3867C11.214 13.0635 10.9613 12.8101 10.6381 12.6918C10.3146 12.5734 9.95755 12.6037 9.65854 12.775C9.14292 13.0707 8.93271 13.7038 9.16947 14.2482C9.19364 14.3039 9.21726 14.3588 9.24033 14.413C9.31632 14.5915 9.52249 14.6748 9.70102 14.5989C9.87954 14.523 9.96286 14.3167 9.88687 14.1382C9.86307 14.0821 9.83871 14.0254 9.81363 13.9679C9.72006 13.7525 9.80356 13.5017 10.0079 13.3845C10.1266 13.3166 10.2681 13.3045 10.3966 13.3515C10.5244 13.3984 10.6244 13.4986 10.6709 13.6264L10.698 13.7011C10.7387 13.8128 10.7804 13.9278 10.8225 14.0455L11.2461 15.3366C11.4248 15.9562 11.5859 16.6564 11.6921 17.4626H10.8593C10.8326 17.1182 10.7414 16.5398 10.4662 15.6788C10.4073 15.4941 10.2095 15.3921 10.0247 15.4512C9.83981 15.5103 9.73801 15.7079 9.79696 15.8929C10.0414 16.6573 10.1256 17.1684 10.1535 17.4626H10.068C9.7966 16.1682 8.85453 15.3221 7.94138 14.5022C7.50651 14.1118 7.09599 13.743 6.75816 13.3312C5.6383 11.9658 5.04632 10.3567 5.04632 8.67781C5.04632 7.15383 5.50189 5.68808 6.36376 4.43876C7.20585 3.21782 8.37607 2.28252 9.74771 1.73412C9.92788 1.66216 10.0154 1.45764 9.94345 1.27746C9.8713 1.09729 9.66696 1.00958 9.48679 1.08172C7.98625 1.68176 6.70635 2.70458 5.78533 4.03977C4.84234 5.40701 4.34375 7.01083 4.34375 8.67781C4.34375 10.5211 4.99084 12.2842 6.21508 13.7767C6.58678 14.2301 7.03685 14.6342 7.47191 15.0249C8.33671 15.8015 9.15647 16.5381 9.38132 17.6137C9.10941 17.786 8.92795 18.0888 8.92795 18.434V19.1545C8.92795 19.3828 9.0076 19.5925 9.13999 19.7586C9.0076 19.9246 8.92795 20.1343 8.92795 20.3626V21.0831C8.92795 21.5229 9.22202 21.895 9.62356 22.0142V22.2059C9.62356 23.471 10.6528 24.5 11.9177 24.5H13.1254C14.3903 24.5 15.4196 23.471 15.4196 22.2059V22.0142C15.8211 21.895 16.1152 21.5229 16.1152 21.0831V20.3626C16.1152 20.1343 16.0355 19.9246 15.9031 19.7586C16.0355 19.5925 16.1152 19.3828 16.1152 19.1545V18.434C16.1152 18.0883 15.9332 17.7849 15.6601 17.6128C15.8771 16.5117 16.6193 15.8775 17.47 15.1509C17.9028 14.7814 18.3503 14.3991 18.7422 13.9347C20.0043 12.4386 20.6994 10.5715 20.6994 8.67781C20.6992 4.1685 17.0307 0.5 12.5214 0.5ZM13.7965 15.3375L14.2037 14.0966C14.2059 14.0898 14.2076 14.0829 14.2094 14.0759C14.2554 13.9474 14.3008 13.8225 14.3449 13.7011L14.372 13.6264C14.4183 13.4986 14.5183 13.3984 14.6463 13.3515C14.7747 13.3045 14.9164 13.3166 15.035 13.3845C15.2394 13.5017 15.3229 13.7525 15.2291 13.9679C14.7395 15.094 14.4139 16.078 14.262 16.8928C14.2182 17.127 14.1953 17.3159 14.184 17.4626H13.3508C13.4569 16.6568 13.618 15.9571 13.7965 15.3375ZM11.6154 14.1812C12.0233 14.1047 12.7243 14.0281 13.4179 14.2094C13.3433 14.4258 13.2684 14.6531 13.1956 14.8922H11.8474C11.7712 14.6426 11.693 14.4062 11.6154 14.1812ZM12.9976 15.5948C12.8548 16.151 12.7296 16.7686 12.6426 17.4624H12.4002C12.3134 16.7686 12.1881 16.151 12.0451 15.5948H12.9976ZM14.7168 22.2059C14.7168 23.0834 14.0029 23.7973 13.1254 23.7973H11.9175C11.0401 23.7973 10.3261 23.0834 10.3261 22.2059V22.0545H14.7168V22.2059ZM15.4124 21.0829C15.4124 21.2313 15.2919 21.3519 15.1436 21.3519H9.89914C9.75101 21.3519 9.63034 21.2313 9.63034 21.0829V20.3626C9.63034 20.2546 9.69443 20.1616 9.78653 20.1187C9.82351 20.1231 9.86105 20.1259 9.89914 20.1259H15.1436C15.1817 20.1259 15.2192 20.1231 15.2562 20.1187C15.3483 20.1614 15.4124 20.2546 15.4124 20.3626V21.0829ZM15.4124 19.1545C15.4124 19.2625 15.3483 19.3555 15.2562 19.3982C15.2192 19.394 15.1819 19.3912 15.1436 19.3912H9.89914C9.86105 19.3912 9.82351 19.394 9.78653 19.3982C9.69461 19.3555 9.63034 19.2625 9.63034 19.1545V18.434C9.63034 18.2857 9.75101 18.1652 9.89932 18.1652H15.1436C15.2919 18.1652 15.4126 18.2857 15.4126 18.434V19.1545H15.4124Z" fill="white"/>
</g>
<defs>
<clipPath id="clip0_271_1815">
<rect width="24" height="24" fill="white" transform="translate(0.5 0.5)"/>
</clipPath>
</defs>
</svg>
