<svg width="24" height="24" viewBox="0 0 24 24" fill="none" xmlns="http://www.w3.org/2000/svg">
<g clip-path="url(#clip0_271_1528)">
<path d="M9.46952 16.8193C9.37887 16.8193 9.28755 16.7881 9.21304 16.7246L6.64906 14.5414C6.56062 14.466 6.50977 14.3559 6.50977 14.2396C6.50977 14.1235 6.56084 14.0134 6.64906 13.938L9.21304 11.7548C9.37953 11.6128 9.62961 11.6329 9.77156 11.7994C9.91329 11.9661 9.89339 12.2162 9.72667 12.3579L7.51714 14.2396L9.72667 16.1212C9.89339 16.2632 9.91329 16.5132 9.77156 16.6797C9.69306 16.7719 9.58163 16.8193 9.46952 16.8193Z" fill="white"/>
<path d="M14.5312 16.8193C14.4191 16.8193 14.3076 16.7719 14.2294 16.6797C14.0874 16.5132 14.1075 16.2632 14.274 16.1212L16.4836 14.2396L14.274 12.3579C14.1075 12.2162 14.0874 11.9661 14.2294 11.7994C14.3711 11.6329 14.6214 11.6128 14.7877 11.7548L17.3516 13.938C17.4401 14.0134 17.4909 14.1235 17.4909 14.2396C17.4909 14.3559 17.4401 14.466 17.3516 14.5414L14.7877 16.7246C14.7132 16.7881 14.6218 16.8193 14.5312 16.8193Z" fill="white"/>
<path d="M11.0922 18.4567C11.065 18.4567 11.0376 18.4538 11.0099 18.4481C10.7959 18.403 10.6588 18.1927 10.7039 17.9786L12.3019 10.3917C12.347 10.1777 12.557 10.0406 12.7713 10.0857C12.9853 10.1308 13.1224 10.3409 13.0773 10.5551L11.4793 18.142C11.44 18.3287 11.2755 18.4567 11.0922 18.4567Z" fill="white"/>
<path d="M21.3396 22.5897H2.66038C1.19354 22.5897 0 21.3964 0 19.9293V4.07542C0 2.60858 1.19354 1.41504 2.66038 1.41504H21.3396C22.8065 1.41504 24 2.60858 24 4.07542V19.9293C24 21.3964 22.8065 22.5897 21.3396 22.5897ZM2.66038 2.20749C1.63045 2.20749 0.792453 3.04549 0.792453 4.07542V19.9293C0.792453 20.9593 1.63045 21.7973 2.66038 21.7973H21.3396C22.3695 21.7973 23.2075 20.9593 23.2075 19.9293V4.07542C23.2075 3.04549 22.3695 2.20749 21.3396 2.20749H2.66038Z" fill="white"/>
<path d="M23.6038 7.76023H0.396226C0.177329 7.76023 0 7.5829 0 7.364C0 7.14532 0.177329 6.96777 0.396226 6.96777H23.6038C23.8227 6.96777 24 7.14532 24 7.364C24 7.5829 23.8227 7.76023 23.6038 7.76023Z" fill="white"/>
<path d="M6.76953 5.86426C6.07835 5.86426 5.51562 5.30154 5.51562 4.61035C5.51562 3.91895 6.07835 3.35645 6.76953 3.35645C7.46094 3.35645 8.02344 3.91895 8.02344 4.61035C8.02344 5.30154 7.46094 5.86426 6.76953 5.86426ZM6.76953 4.1489C6.51526 4.1489 6.30808 4.35586 6.30808 4.61035C6.30808 4.86485 6.51526 5.07181 6.76953 5.07181C7.02403 5.07181 7.23098 4.86485 7.23098 4.61035C7.23098 4.35586 7.02403 4.1489 6.76953 4.1489Z" fill="white"/>
<path d="M2.91797 5.85156C2.22656 5.85156 1.66406 5.28906 1.66406 4.59766C1.66406 3.90625 2.22656 3.34375 2.91797 3.34375C3.60938 3.34375 4.17188 3.90625 4.17188 4.59766C4.17188 5.28906 3.60938 5.85156 2.91797 5.85156ZM2.91797 4.1362C2.66369 4.1362 2.45652 4.34338 2.45652 4.59766C2.45652 4.85215 2.66369 5.05911 2.91797 5.05911C3.17246 5.05911 3.37942 4.85215 3.37942 4.59766C3.37942 4.34338 3.17246 4.1362 2.91797 4.1362Z" fill="white"/>
<path d="M10.6228 5.87576C9.93164 5.87576 9.36914 5.31326 9.36914 4.62185C9.36914 3.93066 9.93164 3.36816 10.6228 3.36816C11.3142 3.36816 11.8767 3.93066 11.8767 4.62185C11.8767 5.31326 11.3142 5.87576 10.6228 5.87576ZM10.6228 4.1604C10.3686 4.1604 10.1616 4.36735 10.1616 4.62185C10.1616 4.87635 10.3686 5.0833 10.6228 5.0833C10.8773 5.0833 11.0843 4.87635 11.0843 4.62185C11.0843 4.36735 10.8773 4.1604 10.6228 4.1604Z" fill="white"/>
</g>
<defs>
<clipPath id="clip0_271_1528">
<rect width="24" height="24" fill="white"/>
</clipPath>
</defs>
</svg>
