<svg width="133" height="48" viewBox="0 0 133 48" fill="none" xmlns="http://www.w3.org/2000/svg">
<path d="M26.8753 30.7229L20.3492 31.1401C15.7331 31.4351 13.1114 37.1114 16.1659 40.1659L20.1516 44.1516L40.304 23.9993L28.0859 11.7813L26.8753 30.7229Z" fill="url(#paint0_linear_93_3361)"/>
<path d="M13.4287 17.2763L19.9548 16.8592C24.5708 16.5642 27.1926 10.8879 24.1381 7.83342L20.1523 3.84766L0 24L12.218 36.218L13.4287 17.2763Z" fill="url(#paint1_linear_93_3361)"/>
<path d="M50.7047 38V10H53.7447L68.5247 32.94V10H71.3247V38H68.3047L53.5047 15.06V38H50.7047ZM76.1344 18H78.9344V38H76.1344V18ZM77.5544 14.5C77.101 14.5 76.7144 14.3533 76.3944 14.06C76.0877 13.7533 75.9344 13.3733 75.9344 12.92C75.9344 12.4667 76.0877 12.0933 76.3944 11.8C76.7144 11.4933 77.101 11.34 77.5544 11.34C77.9944 11.34 78.3677 11.4933 78.6744 11.8C78.9944 12.0933 79.1544 12.4667 79.1544 12.92C79.1544 13.3733 79.001 13.7533 78.6944 14.06C78.3877 14.3533 78.0077 14.5 77.5544 14.5ZM93.1381 38H89.5781L82.2781 17.94H85.2581L91.3581 34.72L97.4581 17.94H100.438L93.1381 38ZM103.752 18H106.552V38H103.752V18ZM105.172 14.5C104.718 14.5 104.332 14.3533 104.012 14.06C103.705 13.7533 103.552 13.3733 103.552 12.92C103.552 12.4667 103.705 12.0933 104.012 11.8C104.332 11.4933 104.718 11.34 105.172 11.34C105.612 11.34 105.985 11.4933 106.292 11.8C106.612 12.0933 106.772 12.4667 106.772 12.92C106.772 13.3733 106.618 13.7533 106.312 14.06C106.005 14.3533 105.625 14.5 105.172 14.5ZM127.613 18H130.413V38H127.613L127.513 34.28C126.86 35.5467 125.947 36.5733 124.773 37.36C123.6 38.1333 122.2 38.52 120.573 38.52C119.107 38.52 117.733 38.2467 116.453 37.7C115.173 37.14 114.047 36.3733 113.073 35.4C112.1 34.4267 111.34 33.3 110.793 32.02C110.247 30.74 109.973 29.3667 109.973 27.9C109.973 26.46 110.24 25.1067 110.773 23.84C111.32 22.5733 112.067 21.46 113.013 20.5C113.973 19.54 115.08 18.7933 116.333 18.26C117.6 17.7133 118.953 17.44 120.393 17.44C122.06 17.44 123.513 17.84 124.753 18.64C125.993 19.4267 126.98 20.46 127.713 21.74L127.613 18ZM120.513 35.8C121.94 35.8 123.167 35.4533 124.193 34.76C125.22 34.0533 126.007 33.1067 126.553 31.92C127.113 30.7333 127.393 29.4267 127.393 28C127.393 26.5333 127.113 25.2133 126.553 24.04C125.993 22.8533 125.2 21.9133 124.173 21.22C123.147 20.5267 121.927 20.18 120.513 20.18C119.1 20.18 117.807 20.5333 116.633 21.24C115.473 21.9333 114.547 22.8733 113.853 24.06C113.173 25.2467 112.833 26.56 112.833 28C112.833 29.4533 113.187 30.7733 113.893 31.96C114.6 33.1333 115.533 34.0667 116.693 34.76C117.867 35.4533 119.14 35.8 120.513 35.8Z" fill="#191919"/>
<defs>
<linearGradient id="paint0_linear_93_3361" x1="30.6157" y1="12.8716" x2="10.8675" y2="37.7455" gradientUnits="userSpaceOnUse">
<stop stop-color="#22D1EE"/>
<stop offset="1" stop-color="#C5FF41"/>
</linearGradient>
<linearGradient id="paint1_linear_93_3361" x1="22.6821" y1="4.93801" x2="2.93395" y2="29.8119" gradientUnits="userSpaceOnUse">
<stop stop-color="#22D1EE"/>
<stop offset="1" stop-color="#C5FF41"/>
</linearGradient>
</defs>
</svg>
