<svg width="708" height="574" fill="none" xmlns="http://www.w3.org/2000/svg"><g clip-path="url(#a)"><path d="M221.906 29.366v242.099H612V29.366H221.906Zm388.92 240.924H223.081V30.54h387.745v239.75Z" fill="#191919"/><path d="M611.412.587h-388.92v29.355h388.92V.587Z" fill="#967DFF"/><path d="M221.906 0v30.541H612V0H221.906Zm388.92 29.367H223.081V1.175h387.745v28.192Z" fill="#191919"/><path d="M246.097 17.716a6.39 6.39 0 1 0-11.809-4.89 6.39 6.39 0 0 0 11.809 4.89ZM262.039 21.567a6.39 6.39 0 1 0-2.048-12.616 6.39 6.39 0 0 0 2.048 12.616ZM281.839 8.88a6.392 6.392 0 0 0-6.267 7.638 6.391 6.391 0 1 0 6.267-7.637Z" fill="#F7F7F7"/><path d="M312.788 152.248h-42.393v94.983h42.393v-94.983ZM395.956 129.824h-42.394v117.408h42.394V129.824ZM479.124 106.988H436.73v140.244h42.394V106.988ZM562.288 71.525h-42.393v175.707h42.393V71.525ZM253.363 247.048a7.541 7.541 0 1 0-3.466-14.68 7.541 7.541 0 0 0 3.466 14.68ZM594.059 62.722a7.542 7.542 0 1 0-13.935-5.772 7.542 7.542 0 0 0 13.935 5.772Z" fill="#C5FF55"/><path d="M586.592 59.52c-.27.423-27.957 43.087-82.861 86.327a434.365 434.365 0 0 1-252.118 93.256v1.175a434.95 434.95 0 0 0 148.008-32.068 440.761 440.761 0 0 0 104.85-61.471c55.069-43.368 82.861-86.161 83.108-86.584l-.987-.635Z" fill="#191919"/><path d="M401.735 312.202c-50.205 60.166-128.508 50.288-128.508 50.288l15.646 39.938 128.52-50.287-15.658-39.939Z" fill="#C5FF55"/><path d="m353.678 377.114-1.093.423 23.635 60.413-54.693 48.526.787.881 55.304-49.078-23.94-61.165Z" fill="#191919"/><path d="m450.45 437.222-.023-1.175-74.357 1.492 9.562 24.456 1.093-.434-8.951-22.883 72.676-1.456Z" fill="#191919"/><path d="M459.008 441.901c2.926-4.735 1.461-10.946-3.274-13.872-4.735-2.927-10.946-1.461-13.872 3.274-2.927 4.735-1.461 10.945 3.274 13.872 4.734 2.927 10.945 1.461 13.872-3.274ZM395.274 466.091c2.389-5.028.249-11.04-4.779-13.429-5.028-2.388-11.04-.249-13.428 4.779-2.389 5.028-.249 11.04 4.779 13.429 5.028 2.388 11.04.248 13.428-4.779ZM331.256 483.245a10.072 10.072 0 0 0-9.181-6.381 10.071 10.071 0 0 0-9.412 6.034 10.064 10.064 0 0 0 7.06 13.863 10.07 10.07 0 0 0 12.229-9.644 10.07 10.07 0 0 0-.696-3.872ZM273.227 362.49s78.303 9.878 128.508-50.288L273.227 362.49Z" fill="#191919"/><path d="m282.101 362.776-1.093.429 14.386 36.69 1.094-.428-14.387-36.691ZM291.519 362.787l-1.093.429 13.138 33.508 1.094-.429-13.139-33.508ZM300.711 362.279l-1.094.429 12.091 30.853 1.094-.429-12.091-30.853ZM309.734 361.296l-1.093.429 11.229 28.654 1.094-.429-11.23-28.654ZM318.621 359.749l-1.094.429 10.557 26.924 1.094-.429-10.557-26.924ZM327.301 357.859l-1.094.429 10.051 25.634 1.094-.429-10.051-25.634ZM335.797 355.481l-1.094.429 9.721 24.792 1.094-.429-9.721-24.792ZM344.125 352.686l-1.094.429 9.571 24.409 1.094-.428-9.571-24.41ZM352.25 349.451l-1.094.429 9.601 24.498 1.094-.428-9.601-24.499ZM360.195 345.657l-1.093.429 9.832 25.089 1.094-.429-9.833-25.089ZM367.93 341.37l-1.094.429 10.261 26.182 1.093-.428-10.26-26.183ZM375.484 336.46l-1.093.429 10.913 27.832 1.093-.429-10.913-27.832ZM382.758 331.114l-1.094.429 11.778 30.054 1.094-.428-11.778-30.055ZM389.84 325.01l-1.094.428 12.894 32.885 1.094-.429-12.894-32.884ZM396.656 318.313l-1.094.429 14.267 36.384 1.093-.428-14.266-36.385Z" fill="#191919"/><path d="M329.411 87.7a5.72 5.72 0 0 0-7.94 8.224l4.557 4.569 8.669-7.894-5.286-4.898Z" fill="#967DFF"/><path d="M353.421 92.33a12.996 12.996 0 0 0-3.841-2.608 19.353 19.353 0 0 1-.881 16.445l4.993 4.851a13.248 13.248 0 0 0-.271-18.689Z" fill="#FFF6E3"/><path d="M349.578 89.722a13.247 13.247 0 0 0-14.883 2.878l14.002 13.614a19.355 19.355 0 0 0 .881-16.492ZM399.104 245.329l-15.541-61.634a40.514 40.514 0 0 0-25.29-28.098l-13.626-4.993-39.939-6.073-13.814.141a32.633 32.633 0 0 0-18.231 5.768l-32.374 22.319 10.737-30.342-24.739-10.267-23.07 54.329a22.317 22.317 0 0 0 11.641 29.19 22.322 22.322 0 0 0 22.319-2.619l27.416-20.592c-4.193 17.267 7.941 23.963 7.941 23.963l-12.451 45.741 46.058 9.022v8.093l67.731-1.045a26.449 26.449 0 0 0 25.488-21.092 26.435 26.435 0 0 0-.256-11.811Z" fill="#967DFF"/><path d="M359.918 148.913c-9.256-7.471-3.066-27.241-3.066-27.241a13.62 13.62 0 0 0-2.467-12.592c-4.581-5.533-.846-9.256-7.471-14.707-6.625-5.45-14.483-3.923-20.357.928-5.873 4.852-14.46-.41-16.809 7.048-1.95 6.155 3.982 9.961 3.982 9.961l1.962 15.377c-10.572 2.079-14.989 16.938-14.989 16.938l67.402 16.258s1.069-4.511-8.187-11.97Z" fill="#191919"/><path d="M330.881 99.847a18.002 18.002 0 0 0-15.67 9.092c.2.082 4.276 1.773 9.397-1.939 0 0-3.066 12.475 12.405 16.587a9.946 9.946 0 0 1 2.82-8.386 9.949 9.949 0 0 1 8.21-2.844 18.064 18.064 0 0 0-17.162-12.51Z" fill="#191919"/><path d="M347.619 112.874h-.704c-2.493 0-4.883.99-6.645 2.753a9.394 9.394 0 0 0-2.753 6.645c.003.424.035.848.094 1.268l.106.87-.846-.224c-12.792-3.394-13.309-12.51-13.015-15.952a11.605 11.605 0 0 1-5.991 1.786 8.917 8.917 0 0 1-2.42-.329 17.447 17.447 0 0 0-1.011 14.27 17.46 17.46 0 0 0 9.997 10.233h.118a17.101 17.101 0 0 0 6.296 1.175 17.44 17.44 0 0 0 5.873-1.022 16.75 16.75 0 0 0 2.632-1.174v-5.134l.998.963a8.968 8.968 0 0 0 2.408 1.68 17.283 17.283 0 0 0 4.993-8.457c.351-1.402.528-2.842.528-4.288a17.434 17.434 0 0 0-.658-5.063Z" fill="#fff"/><path d="M348.064 112.334a9.95 9.95 0 0 0-11.124 9.879c.002.452.033.903.094 1.351-15.47-4.112-12.404-16.586-12.404-16.586a11.543 11.543 0 0 1-6.754 2.349 7.364 7.364 0 0 1-2.69-.458 17.879 17.879 0 0 0-2.35 8.974 18.069 18.069 0 0 0 11.547 16.845 17.842 17.842 0 0 0 6.508 1.175c3.21.011 6.363-.846 9.127-2.479v-4.088a9.876 9.876 0 0 0 2.925 1.95 17.994 17.994 0 0 0 5.462-9.01 18.3 18.3 0 0 0 .54-4.428 18.013 18.013 0 0 0-.881-5.474Zm-.81 9.691a16.868 16.868 0 0 1-4.534 7.894 8.08 8.08 0 0 1-1.891-1.386l-1.997-1.927v6.132c-.72.395-1.471.733-2.244 1.01-1.832.656-3.763.99-5.709.987a16.516 16.516 0 0 1-6.085-1.175l-.188-.07a16.868 16.868 0 0 1-8.821-23.247c.693.16 1.403.239 2.114.235a11.93 11.93 0 0 0 5.357-1.233c-.059 4.146 1.444 12.298 13.496 15.493l1.704.459-.235-1.739a8.396 8.396 0 0 1-.082-1.175 8.785 8.785 0 0 1 8.774-8.774h.259c.754 2.809.782 5.763.082 8.586v-.07Z" fill="#191919"/><path d="m339.703 133.983-1.315.329-.987.987c-2.126 2.15-7.905 7.154-15.623 7.154a18.51 18.51 0 0 1-7.905-1.821l-8.576 4.276c-.082 2.173.13 14.096 15.894 17.021 1.55.287 3.122.436 4.698.446 12.922 0 17.773-11.007 18.149-11.923l1.48-11.171-5.815-5.298Z" fill="#fff"/><path d="M340.008 133.466v-.176l-2.737.693c-.32.409-.661.801-1.022 1.175l.74-.235c-1.856 1.868-7.6 6.977-15.212 6.977a17.817 17.817 0 0 1-7.917-1.891l-9.127 4.476s-1.398 14.706 16.351 17.972c1.596.3 3.216.453 4.84.458 13.967 0 18.724-12.357 18.724-12.357l1.527-11.547-6.167-5.545Zm3.524 16.833c-.517 1.175-5.274 11.488-17.62 11.488a25.477 25.477 0 0 1-4.628-.434c-14.578-2.69-15.447-13.333-15.412-16.081l7.988-3.994a18.99 18.99 0 0 0 7.906 1.762c7.929 0 13.861-5.122 16.045-7.33l.87-.869.845-.212 5.392 4.887-1.386 10.783ZM348.266 188.076l-1.175.2 7.87 46.282a5.988 5.988 0 0 0-2.561 6.507l-46.622 1.504-.235 28.615h1.175l.223-27.487 46.986-1.528-.235-.74a4.854 4.854 0 0 1 2.15-6.061l.388-.2-7.964-47.092Z" fill="#191919"/><path d="m353.294 241.054-.247 1.174c8.223 1.751 8.845 10.302 8.869 10.666l1.174-.07c-.011-.129-.716-9.832-9.796-11.77ZM355.488 234.275l.247 1.175c.117 0 11.57-2.349 16.88 6.496l1.01-.599c-5.756-9.609-18.008-7.095-18.137-7.072ZM338.704 177.375h-1.175c0 .129-.434 13.814 11.406 20.404l.564-1.022c-11.194-6.308-10.807-19.276-10.795-19.382ZM290.986 172.054l-6.989 4.698c-14.672 1.269-19.899 15.365-19.97 15.506l1.105.399c0-.141 5.051-13.626 19.1-14.742h.152l7.248-4.875-.646-.986Z" fill="#191919"/><path d="m282.413 164.536-.858-.799c-.246.27-5.873 6.508-3.265 14.86l1.174-.353c-2.466-7.682 2.902-13.649 2.949-13.708Z" fill="#191919"/><path d="m355.617 278.513-95.536-16.351-93.75-19.582a44.718 44.718 0 0 0-51.403 29.109l-51.979 149.64 61.153 22.401 44.344-130.693 49.007 8.821-14.66 7.048a38.768 38.768 0 0 0-21.539 40.883 38.768 38.768 0 0 0 5.869 15.29l75.178 114.659 51.803-28.944-49.477-96.158c96.123-27.522 90.99-96.123 90.99-96.123Z" fill="#fff"/><path d="m356.206 278.466-1.175.094c0 .165 1.175 17.268-9.397 37.484-9.75 18.665-31.716 43.885-81.17 58.04l-.693.2 49.548 96.322-50.84 28.392-74.838-114.189a38.163 38.163 0 0 1 2.685-45.44 38.15 38.15 0 0 1 12.751-9.887l16.292-7.8-50.828-9.221-.493-.094-44.308 130.611-60.05-22.001 51.792-149.1a44.258 44.258 0 0 1 50.734-28.721l93.75 19.593.234-1.174-93.738-19.594a45.424 45.424 0 0 0-52.084 29.496l-51.98 149.664-.14.564 62.257 22.812 44.379-130.787 46.728 8.457-13.015 6.226a39.325 39.325 0 0 0-21.89 41.506 39.32 39.32 0 0 0 5.973 15.524l75.178 114.647.294.459 52.649-29.508-49.336-96.017c49.336-14.331 71.431-39.692 81.228-58.498 10.677-20.51 9.514-37.883 9.503-38.06Z" fill="#191919"/><path d="M263.876 302.664c-.082-.164-7.858-15.811-1.456-24.445l-.94-.693c-6.19 8.34-.329 22.096 1.069 25.091l-45.319 18.795.447 1.081 46.481-19.218-.282-.611ZM235.707 348.547l-.105 1.175c17.62 1.503 28.356 24.938 28.462 25.173l1.069-.482c-.447-.987-11.089-24.292-29.426-25.866ZM327.837 288.968l-1.081-.47c-.082.188-8.222 19.323 3.665 34.512l.917-.717c-11.465-14.601-3.607-33.102-3.501-33.325Z" fill="#191919"/><path d="m325.769 310.934-1.033-.564c-15.905 29.578-86.362 50.746-87.066 50.957l-.682.212 61.376 118.018 1.046-.54-60.742-116.774c7.377-2.267 71.819-22.894 87.101-51.309ZM152.073 291.67l-1.175.106c1.257 15.435 17.174 21.754 17.338 21.813l.423-1.104c-.164-.024-15.388-6.097-16.586-20.815Z" fill="#191919"/><path d="m155.994 302.853-.423-.012-49.723 134.205 1.104.411 49.43-133.418 100.187 2.279.023-1.175-100.598-2.29ZM307.493 474.471l-35.181 19.593c-8.434 4.699-4.182 23.493-10.02 28.591l-13.003 11.277a34.826 34.826 0 0 0-8.622 19.335 33.212 33.212 0 0 0-.2 4.335c6.167-.811 27.464-4.781 33.313-20.968 6.849-18.983 20.534-20.38 35.475-19.453 9.398.6 14.178-5.473 16.446-10.055l-18.208-32.655Z" fill="#191919"/><path d="M325.675 507.115c-2.244 4.581-7.048 10.654-16.445 10.055-14.942-.928-28.627.47-35.475 19.453-5.873 16.187-27.147 20.157-33.314 20.968a34.603 34.603 0 0 0 4.382 16.445l48.102-26.794 8.881-21.144 6.872 12.381 26.265-14.637-9.268-16.727Z" fill="#967DFF"/><path d="M78.527 426.803c-9.068-3.336-20.58 12.17-28.192 11.042l-17.056-2.514a34.851 34.851 0 0 0-20.275 6.05 35.98 35.98 0 0 0-3.418 2.643c4.64 4.158 21.532 17.726 37.59 11.606 18.794-7.178 28.837 2.349 37.87 14.225 5.686 7.518 13.403 7.189 18.337 5.873l12.921-35.064-37.777-13.861Z" fill="#191919"/><path d="M85.07 469.866c-9.034-11.935-19.019-21.402-37.872-14.225-16.081 6.12-32.973-7.448-37.59-11.606A34.67 34.67 0 0 0 0 458.119l51.685 19.018 21.825-7.048-4.91 13.286 28.192 10.384 6.578-18.02c-4.898 1.328-12.616 1.657-18.3-5.873Z" fill="#967DFF"/><path d="M267.167 103.852a3.996 3.996 0 0 0-3.653-.164l-14.272 6.531-16.351 24.034 13.414 5.532.94-2.455 18.372-4.099 3.723-6.379a8.735 8.735 0 0 0-.411-9.397l-6.413-9.022 2.349 1.41a24.092 24.092 0 0 0 3.818 1.868c1.247.492 2.571.763 3.911.798a5.096 5.096 0 0 0 2.811-.659 5.098 5.098 0 0 0 2.005-2.078l-10.243-5.92Z" fill="#fff"/><path d="M267.459 103.371a4.681 4.681 0 0 0-2.279-.611c-.661 0-1.314.144-1.914.423l-.846.387-13.579 6.214-16.845 24.739 14.683 6.084 1.034-2.725 18.325-4.088 3.841-6.589a9.307 9.307 0 0 0-.435-10.091l-.481-.669-4.335-6.097a25.162 25.162 0 0 0 3.912 1.915c1.314.519 2.71.802 4.123.834a5.629 5.629 0 0 0 5.556-3.524l-10.76-6.202Zm5.169 8.575a10.956 10.956 0 0 1-3.712-.764 23.054 23.054 0 0 1-3.724-1.832l-4.699-2.808 3.207 4.511 4.335 6.096.47.67a8.161 8.161 0 0 1 1.488 4.348 8.16 8.16 0 0 1-1.101 4.462l-3.653 6.108-17.82 3.971-.61.141-.224.587-.61 1.597-12.217-5.039 15.846-23.305 13.274-6.073.858-.388c.444-.21.929-.318 1.421-.317a3.45 3.45 0 0 1 1.691.458l9.762 5.615a4.588 4.588 0 0 1-3.982 1.938v.024Z" fill="#191919"/><path d="m265.145 110.137-1.104.411c2.631 7.118-.776 11.253-1.715 12.216-4.288-1.069-6.555 2.35-7.166 4.452l1.175.329c0-.199 1.539-4.898 6.038-3.524l.305.094.247-.211c.011-.094 5.474-4.969 2.22-13.767Z" fill="#191919"/><path d="m259.012 112.768.658.987s2.408-1.55 5.485.681l.693-.951c-3.747-2.713-6.707-.799-6.836-.717ZM257.662 102.537l-8.822 7.224 13.579-6.214a3.114 3.114 0 0 0-4.757-1.01ZM268.505 112.263a25.101 25.101 0 0 1-3.911-1.914l4.334 6.096-.423-4.182Z" fill="#191919"/><path d="M288.051 247.444a3.678 3.678 0 0 0-1.01-.153 3.52 3.52 0 0 0-2.279.858l-1.974 1.726a1.912 1.912 0 0 1-1.245.458 1.866 1.866 0 0 1-1.245-.469 3.427 3.427 0 0 0-2.349-.87 3.4 3.4 0 0 0-2.103.717l-15.823 12.064a15.195 15.195 0 0 0 5.439 1.069 14.629 14.629 0 0 0 10.572-4.946l.623-.763.376.916c3.065 7.4 8.974 11.148 17.62 11.148 3.7-.046 7.371-.673 10.877-1.856l.153-14.555-17.632-5.344Z" fill="#fff"/><path d="M288.214 246.88a4.038 4.038 0 0 0-3.841.822l-1.973 1.727a1.299 1.299 0 0 1-.858.317 1.271 1.271 0 0 1-.858-.329 4.067 4.067 0 0 0-5.145-.176l-16.621 12.71a15.905 15.905 0 0 0 6.602 1.515 15.168 15.168 0 0 0 11.053-5.157c3.83 9.257 11.524 11.512 18.09 11.512a35.585 35.585 0 0 0 11.476-2.021l.153-15.411-18.078-5.509Zm16.763 20.039a35.017 35.017 0 0 1-10.314 1.692c-8.317 0-14.037-3.63-16.997-10.795l-.764-1.821-1.245 1.539a14.092 14.092 0 0 1-10.137 4.699 13.757 13.757 0 0 1-4.217-.682l14.953-11.347a2.887 2.887 0 0 1 3.653.129 2.469 2.469 0 0 0 3.266 0l1.973-1.715a2.829 2.829 0 0 1 2.725-.587l17.233 5.215-.129 13.673Z" fill="#191919"/><path d="m284.29 250.879-.427 1.095 8.986 3.503.426-1.095-8.985-3.503ZM173.92 153.083l-18.865 67.578 79.466 39.387 18.877-67.578-79.478-39.387Z" fill="#191919"/><path d="m241.824 257.805 17.28-61.858-5.333-2.643-18.56 66.439 46.012 22.8 2.067-4.182-41.466-20.556Z" fill="#fff"/><path d="m242.519 257.499 17.279-61.858-6.402-3.171-18.876 67.578 46.986 23.282 2.596-5.239-41.583-20.592Zm38.435 24.257-45.048-22.319 18.242-65.276 4.264 2.115-17.021 60.906-.258.928.869.435 40.503 20.075-1.551 3.136Z" fill="#191919"/><path d="M206.046 196.616a11.513 11.513 0 0 0-12.137 19.435 11.517 11.517 0 0 0 12.763.859 11.508 11.508 0 0 0 5.169-13.66 11.513 11.513 0 0 0-5.795-6.634ZM347.994 112.909a8.314 8.314 0 0 0-1.081-.059 9.395 9.395 0 0 0-9.397 9.397c.004.425.032.848.082 1.269a9.383 9.383 0 0 0 1.327 3.665c.411.66.9 1.267 1.457 1.809a9.4 9.4 0 0 0 6.496 2.62h.164a9.396 9.396 0 0 0 .916-18.666l.036-.035Z" fill="#fff"/><path d="M348.065 112.333a9.95 9.95 0 0 0-11.124 9.879c.002.452.033.903.094 1.351a9.912 9.912 0 0 0 1.398 3.888c.437.703.958 1.35 1.551 1.927a9.997 9.997 0 0 0 6.907 2.784h.176a9.951 9.951 0 0 0 .975-19.829h.023Zm-.998 18.654h-.153a8.788 8.788 0 0 1-8.774-8.751 8.786 8.786 0 0 1 8.774-8.775c.338-.005.676.014 1.011.059a8.776 8.776 0 0 1 5.1 15.021 8.774 8.774 0 0 1-5.958 2.469v-.023Z" fill="#191919"/><path d="M346.915 132.162a9.997 9.997 0 0 1-6.907-2.784v4.088l6.167 5.591.916-6.895h-.176ZM341.828 127.792l1.104.376c0-.094 3.289-9.398 9.961-8.705l.13-1.174c-7.671-.823-11.101 9.08-11.195 9.503Z" fill="#191919"/><path d="m344.742 122.612.282 1.174c4.851-1.174 6.79 1.281 6.872 1.386l.951-.693c-.105-.164-2.443-3.254-8.105-1.867Z" fill="#191919"/><path d="m309.348 119.887 10.454 3.935.752-10.56-11.206 6.625Z" fill="#fff"/><path d="m320.847 113.779-.599-1.022-12.264 7.248 11.606 4.358.423-1.093-9.315-3.5 10.149-5.991ZM324.653 119.816a1.891 1.891 0 1 0 0 3.782 1.891 1.891 0 0 0 0-3.782ZM331.253 123.34c-.728 5.873-7.752 5.932-8.046 5.932v1.175c.082 0 8.352-.106 9.221-6.954l-1.175-.153ZM330.88 135.944a17.84 17.84 0 0 1-6.507-1.174l-10.502 5.239c11.394 5.544 20.674-2.608 23.129-5.087a18.161 18.161 0 0 1-6.12 1.022ZM314.773 109.303l.87-.787-.87.787Z" fill="#191919"/><g clip-path="url(#b)"><path d="M75 84.55v-34a33.719 33.719 0 0 0-16 4 32.715 32.715 0 0 0-4.14 2.6l-1.72 1.35A34 34 0 0 0 96 111.26l.1-.07a34.08 34.08 0 0 0 9.491-11.847 34.072 34.072 0 0 0 3.408-14.793h-34Z" fill="#967DFF"/><path d="M120.538 70a34 34 0 0 0-33.21-26.72v34h34a33.564 33.564 0 0 0-.79-7.28Z" fill="#C5FF55"/><path d="m63.58 51-2.69 2.12a34.54 34.54 0 0 1 13.93-3l8-6.25A33.13 33.13 0 0 0 63.58 51Z" fill="#fff"/><path d="m63.278 50.56-.1.07-8.28 6.5c1.3-.967 2.671-1.836 4.1-2.6a33.72 33.72 0 0 1 16-4l9.3-7.25a33.82 33.82 0 0 0-21.02 7.28Zm11.37-1c-3.669.037-7.31.648-10.79 1.81a32.64 32.64 0 0 1 17.36-6.95l-6.57 5.14ZM108.999 84.55a34.078 34.078 0 0 1-12.89 26.64l8.8-6.89.15-.12a34.008 34.008 0 0 0 13.22-26.91l-9.28 7.28ZM96.638 36l-9.31 7.28A34 34 0 0 1 120.538 70a33.56 33.56 0 0 1 .78 7.28l9.31-7.28a34 34 0 0 0-33.99-34ZM84.298 77.27V43.28l-9.31 7.28v33.99h33.99l9.3-7.28h-33.98Z" fill="#191919"/></g><g clip-path="url(#c)" fill="#967DFF"><path d="m473.64 544.86-7.47-1.08-3.35-6.78-3.34 6.78-7.48 1.08 5.41 5.28-1.28 7.45 6.69-3.52 6.69 3.52-1.28-7.45 5.41-5.28ZM499.459 544.86l-7.48-1.08-3.35-6.78-3.34 6.78-7.48 1.08 5.41 5.28-1.27 7.45 6.68-3.52 6.69 3.52-1.27-7.45 5.41-5.28ZM525.271 544.86l-7.48-1.08-3.34-6.78-3.35 6.78-7.48 1.08 5.41 5.28-1.27 7.45 6.69-3.52 6.68 3.52-1.27-7.45 5.41-5.28ZM551.08 544.86l-7.48-1.08-3.34-6.78-3.35 6.78-7.48 1.08 5.41 5.28-1.27 7.45 6.69-3.52 6.68 3.52-1.27-7.45 5.41-5.28ZM576.89 544.86l-7.48-1.08-3.34-6.78-3.35 6.78-7.47 1.08 5.41 5.28-1.28 7.45 6.69-3.52 6.69 3.52-1.28-7.45 5.41-5.28Z"/></g></g><g clip-path="url(#d)"><path d="M669.75 378.93c-6.85 1.37-12.62 5.62-16.57 9a29.718 29.718 0 0 1 .82-9.73c2.45-9.47 8.88-16.58 13.85-20.89 10.15-8.8 23.8-14.45 39.36-16.31l-.12-1c-15.76 1.89-29.55 7.62-39.88 16.56-7.27 6.3-12.21 13.7-14.16 21.44a30.51 30.51 0 0 0-.79 10.75l-.21.18c-7.47 6.59-14 14.34-20.26 21.85-5.66 6.76-11.52 13.75-18.06 19.84-16 14.92-34.5 21.1-49.8 16.68l5.91-4.52-.61-.8-7.23 5.49 6.11 6.34.72-.7-4.59-4.76a37.234 37.234 0 0 0 9.81 1.31c13.16 0 27.57-6.43 40.36-18.36 6.59-6.13 12.46-13.15 18.15-19.93 6.17-7.37 12.56-15 19.85-21.47a24.93 24.93 0 0 0 5.69 12.77c6.07 7 16.36 9.25 23.93 5.31a16.75 16.75 0 0 0 8.23-10.82 14.59 14.59 0 0 0-1.87-11.84c-4.26-6.13-12.39-7.63-18.64-6.39Zm19.53 18a15.716 15.716 0 0 1-7.71 10.17c-7.17 3.73-16.94 1.55-22.71-5.07a24 24 0 0 1-5.55-12.91c6-5.21 11.32-8.13 16.64-9.2 5.88-1.18 13.61.22 17.62 6a13.587 13.587 0 0 1 1.71 11v.01Z" fill="#191919"/></g><g clip-path="url(#e)" stroke="#191919"><path d="M490.6 333.363a30.5 30.5 0 0 1 37.767 19.316l-28.542 9.226-9.225-28.542ZM520.094 323.825l28.542-9.226a30.499 30.499 0 0 1-19.316 37.768l-9.226-28.542ZM500.135 362.86a30.503 30.503 0 0 1 37.767 19.316l-28.542 9.226-9.225-28.542Z" fill="#967DFF"/><path d="m529.63 353.322 28.542-9.226a30.498 30.498 0 0 1-19.317 37.768l-9.225-28.542Z" fill="#C5FF55"/></g><defs><clipPath id="a"><path fill="#fff" d="M0 0h612v574H0z"/></clipPath><clipPath id="b"><path fill="#fff" transform="translate(41 36)" d="M0 0h89.63v82.53H0z"/></clipPath><clipPath id="c"><path fill="#fff" transform="translate(452 537)" d="M0 0h124.89v20.59H0z"/></clipPath><clipPath id="d"><path fill="#fff" transform="translate(562 340)" d="M0 0h145.21v113.81H0z"/></clipPath><clipPath id="e"><path fill="#fff" transform="rotate(-17.912 1301.568 -1387.943)" d="M0 0h62v62H0z"/></clipPath></defs></svg>