<svg width="61" height="61" viewBox="0 0 61 61" fill="none" xmlns="http://www.w3.org/2000/svg">
<g clip-path="url(#clip0_53_925)">
<path d="M30.5008 61C38.9231 61 46.5481 57.5861 52.0675 52.0667L47.7257 40.5594L30.5008 30.5L26.5234 49.4409L30.5008 61Z" fill="#68FFFF"/>
<path d="M0 30.4998C0 38.9221 3.41386 46.5471 8.93328 52.0665L23.208 44.3172L30.5 30.4998L16.773 25.7617L0 30.4998Z" fill="#68FFFF"/>
<path d="M30.5003 0C22.078 0 14.4529 3.41386 8.93359 8.93328L19.5049 23.0078L30.5003 30.5L33.9519 11.6845L30.5003 0Z" fill="#68FFFF"/>
<path d="M8.93328 8.93359C3.41386 14.453 0 22.078 0 30.5003H30.5L8.93328 8.93359Z" fill="#00C2FF"/>
<path d="M61 30.5003C61 22.078 57.5861 14.453 52.0667 8.93359L41.0505 14.1284L30.5 30.5003L49.4847 33.7182L61 30.5003Z" fill="#68FFFF"/>
<path d="M52.0667 8.93328C46.5473 3.41386 38.9223 0 30.5 0V30.5L52.0667 8.93328Z" fill="#00C2FF"/>
<path d="M30.5 30.5L52.0667 52.0667C57.5861 46.5473 61 38.9223 61 30.5H30.5Z" fill="#00C2FF"/>
<path d="M8.93359 52.0667C14.4529 57.5861 22.078 61 30.5003 61V30.5L8.93359 52.0667Z" fill="#00C2FF"/>
<path d="M30.5005 30.5003L32.1959 19.1632L30.5005 7.82617L23.8594 14.4673L25.3004 23.2091L30.5005 30.5003Z" fill="#0094FF"/>
<path d="M30.5 30.4998L38.6988 28.6966L46.533 23.8587V14.4668H37.1411L32.7245 20.2331L30.5 30.4998Z" fill="#0094FF"/>
<path d="M23.8594 46.533L30.5005 53.1741L31.9944 41.8371L30.5005 30.5L24.695 40.5575L23.8594 46.533Z" fill="#0094FF"/>
<path d="M30.5 30.5L33.0053 41.403L37.1411 46.533H46.533V37.1411L46.542 37.1321L41.673 33.6383L30.5 30.5Z" fill="#0094FF"/>
<path d="M46.533 23.8594L30.5 30.5005L46.542 37.1326L53.1741 30.5005L46.533 23.8594Z" fill="#0066FF"/>
<path d="M30.5 53.1741L37.1411 46.533L30.5 30.5V53.1741Z" fill="#0066FF"/>
<path d="M14.4583 23.8691L7.82617 30.5012L14.4673 37.1424L22.3016 35.8375L30.5003 30.5012L22.3016 25.1567L14.4583 23.8691Z" fill="#0094FF"/>
<path d="M23.8599 14.4668H14.468V23.8587L14.459 23.8677L30.501 30.4998L23.8599 14.4668Z" fill="#0066FF"/>
<path d="M14.4688 37.1411V46.533H23.8606L30.5017 30.5L14.4688 37.1411Z" fill="#0066FF"/>
<path d="M30.5 30.5003L37.1411 14.4673L30.5 7.82617V30.5003Z" fill="#0066FF"/>
<path d="M21.5781 30.4993C21.5781 35.4185 25.5802 39.4204 30.4993 39.4204L33.8198 30.4993L30.4993 21.5781C25.5802 21.5781 21.5781 25.5801 21.5781 30.4993Z" fill="#68FFFF"/>
<path d="M30.5 21.5781V39.4203C35.4191 39.4203 39.4211 35.4183 39.4211 30.4991C39.4211 25.5799 35.4191 21.5781 30.5 21.5781Z" fill="#00C2FF"/>
</g>
<defs>
<clipPath id="clip0_53_925">
<rect width="61" height="61" fill="white"/>
</clipPath>
</defs>
</svg>
