<svg width="35" height="35" viewBox="0 0 35 35" fill="none" xmlns="http://www.w3.org/2000/svg">
<path d="M17.4863 2.6084C9.03369 2.60498 2.1875 9.44776 2.1875 17.8936C2.1875 24.5723 6.47021 30.2495 12.4346 32.3345C13.2378 32.5361 13.1147 31.9653 13.1147 31.5757V28.9268C8.47656 29.4702 8.28857 26.4009 7.97754 25.8882C7.34863 24.8149 5.86182 24.5415 6.30615 24.0288C7.3623 23.4854 8.43896 24.1655 9.68652 26.0078C10.5889 27.3442 12.3491 27.1187 13.2412 26.8965C13.436 26.0933 13.853 25.3755 14.4272 24.8184C9.62158 23.957 7.61865 21.0244 7.61865 17.5381C7.61865 15.8462 8.17578 14.291 9.26953 13.0366C8.57227 10.9688 9.33447 9.19824 9.43701 8.93506C11.4229 8.75733 13.4873 10.3569 13.6479 10.4834C14.7759 10.1792 16.0645 10.0186 17.5068 10.0186C18.9561 10.0186 20.248 10.186 21.3862 10.4937C21.7725 10.1997 23.6865 8.82569 25.5322 8.99317C25.6313 9.25635 26.3765 10.9858 25.7202 13.0264C26.8276 14.2842 27.3916 15.853 27.3916 17.5483C27.3916 21.0415 25.375 23.9775 20.5557 24.8252C20.9685 25.2311 21.2962 25.7153 21.5198 26.2493C21.7434 26.7834 21.8583 27.3566 21.8579 27.9356V31.7808C21.8853 32.0884 21.8579 32.3926 22.3706 32.3926C28.4238 30.3521 32.7817 24.6338 32.7817 17.897C32.7817 9.44776 25.9321 2.6084 17.4863 2.6084Z" fill="black"/>
</svg>
