<svg width="30" height="30" viewBox="0 0 30 30" fill="none" xmlns="http://www.w3.org/2000/svg">
<path d="M27.2569 12.5519H26.25V12.5H15V17.5H22.0644C21.0338 20.4106 18.2644 22.5 15 22.5C10.8581 22.5 7.5 19.1419 7.5 15C7.5 10.8581 10.8581 7.5 15 7.5C16.9119 7.5 18.6513 8.22125 19.9756 9.39937L23.5112 5.86375C21.2787 3.78312 18.2925 2.5 15 2.5C8.09688 2.5 2.5 8.09688 2.5 15C2.5 21.9031 8.09688 27.5 15 27.5C21.9031 27.5 27.5 21.9031 27.5 15C27.5 14.1619 27.4137 13.3438 27.2569 12.5519Z" fill="#FFC107"/>
<path d="M3.9375 9.18188L8.04437 12.1938C9.15563 9.4425 11.8469 7.5 14.9963 7.5C16.9081 7.5 18.6475 8.22125 19.9719 9.39937L23.5075 5.86375C21.275 3.78312 18.2888 2.5 14.9963 2.5C10.195 2.5 6.03125 5.21062 3.9375 9.18188Z" fill="#FF3D00"/>
<path d="M15.0031 27.5004C18.2319 27.5004 21.1656 26.2648 23.3838 24.2554L19.515 20.9817C18.2178 21.9682 16.6328 22.5017 15.0031 22.5004C11.7519 22.5004 8.99125 20.4273 7.95125 17.5342L3.875 20.6748C5.94375 24.7229 10.145 27.5004 15.0031 27.5004Z" fill="#4CAF50"/>
<path d="M27.2569 12.5519H26.25V12.5H15V17.5H22.0644C21.5714 18.8853 20.6833 20.0957 19.51 20.9819L19.5119 20.9806L23.3806 24.2544C23.1069 24.5031 27.5 21.25 27.5 15C27.5 14.1619 27.4137 13.3438 27.2569 12.5519Z" fill="#1976D2"/>
</svg>
