<svg width="35" height="35" viewBox="0 0 35 35" fill="none" xmlns="http://www.w3.org/2000/svg">
<g clip-path="url(#clip0_623_6686)">
<path d="M9.04312 30.625H2.69391V10.1784H9.04312V30.625ZM5.86469 7.38938C3.83469 7.38938 2.1875 5.70719 2.1875 3.67719C2.1875 2.70194 2.57492 1.76663 3.26452 1.07702C3.95413 0.387417 4.88944 0 5.86469 0C6.83994 0 7.77524 0.387417 8.46485 1.07702C9.15446 1.76663 9.54187 2.70194 9.54187 3.67719C9.54187 5.70719 7.89469 7.38938 5.86469 7.38938ZM32.8059 30.625H26.4709V20.6719C26.4709 18.2995 26.4228 15.2578 23.17 15.2578C19.8691 15.2578 19.3627 17.8347 19.3627 20.5012V30.625H13.02V10.1784H19.1089V12.9675H19.1975C20.0452 11.3608 22.1156 9.66547 25.2044 9.66547C31.6302 9.66547 32.8114 13.8972 32.8114 19.3933V30.625H32.8059Z" fill="#0E76A8"/>
</g>
<defs>
<clipPath id="clip0_623_6686">
<rect width="35" height="35" fill="white"/>
</clipPath>
</defs>
</svg>
