<svg width="35" height="29" viewBox="0 0 35 29" fill="none" xmlns="http://www.w3.org/2000/svg">
<g clip-path="url(#clip0_623_6682)">
<path d="M35 3.48146C33.7121 4.05288 32.3282 4.43907 30.8757 4.61281C32.3585 3.7236 33.4969 2.3155 34.033 0.63776C32.6235 1.47469 31.0814 2.06436 29.4733 2.3813C28.1634 0.984963 26.2973 0.112305 24.2319 0.112305C20.2662 0.112305 17.051 3.32933 17.051 7.29713C17.051 7.86034 17.1146 8.40864 17.237 8.93464C11.2692 8.63491 5.97816 5.77453 2.43646 1.42752C1.8185 2.48869 1.46439 3.72305 1.46439 5.03963C1.46439 7.53243 2.73219 9.73151 4.65883 11.0201C3.51852 10.9843 2.40331 10.6761 1.40629 10.1213C1.40588 10.1514 1.40588 10.1815 1.40588 10.2117C1.40588 13.6929 3.88104 16.5969 7.16584 17.257C6.10844 17.5447 4.9993 17.5868 3.92314 17.3801C4.83684 20.2346 7.48877 22.3118 10.6308 22.3699C8.17332 24.2969 5.07705 25.4456 1.71295 25.4456C1.13326 25.4456 0.561777 25.4116 0 25.3452C3.17775 27.3839 6.95215 28.5733 11.0072 28.5733C24.2152 28.5733 31.4377 17.625 31.4377 8.13039C31.4377 7.81875 31.4308 7.5089 31.4169 7.20082C32.8227 6.18395 34.036 4.92446 35 3.48146Z" fill="#55ACEE"/>
</g>
<defs>
<clipPath id="clip0_623_6682">
<rect width="35" height="28.5915" fill="white"/>
</clipPath>
</defs>
</svg>
